<?xml version="1.0" encoding="UTF-8"?>
<!-- Generated by Pixelmator Pro 3.8 -->
<svg width="430" height="392" viewBox="0 0 430 392" xmlns="http://www.w3.org/2000/svg">
    <path id="H" fill="#ffffff" stroke="none" d="M 230 0 C 228.719177 31.037659 228.078766 64.370972 228.078766 100 C 228.078766 135.628998 228.719177 168.962357 230 200 L 165.501205 200 L 165.501205 125.068878 L 64.498802 125.068878 L 64.498802 200 L 0 200 C 1.463755 164.370972 2.195661 131.037659 2.195661 100 C 2.195661 68.962372 1.463755 35.629028 0 0 L 64.498802 0 L 64.498802 74.931122 L 165.501205 74.931122 L 165.501205 0 L 230 0 Z"/>
    <path id="o" fill="#ffffff" stroke="none" d="M 260.106812 67.365204 C 261.638397 65.539551 263.270081 63.762909 265.002777 62.055054 C 279.872559 47.351685 303.1008 40 334.687592 40 C 355.930084 40 373.709167 43.533508 388.024811 50.600494 C 402.340424 57.667633 412.913605 67.188477 419.753906 79.153442 C 426.584717 91.118286 430 104.545746 430 119.435547 C 430 143.748184 422.10144 163.251282 406.313782 177.944824 C 390.516663 192.648315 366.647583 200 334.687592 200 C 303.1008 200 279.872559 192.599182 265.002777 177.80751 C 263.665497 176.472519 262.387848 175.108292 261.170837 173.704651 C 260.390594 148.145447 260 121.163055 260 92.757507 C 260 84.169067 260.035583 75.698425 260.106812 67.365204 Z M 335.795868 151.94397 C 347.802521 151.94397 356.757507 149.019028 362.674225 143.17894 C 368.58136 137.33873 371.534943 129.51593 371.534943 119.720245 C 371.534943 110.483948 368.58136 102.896698 362.674225 96.958496 C 356.757507 91.020172 347.802521 88.055908 335.795868 88.055908 C 323.789246 88.055908 315.015137 90.980865 309.473602 96.821075 C 303.932068 102.661163 301.161285 110.297516 301.161285 119.720245 C 301.161285 129.51593 303.932068 137.33873 309.473602 143.17894 C 315.015137 149.019028 323.789246 151.94397 335.795868 151.94397 Z"/>
    <path id="m" fill="#ffffff" stroke="none" d="M 1.335591 262.715149 C 0.984246 253.632446 0.55251 244.350067 0.030457 234.87767 C 12.750063 235.447281 22.487959 235.737076 29.234339 235.737076 C 36.362087 235.737076 46.099983 235.447281 58.438099 234.87767 L 67.111916 277.463074 C 71.539078 261.925781 78.576508 250.465103 88.214157 243.081085 C 97.851685 235.687073 108.934792 232 121.463715 232 C 136.502289 232 148.790161 236.126648 158.327332 244.369949 C 167.874542 252.62326 173.797638 263.364532 176.106567 276.60376 C 180.5439 262.984833 187.962814 252.143661 198.373383 244.080276 C 208.783936 236.026764 220.640076 232 233.931854 232 C 251.27948 232 264.872498 237.805344 274.700714 249.405899 C 284.529053 261.016479 289.448242 276.893585 289.448242 297.037231 L 289.448242 344.79837 C 289.448242 366.480804 289.638916 382.208038 290.030457 392 L 222.657944 392 C 224.20401 366.860504 224.977051 340.871613 224.977051 314.013428 C 224.977051 305.380432 222.808563 298.615906 218.47171 293.719879 C 214.13475 288.833832 208.392395 286.385864 201.264648 286.385864 C 194.709076 286.385864 189.077148 289.26355 184.348648 295.01886 C 179.670502 300.724182 177.311325 308.977478 177.271133 319.768768 C 177.271133 319.858673 177.271133 319.958557 177.271133 320.058472 C 177.271133 353.861084 177.752991 377.841583 178.716705 392 L 113.6633 392 C 114.817818 363.792938 115.389999 337.804047 115.389999 314.013428 C 115.389999 305.570221 113.321877 298.855713 109.175842 293.869781 C 105.029678 288.88385 99.779121 286.385864 93.4244 286.385864 C 86.678146 286.385864 81.036163 289.213531 76.508514 294.878967 C 71.980858 300.534393 69.330521 308.258118 68.557487 318.040192 C 68.165947 332.618317 67.975266 342.979889 67.975266 349.114929 C 67.975266 362.164246 68.366798 376.452698 69.129784 392 L 0.030457 392 C 0.48229 384.0065 0.863782 376.152893 1.174931 368.429199 C 13.80422 354.260773 20.108692 336.355286 20.108692 314.69281 C 20.108692 299.535217 16.54488 285.866272 9.417007 273.686218 C 7.118133 269.769348 4.427595 266.112305 1.335591 262.715149 Z"/>
    <path id="i" fill="#ffffff" stroke="none" d="M 303.607605 244.382874 C 303.415253 240.312927 303.212769 236.181992 303 232 L 373 232 C 371.450623 261.110443 370.670776 288.460388 370.670776 314.050262 C 370.670776 335.539612 371.349243 361.516113 372.70639 392 L 321.219025 392 C 320.824036 382.028687 320.631683 366.013428 320.631683 343.933868 L 320.631683 295.298035 C 320.631683 274.785431 315.669281 258.617523 305.754608 246.794312 C 305.055878 245.960037 304.336884 245.156174 303.607605 244.382874 Z"/>
</svg>
