<?xml version="1.0" encoding="UTF-8" standalone="no"?><!DOCTYPE svg PUBLIC "-//W3C//DTD SVG 1.1//EN" "http://www.w3.org/Graphics/SVG/1.1/DTD/svg11.dtd"><svg width="932px" height="176px" version="1.1" xmlns="http://www.w3.org/2000/svg" xmlns:xlink="http://www.w3.org/1999/xlink" xml:space="preserve" xmlns:serif="http://www.serif.com/" style="fill-rule:evenodd;clip-rule:evenodd;stroke-linejoin:round;stroke-miterlimit:2;"><g transform="matrix(4.16667,0,0,4.16667,0,5.82724e-05)"><path d="M205.406,42C207.545,42 209.555,40.418 213.575,31.992C216.312,26.005 218.365,20.702 220.503,15.271C221.187,13.517 221.53,13.175 222.599,12.876C223.368,12.662 223.668,12.363 223.668,11.892C223.668,11.464 223.411,11.079 222.77,11.079C221.829,11.079 220.717,11.208 219.434,11.208C218.108,11.208 217.125,11.079 216.141,11.079C215.542,11.079 215.243,11.422 215.243,11.849C215.243,12.319 215.542,12.619 216.226,12.833C218.108,13.346 218.279,14.159 217.552,16.383C216.397,19.89 215.114,23.268 213.147,27.759C211.479,23.61 210.068,19.889 208.657,15.699C208.143,14.073 208.315,13.389 210.325,12.833C211.094,12.619 211.351,12.363 211.351,11.893C211.351,11.422 211.009,11.079 210.41,11.079C209.127,11.079 207.801,11.208 206.048,11.208C204.166,11.208 202.798,11.079 201.472,11.079C200.83,11.079 200.531,11.464 200.531,11.892C200.531,12.405 200.787,12.662 201.557,12.876C202.541,13.132 202.84,13.474 203.439,15.014C205.791,20.874 207.887,26.048 210.624,33.062C208.785,36.44 207.416,37.21 205.577,37.552C204.081,37.809 203.097,38.75 203.097,39.947C203.097,40.931 203.781,42 205.406,42ZM192.063,12.79C194.8,12.79 196.041,15.27 196.041,16.254C196.041,16.596 195.87,16.854 195.485,16.939C193.175,17.537 190.395,18.093 187.487,18.607C188,14.715 189.925,12.79 192.063,12.79ZM192.363,32.035C196.083,32.035 198.649,30.196 200.189,28.357C200.873,27.545 200.446,26.817 199.761,26.817C199.59,26.817 199.419,26.903 199.248,26.989C197.452,28.101 196.041,28.699 194.116,28.699C189.882,28.699 187.359,24.979 187.359,20.745L187.359,20.659C191.55,20.061 195.656,19.248 199.89,18.264C200.446,18.136 200.83,17.708 200.702,17.067C200.018,13.987 197.195,10.609 192.32,10.609C187.444,10.609 182.954,15.142 182.954,21.686C182.954,27.844 186.931,32.036 192.363,32.036L192.363,32.035ZM172.391,31.693C173.802,31.693 175.299,31.565 177.009,31.565C178.72,31.565 180.303,31.693 181.714,31.693C182.355,31.693 182.655,31.308 182.655,30.88C182.655,30.41 182.355,29.982 181.628,29.897C179.704,29.683 179.362,29.469 179.362,28.571C179.276,24.423 179.276,20.531 179.276,16.682C179.276,13.132 179.276,9.241 179.404,0.602C179.404,0.046 179.062,-0.083 178.592,0.046C176.582,0.549 174.538,0.907 172.476,1.115C171.749,1.158 171.45,1.5 171.45,1.927C171.45,2.397 171.749,2.74 172.562,2.868C174.443,3.21 174.657,3.424 174.7,4.408C174.786,8.728 174.786,12.79 174.786,16.682C174.786,20.531 174.786,24.422 174.7,28.572C174.657,29.469 174.401,29.64 172.476,29.897C171.706,29.982 171.45,30.41 171.45,30.881C171.45,31.308 171.749,31.693 172.391,31.693ZM162.726,12.79C165.463,12.79 166.703,15.27 166.703,16.254C166.703,16.596 166.532,16.854 166.147,16.939C163.837,17.537 161.058,18.093 158.15,18.607C158.663,14.715 160.587,12.79 162.726,12.79ZM163.025,32.035C166.746,32.035 169.312,30.196 170.851,28.357C171.536,27.545 171.108,26.817 170.424,26.817C170.253,26.817 170.081,26.903 169.91,26.989C168.114,28.101 166.703,28.699 164.778,28.699C160.544,28.699 158.021,24.979 158.021,20.745L158.021,20.659C162.212,20.061 166.318,19.248 170.552,18.264C171.108,18.136 171.493,17.708 171.365,17.067C170.68,13.987 167.858,10.609 162.982,10.609C158.107,10.609 153.616,15.142 153.616,21.686C153.616,27.844 157.594,32.036 163.025,32.036L163.025,32.035ZM132.147,31.693C133.559,31.693 134.97,31.565 136.68,31.565C138.391,31.565 139.845,31.693 141.257,31.693C141.898,31.693 142.197,31.308 142.197,30.88C142.197,30.41 141.941,30.068 141.171,29.897C139.247,29.597 139.033,29.469 139.033,28.571C138.99,27.203 138.99,25.834 138.99,24.508C139.933,23.906 140.86,23.279 141.77,22.627C143.566,25.321 145.405,28.101 147.201,30.667C147.757,31.479 148.057,31.65 148.955,31.65C150.238,31.65 151.82,31.608 153.659,31.65C154.3,31.65 154.643,31.266 154.643,30.795C154.643,30.367 154.471,29.982 153.573,29.897C152.376,29.769 151.734,29.17 150.708,27.844C148.912,25.406 147.03,22.626 145.277,19.932C145.277,19.89 145.319,19.89 145.362,19.847C148.655,16.981 150.836,14.8 152.462,12.662C152.675,12.362 152.804,12.106 152.804,11.849C152.804,11.336 152.462,10.994 151.777,11.037C149.767,11.207 147.928,11.207 145.661,11.079C144.763,11.037 144.507,11.464 144.507,11.892C144.507,12.277 144.806,12.705 145.405,12.833L146.26,13.047C147.672,13.389 147.672,14.544 145.918,16.383C144.036,18.393 141.599,20.317 138.947,21.985L138.947,16.682C138.947,13.132 138.947,9.241 139.075,0.602C139.075,0.046 138.733,-0.083 138.263,0.046C136.253,0.549 134.209,0.907 132.147,1.115C131.42,1.158 131.121,1.5 131.121,1.927C131.121,2.397 131.42,2.74 132.233,2.868C134.114,3.21 134.328,3.424 134.371,4.408C134.457,8.728 134.457,12.79 134.457,16.682C134.457,20.531 134.457,24.422 134.371,28.572C134.328,29.469 134.157,29.598 132.233,29.897C131.463,30.068 131.206,30.41 131.206,30.881C131.206,31.308 131.506,31.693 132.147,31.693ZM116.281,31.693C117.65,31.693 119.104,31.565 120.771,31.565C122.439,31.565 124.364,31.693 125.732,31.693C126.331,31.693 126.631,31.308 126.631,30.88C126.631,30.41 126.374,30.025 125.519,29.897C123.338,29.64 123.124,29.427 123.081,28.528C122.995,26.176 122.995,24.081 122.995,21.344L122.995,17.75C125.219,14.8 126.246,14.2 127.358,14.2C128.683,14.2 129.795,15.868 130.351,15.868C130.651,15.868 130.822,15.783 131.036,15.355C131.463,14.5 131.891,13.645 132.319,12.747C132.575,12.191 132.447,11.891 131.934,11.549C130.907,10.865 129.838,10.394 128.769,10.394C126.887,10.394 125.176,11.977 123.038,15.484C123.038,14.072 123.081,12.533 123.124,10.822C123.124,10.266 122.782,10.138 122.311,10.266C120.087,10.865 117.992,11.206 116.195,11.336C115.468,11.421 115.212,11.72 115.212,12.19C115.212,12.661 115.468,13.003 116.281,13.131C118.163,13.473 118.377,13.687 118.419,14.628C118.505,16.767 118.505,19.033 118.505,21.343C118.505,24.08 118.505,26.175 118.419,28.527C118.377,29.426 118.248,29.639 116.366,29.896C115.597,30.067 115.34,30.409 115.34,30.88C115.34,31.307 115.64,31.692 116.281,31.692L116.281,31.693ZM105.889,12.79C108.626,12.79 109.866,15.27 109.866,16.254C109.866,16.596 109.695,16.854 109.31,16.939C107.001,17.537 104.221,18.093 101.313,18.607C101.826,14.715 103.751,12.79 105.889,12.79ZM106.188,32.035C109.909,32.035 112.475,30.196 114.015,28.357C114.699,27.545 114.271,26.817 113.587,26.817C113.416,26.817 113.245,26.903 113.074,26.989C111.278,28.101 109.866,28.699 107.942,28.699C103.708,28.699 101.185,24.979 101.185,20.745L101.185,20.659C105.376,20.061 109.482,19.248 113.715,18.264C114.271,18.136 114.656,17.708 114.528,17.067C113.844,13.987 111.021,10.609 106.146,10.609C101.27,10.609 96.78,15.142 96.78,21.686C96.78,27.844 100.757,32.036 106.188,32.036L106.188,32.035ZM80.101,29.341C78.818,29.041 78.391,28.614 78.348,27.074C78.262,23.824 78.262,21.301 78.262,16.682L78.262,16.597C85.532,16.425 89.339,18.05 89.339,23.354C89.339,26.476 87.115,29.598 82.624,29.598C81.47,29.598 80.743,29.512 80.101,29.341ZM78.348,5.52C78.348,4.664 78.561,4.322 79.203,4.066C79.716,3.895 80.486,3.809 81.683,3.809C85.233,3.809 87.414,5.734 87.414,9.497C87.414,11.593 86.73,13.347 85.618,14.672C83.437,14.287 80.956,14.159 78.262,14.287C78.262,10.908 78.262,8.471 78.348,5.52ZM83.308,31.95C90.408,31.95 94.642,27.801 94.642,22.969C94.642,19.163 92.332,16.725 88.526,15.399C90.664,14.116 92.504,11.764 92.504,8.941C92.504,4.365 88.697,1.542 82.025,1.542C79.16,1.542 78.475,1.799 75.781,1.799C73.001,1.799 71.291,1.585 70.179,1.585C69.495,1.585 69.153,1.97 69.153,2.526C69.153,2.996 69.409,3.382 70.307,3.553C72.617,3.895 73.173,4.365 73.173,5.52C73.216,9.155 73.258,11.892 73.258,16.682C73.258,21.472 73.258,24.295 73.173,27.93C73.13,29.17 72.703,29.512 70.393,29.726C69.495,29.854 69.238,30.282 69.238,30.752C69.238,31.308 69.58,31.693 70.265,31.693C71.933,31.693 73.515,31.608 75.781,31.608C77.92,31.608 79.887,31.95 83.309,31.95L83.308,31.95ZM48.54,32.206C52.175,32.206 55.554,31.18 58.761,29.084C59.659,28.528 59.916,27.93 59.916,27.331C59.916,26.176 60.001,25.107 59.958,24.166C59.916,23.439 59.574,23.012 58.975,23.012C58.505,23.012 58.162,23.311 57.991,23.952C56.879,27.673 53.543,29.683 49.31,29.683C43.065,29.683 38.361,24.508 38.361,16.682C38.361,8.77 42.809,3.595 49.395,3.595C53.672,3.595 56.238,5.178 57.649,8.514C57.949,9.198 58.205,9.54 58.761,9.54C59.36,9.54 59.616,9.112 59.659,8.428C59.702,7.444 59.702,5.905 59.702,4.964C59.702,4.322 59.488,3.809 58.547,3.296C56.281,2.056 53.116,1.158 49.737,1.158C39.73,1.158 32.887,8.043 32.887,17.153C32.887,26.005 39.302,32.206 48.54,32.206ZM16.038,32.206C23.436,32.206 28.312,27.63 28.312,19.547L28.312,16.682C28.312,11.849 28.312,9.027 28.354,5.135C28.397,4.237 28.824,3.852 31.177,3.638C31.99,3.51 32.247,3.082 32.247,2.612C32.247,2.056 31.904,1.671 31.262,1.671C29.894,1.671 28.568,1.799 26.858,1.799C25.104,1.799 23.735,1.671 22.324,1.671C21.683,1.671 21.341,2.056 21.341,2.611C21.341,3.039 21.597,3.467 22.453,3.595C24.933,3.852 25.361,4.237 25.361,5.135C25.446,9.027 25.446,11.849 25.446,16.682L25.446,19.205C25.446,25.535 22.324,28.742 17.106,28.742C11.761,28.742 8.981,25.407 8.981,19.505L8.981,16.682C8.981,11.849 8.981,9.027 9.067,5.135C9.067,4.237 9.494,3.852 11.847,3.638C12.702,3.51 12.958,3.082 12.958,2.612C12.958,2.056 12.616,1.671 11.932,1.671C10.307,1.671 8.682,1.799 6.458,1.799C4.234,1.799 2.65,1.671 0.984,1.671C0.342,1.671 0,2.056 0,2.611C0,3.082 0.257,3.51 1.112,3.638C3.464,3.852 3.892,4.237 3.892,5.135C3.977,9.027 3.977,11.849 3.977,16.682L3.977,20.061C3.977,28.058 8.597,32.206 16.037,32.206L16.038,32.206Z" style="fill:rgb(0,38,118);fill-rule:nonzero;"/></g></svg>