<?xml version="1.0" encoding="UTF-8" standalone="no"?><!DOCTYPE svg PUBLIC "-//W3C//DTD SVG 1.1//EN" "http://www.w3.org/Graphics/SVG/1.1/DTD/svg11.dtd"><svg width="1834px" height="319px" version="1.1" xmlns="http://www.w3.org/2000/svg" xmlns:xlink="http://www.w3.org/1999/xlink" xml:space="preserve" xmlns:serif="http://www.serif.com/" style="fill-rule:evenodd;clip-rule:evenodd;stroke-linejoin:round;stroke-miterlimit:2;"><g transform="matrix(4.16667,0,0,4.16667,0.00166066,6.68681e-06)"><g id="path278" transform="matrix(1.33333,0,0,-1.33333,64.1956,53.7549)"><path d="M0,0C0.09,0.362 -2.522,1.261 -2.659,0.827C-3.761,-2.651 -5.289,-5.281 -7.822,-7.808C-11.091,-11.067 -14.332,-12.884 -20.043,-12.884C-27.297,-12.884 -32.192,-9.891 -34.367,-5.359C-36.362,-1.462 -37.269,3.343 -37.269,10.233C-37.269,18.12 -36.271,23.197 -33.551,28.637C-31.557,32.715 -27.205,36.614 -19.772,36.614C-14.332,36.614 -11.341,35.345 -9.074,33.079C-6.445,30.449 -4.27,25.463 -2.456,19.298C-2.366,18.936 -0.099,18.936 -0.099,19.298C-0.191,24.013 -0.191,33.623 0.263,39.786C0.263,40.331 -2.003,40.513 -2.184,40.059C-3.817,37.159 -4.723,36.342 -5.448,36.342C-6.627,36.342 -10.706,39.878 -19.681,39.878C-28.293,39.878 -34.73,35.616 -39.807,30.631C-45.336,25.01 -48.147,17.486 -48.147,9.96C-48.147,1.984 -44.431,-4.544 -40.35,-8.624C-35.727,-13.246 -29.653,-16.51 -21.312,-16.51C-15.514,-16.51 -11.828,-15.141 -8.638,-12.728L-8.643,-12.734C-8.643,-12.734 -7.345,-11.701 -5.411,-12.16C-4.102,-12.471 -3.78,-12.977 -2.147,-15.877C-1.966,-16.331 0.301,-16.149 0.301,-15.605C-0.153,-9.441 -0.091,-4.715 0,0" style="fill:rgb(2,33,105);fill-rule:nonzero;"/></g><g id="path250" transform="matrix(1.33333,0,0,-1.33333,106.677,58.6036)"><path d="M0,0C-0.091,-2.176 -0.362,-2.993 -0.725,-3.718C-1.813,-5.984 -6.709,-9.338 -9.88,-9.338C-13.236,-9.338 -15.049,-6.981 -15.049,-3.446C-15.049,3.081 -12.873,5.347 0.09,6.526C0.09,3.989 0.09,2.537 0,0M14.505,-3.264C13.507,-7.707 12.058,-9.519 10.153,-9.519C8.703,-9.519 8.068,-8.794 8.068,-6.346C8.068,-0.182 8.34,6.799 8.34,11.422C8.34,15.954 7.615,18.674 5.348,20.941C2.9,23.389 -0.816,25.021 -6.709,25.021C-12.239,25.021 -16.136,23.025 -18.676,20.669C-19.944,19.581 -20.851,17.858 -20.851,15.954C-20.851,13.235 -18.676,11.24 -15.865,11.24C-13.144,11.24 -11.242,13.143 -11.242,15.683C-11.242,18.765 -13.961,19.127 -13.961,19.852C-13.961,20.397 -11.604,22.119 -7.706,22.119C-4.714,22.119 -2.538,21.305 -1.451,20.215C-0.181,18.946 0.181,17.134 0.181,12.691C0.181,10.879 0.181,10.062 0.09,9.155C-12.692,8.158 -17.859,5.801 -20.67,2.99C-22.573,1.087 -23.481,-1.18 -23.481,-3.809C-23.481,-9.338 -17.224,-13.057 -12.058,-12.964C-7.343,-12.964 -3.535,-10.426 -0.362,-6.891C0.816,-10.609 3.536,-12.964 8.159,-12.964C12.963,-12.964 16.046,-8.976 16.772,-3.718C16.772,-3.355 14.776,-2.993 14.505,-3.264" style="fill:rgb(2,33,105);fill-rule:nonzero;"/></g><g id="path254" transform="matrix(1.33333,0,0,-1.33333,170.796,25.3645)"><path d="M0,0C-5.62,0 -8.974,-4.714 -12.147,-11.513L-12.509,-11.423C-12.509,-7.432 -12.42,-4.078 -12.328,-2.175C-12.239,-1.177 -12.601,-0.816 -13.508,-0.816C-15.411,-0.816 -21.938,-1.088 -27.106,-1.088C-27.649,-1.088 -27.74,-4.078 -27.196,-4.078C-22.664,-4.078 -21.576,-4.078 -21.213,-4.442C-20.76,-4.805 -20.306,-6.89 -20.306,-12.239C-20.216,-16.771 -20.216,-26.291 -20.306,-29.463C-20.306,-32.274 -20.578,-33.542 -20.851,-33.813C-21.122,-34.086 -21.757,-34.086 -27.56,-34.267C-27.921,-34.267 -27.831,-37.169 -27.56,-37.169L-4.351,-37.169C-3.807,-37.169 -3.898,-34.177 -4.532,-34.177C-9.337,-33.995 -11.15,-33.905 -11.423,-33.633C-11.695,-33.361 -12.147,-31.003 -12.147,-26.834L-12.147,-20.578C-12.147,-17.768 -11.512,-15.23 -9.791,-11.786C-7.524,-7.252 -4.713,-3.717 -1.451,-3.717C-0.271,-3.717 0.273,-4.078 0.273,-4.442C0.273,-4.985 -1.903,-6.345 -1.903,-9.157C-1.903,-11.876 0.181,-13.417 2.81,-13.417C5.711,-13.417 8.341,-10.879 8.341,-7.252C8.341,-3.173 5.168,0 0,0" style="fill:rgb(2,33,105);fill-rule:nonzero;"/></g><g id="path258" transform="matrix(1.33333,0,0,-1.33333,213.623,71.2954)"><path d="M0,0C-5.44,0.181 -5.893,0.272 -6.346,0.815C-6.89,1.267 -7.072,2.356 -7.072,4.169C-6.981,11.15 -6.799,17.768 -6.799,26.924C-6.799,36.715 -6.799,38.717 -6.709,48.145C-6.709,49.053 -7.072,49.687 -7.888,49.687C-13.145,49.597 -16.409,49.597 -21.576,49.687C-22.302,49.687 -22.211,47.148 -21.758,46.968C-16.59,46.786 -15.774,46.696 -15.411,46.424C-15.141,46.152 -15.141,45.789 -15.141,43.794C-14.959,34.456 -14.959,33.271 -14.959,20.85C-14.959,15.047 -15.141,6.526 -15.23,2.356C-15.23,1.359 -15.32,0.996 -15.594,0.725C-15.956,0.362 -16.59,0.362 -21.576,0.272C-21.848,0.272 -21.939,-2.539 -21.667,-2.539C-13.326,-2.539 -8.069,-2.539 0,-2.811C0.362,-2.811 0.181,0 0,0" style="fill:rgb(2,33,105);fill-rule:nonzero;"/></g><g id="path262" transform="matrix(1.33333,0,0,-1.33333,233.336,35.0338)"><path d="M0,0C1.179,2.357 3.807,4.532 7.253,4.532C12.861,4.532 16.399,0.435 17.578,-5.903L-2.232,-11.62C-2.395,-7.291 -1.815,-3.632 0,0M22.482,-18.676C19.672,-25.022 15.684,-27.469 10.335,-27.469C5.077,-27.469 1.632,-25.566 -0.181,-21.848C-1.172,-19.938 -1.831,-17.806 -2.072,-14.851C-2.072,-14.851 19.334,-8.515 24.722,-6.894C25.081,-6.786 25.279,-6.258 25.06,-5.362C24.234,-1.967 22.677,0.771 20.941,2.447C18.041,5.439 13.871,7.706 8.25,7.706C2.448,7.706 -1.904,5.257 -5.711,1.45C-9.066,-1.905 -11.329,-6.798 -11.329,-11.786C-11.329,-17.044 -9.608,-21.396 -6.164,-24.84C-2.267,-28.738 3.083,-31.095 9.428,-31.095C15.321,-31.095 22.12,-27.831 25.203,-19.763C25.293,-19.22 23.026,-18.222 22.482,-18.676" style="fill:rgb(2,33,105);fill-rule:nonzero;"/></g><g id="path266" transform="matrix(1.33333,0,0,-1.33333,307.048,59.4513)"><path d="M0,0C-1.451,-5.801 -3.808,-8.34 -6.527,-8.34C-8.341,-8.34 -9.7,-7.433 -10.335,-6.164C-10.969,-4.986 -11.151,-3.354 -11.151,3.717C-11.151,10.425 -10.969,18.675 -10.788,21.124C-9.428,21.214 -6.89,21.214 0.091,21.124C0.815,21.124 0.907,24.749 0.272,24.659C-0.634,24.659 -7.433,24.659 -10.969,24.568C-10.878,27.198 -10.697,35.174 -10.607,37.532C-10.697,38.076 -13.236,38.167 -13.327,37.624C-14.324,32.456 -16.41,27.832 -18.042,26.2C-19.219,25.112 -20.579,24.841 -25.475,24.477C-25.838,24.477 -25.927,21.395 -25.384,21.395C-24.387,21.395 -19.401,21.395 -18.857,21.305C-19.037,13.871 -19.129,4.806 -19.129,-1.721C-19.129,-5.349 -18.223,-7.433 -16.681,-8.974C-14.415,-11.241 -11.423,-12.237 -7.978,-12.237C-2.992,-12.237 1.269,-8.34 2.81,-0.726C2.992,-0.181 0.182,0.453 0,0" style="fill:rgb(2,33,105);fill-rule:nonzero;"/></g><g id="path270" transform="matrix(1.33333,0,0,-1.33333,356.806,65.6149)"><path d="M0,0C-1.812,-3.626 -4.17,-4.986 -8.613,-4.986C-15.321,-4.986 -19.582,-0.726 -19.582,10.787C-19.582,15.139 -19.038,18.494 -17.677,21.303C-15.955,24.659 -13.053,27.65 -7.887,27.65C-2.991,27.65 -0.725,25.837 0.816,22.756C1.723,20.851 2.176,17.678 2.176,13.689C2.176,6.619 1.359,2.629 0,0M-7.796,30.641C-13.507,30.641 -19.128,28.375 -22.845,24.567C-27.015,20.579 -29.01,16.499 -29.01,10.606C-29.01,5.44 -27.106,1.632 -23.932,-1.542C-20.216,-5.257 -14.596,-8.159 -8.702,-8.159C-3.263,-8.159 1.723,-6.074 5.531,-2.267C8.885,1.088 11.695,5.62 11.695,10.879C11.695,15.865 9.791,21.212 5.802,25.203C2.448,28.557 -2.084,30.641 -7.796,30.641" style="fill:rgb(2,33,105);fill-rule:nonzero;"/></g><g id="path274" transform="matrix(1.33333,0,0,-1.33333,439.657,71.5386)"><path d="M0,0C-4.08,0.091 -5.167,0.182 -5.621,0.636C-5.983,0.997 -6.437,2.266 -6.437,8.975C-6.437,14.143 -6.346,17.77 -6.346,21.757C-6.346,30.461 -10.426,35.084 -17.859,35.084C-24.749,35.084 -28.828,28.92 -31.548,23.934L-31.911,24.025C-31.82,26.199 -31.548,31.187 -31.459,32.636C-31.459,33.27 -31.64,33.633 -32.183,33.725C-35.175,33.725 -43.243,33.633 -46.506,33.633C-46.96,33.633 -46.96,30.733 -46.597,30.733C-42.246,30.643 -41.066,30.643 -40.614,30.189C-40.251,29.735 -39.888,27.559 -39.888,22.301L-39.888,8.159C-39.888,1.723 -40.161,0.907 -40.524,0.544C-40.885,0.182 -42.064,0.182 -46.325,0.182C-46.779,0.182 -46.779,-2.628 -46.325,-2.719C-42.609,-2.539 -30.461,-2.539 -25.838,-2.628C-25.384,-2.719 -25.384,0.091 -25.746,0.091C-30.008,0.273 -30.823,0.363 -31.277,0.817C-31.64,1.178 -31.73,2.357 -31.73,4.897C-31.82,8.703 -31.911,12.692 -31.911,14.777C-31.911,17.86 -31.64,19.31 -30.551,21.304C-28.828,24.931 -25.112,30.007 -20.035,30.007C-16.319,30.007 -14.687,27.559 -14.687,23.028L-14.687,4.533C-14.687,2.357 -14.777,1.178 -15.14,0.817C-15.503,0.454 -17.225,0.273 -19.311,0.182C-19.581,0.182 -19.673,-2.447 -19.129,-2.539C-15.23,-2.447 -5.893,-2.447 -0.091,-2.539C0.453,-2.628 0.453,0 0,0" style="fill:rgb(2,33,105);fill-rule:nonzero;"/></g></g></svg>