<?xml version="1.0" encoding="UTF-8" standalone="no"?><!DOCTYPE svg PUBLIC "-//W3C//DTD SVG 1.1//EN" "http://www.w3.org/Graphics/SVG/1.1/DTD/svg11.dtd"><svg width="3672px" height="595px" version="1.1" xmlns="http://www.w3.org/2000/svg" xmlns:xlink="http://www.w3.org/1999/xlink" xml:space="preserve" xmlns:serif="http://www.serif.com/" style="fill-rule:evenodd;clip-rule:evenodd;"><g transform="matrix(4.16667,0,0,4.16667,1.93823e-06,1.38449e-06)"><g transform="matrix(1,0,0,1,-0.783204,-0.766851)"><path d="M82.595,123.15C82.595,123.148 20.785,123.148 20.785,123.148C21.099,117.571 19.356,111.089 17.374,106.267C11.093,90.986 -1.84,77.151 1.254,59.151C2.973,49.151 11.049,42.187 20.931,41.395C38.596,39.974 53.837,49.422 70.97,52.448C72.34,52.689 74.185,49.77 75.849,48.104C67.903,42.115 68.984,30.375 78.182,25.305C78.816,24.577 78.584,17.816 78.222,17.512C77.473,16.887 71.605,18.011 70.772,17.287C69.941,16.562 70.104,9.521 70.638,8.846C71.172,8.173 77.786,8.895 78.158,8.443C78.53,7.988 77.971,1.654 78.596,1.155C79.221,0.656 82.595,0.781 82.595,0.781L81.205,0.781C81.205,0.781 84.573,0.655 85.199,1.155C85.822,1.655 85.265,7.988 85.64,8.443C86.013,8.895 92.626,8.173 93.159,8.846C93.692,9.522 93.859,16.563 93.026,17.287C92.194,18.01 86.326,16.887 85.577,17.512C85.212,17.816 84.982,24.577 85.615,25.305C94.816,30.374 95.896,42.115 87.948,48.104C89.612,49.77 91.454,52.688 92.827,52.448C109.962,49.422 125.201,39.973 142.863,41.395C152.748,42.187 160.825,49.151 162.543,59.151C165.637,77.151 152.705,90.985 146.427,106.267C144.443,111.089 142.699,117.571 143.013,123.148C143.013,123.148 81.205,123.148 81.205,123.15M115.461,85.874C115.461,85.874 122.535,84.813 123.051,85.825C123.569,86.837 120.662,92.808 121.158,93.825C121.655,94.844 131.024,92.933 131.188,93.987C131.354,95.042 130.649,100.3 129.753,101.077C128.854,101.856 120.109,101.91 120.109,101.91C118.287,103.296 117.813,106.114 117.802,109C117.789,112.659 120.636,114.55 125.179,113.281C133.648,110.914 144.143,92.542 150.372,79.825C154.952,70.474 157.714,55.178 145.696,50.596C138.367,47.803 130.679,49.386 122.798,51.724C114.539,54.176 103.644,57.494 97.224,61.48C95.649,62.457 99.099,61.678 93.402,74.304C90.755,80.178 88.096,92.687 89.206,99.004C90.792,108.04 95.812,113.78 99.99,113.806C102.73,113.818 104.929,112.783 106.926,111.035C109.676,108.627 111.922,104.668 111.201,102.327C110.591,101.541 103.179,102.67 102.652,101.933C102.127,101.196 103.553,95.426 104.395,94.678C105.23,93.933 111.921,94.928 112.817,94.195C113.713,93.468 114.542,86.312 115.461,85.874M48.337,85.874C49.254,86.312 50.083,93.468 50.981,94.196C51.877,94.928 58.565,93.934 59.404,94.679C60.243,95.427 61.671,101.198 61.145,101.934C60.617,102.67 53.206,101.542 52.595,102.328C51.876,104.669 54.119,108.629 56.87,111.036C58.869,112.784 61.065,113.819 63.807,113.807C67.984,113.781 73.004,108.04 74.592,99.005C75.7,92.688 73.043,80.179 70.393,74.305C64.699,61.679 68.148,62.457 66.574,61.481C60.152,57.494 49.259,54.177 41,51.725C33.118,49.387 25.43,47.804 18.103,50.597C6.083,55.179 8.847,70.474 13.423,79.826C19.654,92.542 30.151,110.914 38.62,113.282C43.162,114.551 46.009,112.66 45.995,109.001C45.986,106.115 45.51,103.297 43.69,101.911C43.69,101.911 34.943,101.856 34.045,101.078C33.148,100.301 32.445,95.043 32.608,93.988C32.773,92.934 42.145,94.845 42.639,93.826C43.137,92.808 40.23,86.838 40.748,85.826C41.261,84.814 48.337,85.874 48.337,85.874" style="fill:rgb(9,53,82);fill-rule:nonzero;"/></g><g transform="matrix(1.97802,0,0,1,-19.7675,-0.766851)"><path d="M82.595,131.51L19.411,131.51L19.411,142.12L82.595,142.12" style="fill:rgb(9,53,82);fill-rule:nonzero;"/></g><g transform="matrix(1,0,0,1,-0.783204,-0.766851)"><path d="M227.31,128.08C215.309,117.545 212.123,103.831 212.123,91.95C212.123,83.62 214.695,69.171 226.452,58.393C235.269,50.309 246.905,45.41 265.153,45.41C272.747,45.41 277.278,45.899 282.912,46.637C287.565,47.248 291.485,48.349 295.158,48.718C296.507,48.84 296.995,49.452 296.995,50.187C296.995,51.166 296.628,52.636 296.384,56.924C296.139,60.966 296.259,67.7 296.017,70.15C295.893,71.986 295.65,72.967 294.546,72.967C293.567,72.967 293.321,71.986 293.321,70.272C293.199,66.474 291.607,62.189 288.546,59.005C284.504,54.718 274.951,51.412 263.684,51.412C253.029,51.412 246.047,54.105 240.657,59.005C231.718,67.21 229.389,78.846 229.389,90.726C229.389,119.87 251.557,134.325 267.969,134.325C278.869,134.325 285.483,133.099 290.383,127.463C292.464,125.142 294.056,121.59 294.546,119.384C294.914,117.424 295.157,116.933 296.139,116.933C296.994,116.933 297.242,117.793 297.242,118.77C297.242,120.239 295.772,130.893 294.546,135.061C293.934,137.141 293.443,137.753 291.361,138.611C286.462,140.571 277.156,141.428 269.317,141.428C252.539,141.429 238.454,137.754 227.31,128.08Z" style="fill:rgb(9,53,82);fill-rule:nonzero;stroke:rgb(9,53,82);stroke-width:0.95px;"/></g><g transform="matrix(1,0,0,1,-0.783204,-0.766851)"><path d="M312.67,100.92C312.67,83.397 324.25,60.752 354.993,60.752C380.509,60.752 396.392,75.61 396.392,99.075C396.392,122.541 379.996,141.089 353.968,141.089C324.558,141.09 312.67,119.059 312.67,100.92ZM382.047,102.87C382.047,79.914 368.828,65.671 352.022,65.671C340.237,65.671 326.813,72.231 326.813,97.746C326.813,119.059 338.6,135.968 358.273,135.968C365.445,135.968 382.047,132.482 382.047,102.87Z" style="fill:rgb(9,53,82);fill-rule:nonzero;stroke:rgb(9,53,82);stroke-width:0.95px;"/></g><g transform="matrix(1,0,0,1,-0.783204,-0.766851)"><path d="M433.1,109.94C433.1,123.059 433.1,130.127 435.254,131.97C436.996,133.509 439.659,134.227 447.653,134.227C453.084,134.227 457.08,134.126 459.642,131.357C460.873,130.025 462.101,127.159 462.307,125.208C462.411,124.288 462.613,123.67 463.434,123.67C464.152,123.67 464.253,124.18 464.253,125.415C464.253,126.54 463.536,134.227 462.715,137.2C462.101,139.453 461.59,139.966 456.261,139.966C441.505,139.966 434.742,139.351 426.442,139.351C424.084,139.351 417.627,139.66 413.528,139.66C412.196,139.66 411.479,139.351 411.479,138.637C411.479,138.122 411.889,137.818 413.12,137.818C414.655,137.818 415.885,137.61 416.806,137.404C418.857,136.995 419.369,134.742 419.78,131.771C420.291,127.468 420.291,119.371 420.291,109.942L420.291,91.907C420.291,76.329 420.291,73.459 420.086,70.183C419.883,66.695 419.063,65.058 415.681,64.34C414.86,64.135 413.632,64.032 412.299,64.032C411.173,64.032 410.557,63.827 410.557,63.111C410.557,62.394 411.275,62.189 412.813,62.189C417.627,62.189 424.084,62.496 426.85,62.496C429.31,62.496 436.791,62.189 440.787,62.189C442.221,62.189 442.939,62.394 442.939,63.111C442.939,63.827 442.325,64.032 441.095,64.032C439.968,64.032 438.327,64.135 437.1,64.34C434.332,64.852 433.512,66.594 433.308,70.183C433.101,73.458 433.101,76.329 433.101,91.907L433.101,109.94L433.1,109.94Z" style="fill:rgb(9,53,82);fill-rule:nonzero;stroke:rgb(9,53,82);stroke-width:0.95px;"/></g><g transform="matrix(1,0,0,1,-0.783204,-0.766851)"><path d="M484,91.908C484,76.33 484,73.46 483.793,70.184C483.589,66.696 482.77,65.059 479.387,64.341C478.568,64.136 476.825,64.033 475.39,64.033C474.264,64.033 473.649,63.828 473.649,63.112C473.649,62.395 474.365,62.19 475.903,62.19C481.334,62.19 487.79,62.497 490.863,62.497C493.322,62.497 499.779,62.19 503.467,62.19C505.004,62.19 505.721,62.395 505.721,63.112C505.721,63.828 505.107,64.033 504.083,64.033C502.955,64.033 502.34,64.136 501.111,64.341C498.343,64.853 497.525,66.595 497.32,70.184C497.113,73.459 497.113,76.33 497.113,91.908L497.113,106.251C497.113,121.112 500.084,127.362 505.106,131.459C509.717,135.251 514.432,135.661 517.916,135.661C522.425,135.661 527.958,134.227 532.056,130.127C537.693,124.496 538.002,115.268 538.002,104.717L538.002,91.907C538.002,76.329 538.002,73.459 537.797,70.183C537.592,66.695 536.771,65.058 533.39,64.34C532.569,64.135 530.828,64.032 529.7,64.032C528.574,64.032 527.958,63.827 527.958,63.111C527.958,62.394 528.677,62.189 530.109,62.189C535.336,62.189 541.793,62.496 541.895,62.496C543.124,62.496 549.581,62.189 553.577,62.189C555.012,62.189 555.729,62.394 555.729,63.111C555.729,63.827 555.114,64.032 553.886,64.032C552.756,64.032 552.141,64.135 550.913,64.34C548.145,64.852 547.327,66.594 547.12,70.183C546.915,73.458 546.915,76.329 546.915,91.907L546.915,102.872C546.915,114.247 545.788,126.334 537.182,133.717C529.906,139.966 522.527,141.092 515.867,141.092C510.436,141.092 500.599,140.785 493.118,134.022C487.893,129.307 483.999,121.725 483.999,106.867L483.999,91.908L484,91.908Z" style="fill:rgb(9,53,82);fill-rule:nonzero;stroke:rgb(9,53,82);stroke-width:0.95px;"/></g><g transform="matrix(1,0,0,1,-0.783204,-0.766851)"><path d="M580.33,62.6C580.636,60.858 581.252,59.934 582.073,59.934C582.891,59.934 583.508,60.448 584.84,63.113L612.813,120.909L640.688,62.396C641.404,60.756 642.02,59.935 642.943,59.935C643.864,59.935 644.478,60.962 644.785,63.114L654.113,126.442C655.035,132.895 656.058,135.867 659.134,136.794C662.104,137.714 664.155,137.819 665.486,137.819C666.41,137.819 667.127,137.92 667.127,138.535C667.127,139.353 665.898,139.662 664.462,139.662C661.901,139.662 647.759,139.353 643.66,139.047C641.304,138.842 640.689,138.535 640.689,137.92C640.689,137.405 641.099,137.097 641.816,136.794C642.43,136.586 642.737,135.254 642.328,132.384L636.182,87.294L635.769,87.294L613.431,133.821C611.074,138.638 610.562,139.558 609.639,139.558C608.718,139.558 607.692,137.509 606.053,134.436C603.594,129.721 595.499,114.041 594.268,111.174C593.347,109.02 587.198,96.112 583.611,88.425L583.2,88.425L577.873,129.209C577.668,131.052 577.566,132.384 577.566,134.024C577.566,135.972 578.898,136.894 580.638,137.304C582.484,137.713 583.918,137.819 584.943,137.819C585.764,137.819 586.479,138.021 586.479,138.535C586.479,139.456 585.557,139.662 584.022,139.662C579.717,139.662 575.106,139.353 573.262,139.353C571.316,139.353 566.396,139.662 563.116,139.662C562.091,139.662 561.273,139.456 561.273,138.535C561.273,138.021 561.886,137.819 562.913,137.819C563.733,137.819 564.45,137.819 565.987,137.509C568.855,136.894 569.675,132.894 570.188,129.414L580.33,62.6Z" style="fill:rgb(9,53,82);fill-rule:nonzero;stroke:rgb(9,53,82);stroke-width:0.95px;"/></g><g transform="matrix(1,0,0,1,-0.783204,-0.766851)"><path d="M689.67,91.908C689.67,76.33 689.67,73.46 689.465,70.184C689.26,66.696 688.44,65.059 685.059,64.341C684.242,64.136 682.497,64.033 681.062,64.033C679.937,64.033 679.32,63.828 679.32,63.112C679.32,62.395 680.036,62.19 681.571,62.19C687.005,62.19 693.461,62.497 695.509,62.497C700.53,62.497 704.526,62.19 708.013,62.19C726.558,62.19 729.838,72.129 729.838,77.56C729.838,85.964 725.021,90.984 719.386,95.494C727.79,98.362 738.034,105.636 738.034,117.624C738.034,128.591 729.529,139.966 710.675,139.966C708.217,139.966 698.892,139.351 695.818,139.351C693.461,139.351 687.005,139.66 682.905,139.66C681.571,139.66 680.857,139.351 680.857,138.637C680.857,138.122 681.266,137.818 682.495,137.818C684.034,137.818 685.262,137.61 686.184,137.404C688.233,136.995 688.746,134.742 689.156,131.771C689.668,127.468 689.668,119.371 689.668,109.942L689.668,91.908L689.67,91.908ZM701.968,93.65C701.968,94.467 702.274,94.673 702.684,94.776C703.609,94.978 705.144,95.083 707.501,95.083C710.882,95.083 713.137,94.673 714.879,93.137C717.542,90.984 719.08,87.292 719.08,82.275C719.08,75.409 715.083,66.392 706.272,66.392C704.837,66.392 703.914,66.392 702.889,66.597C702.171,66.802 701.967,67.211 701.967,68.34L701.967,93.65L701.968,93.65ZM715.494,101.848C713.344,100.307 710.985,99.591 706.989,99.388C705.144,99.283 704.12,99.283 702.584,99.283C702.172,99.283 701.968,99.491 701.968,100.004L701.968,124.29C701.968,131.051 702.274,132.793 705.554,134.129C708.321,135.253 710.676,135.354 713.033,135.354C717.646,135.354 725.434,132.894 725.434,122.24C725.435,115.887 723.283,107.279 715.494,101.848Z" style="fill:rgb(9,53,82);fill-rule:nonzero;stroke:rgb(9,53,82);stroke-width:0.95px;"/></g><g transform="matrix(1,0,0,1,-0.783204,-0.766851)"><path d="M760.78,91.908C760.78,76.33 760.78,73.46 760.574,70.184C760.37,66.696 759.347,64.955 757.092,64.443C755.963,64.136 754.634,64.033 753.404,64.033C752.379,64.033 751.763,63.828 751.763,63.008C751.763,62.395 752.584,62.19 754.221,62.19C758.116,62.19 764.573,62.497 767.543,62.497C770.105,62.497 776.153,62.19 780.048,62.19C781.376,62.19 782.197,62.395 782.197,63.008C782.197,63.828 781.585,64.033 780.558,64.033C779.531,64.033 778.716,64.136 777.484,64.341C774.716,64.853 773.899,66.595 773.692,70.184C773.487,73.459 773.487,76.33 773.487,91.908L773.487,109.941C773.487,119.88 773.487,127.978 773.898,132.381C774.203,135.151 774.924,136.993 777.995,137.402C779.43,137.608 781.687,137.816 783.222,137.816C784.347,137.816 784.861,138.121 784.861,138.635C784.861,139.35 784.043,139.658 782.915,139.658C776.152,139.658 769.694,139.349 766.928,139.349C764.572,139.349 758.115,139.658 754.016,139.658C752.684,139.658 751.968,139.349 751.968,138.635C751.968,138.12 752.378,137.816 753.606,137.816C755.145,137.816 756.374,137.608 757.298,137.402C759.346,136.993 759.962,135.251 760.267,132.28C760.779,127.977 760.779,119.88 760.779,109.94L760.779,91.908L760.78,91.908Z" style="fill:rgb(9,53,82);fill-rule:nonzero;stroke:rgb(9,53,82);stroke-width:0.95px;"/></g><g transform="matrix(1,0,0,1,-0.783204,-0.766851)"><path d="M823.14,112.91C822.626,112.91 822.419,113.114 822.217,113.729L816.683,128.383C815.657,130.945 815.141,133.404 815.141,134.634C815.141,136.478 816.067,137.813 819.244,137.813L820.783,137.813C822.01,137.813 822.317,138.015 822.317,138.632C822.317,139.449 821.705,139.655 820.579,139.655C817.295,139.655 812.893,139.346 809.712,139.346C808.589,139.346 802.952,139.655 797.623,139.655C796.289,139.655 795.674,139.449 795.674,138.632C795.674,138.015 796.084,137.813 796.907,137.813C797.83,137.813 799.262,137.708 800.081,137.605C804.796,136.99 806.742,133.506 808.795,128.383L834.511,64.029C835.744,61.058 836.356,59.929 837.383,59.929C838.305,59.929 838.919,60.853 839.945,63.21C842.402,68.846 858.799,110.655 865.358,126.23C869.253,135.456 872.226,136.888 874.378,137.399C875.914,137.708 877.449,137.813 878.677,137.813C879.497,137.813 880.013,137.914 880.013,138.632C880.013,139.449 879.086,139.655 875.298,139.655C871.609,139.655 864.128,139.655 855.928,139.449C854.084,139.346 852.855,139.346 852.855,138.632C852.855,138.015 853.27,137.813 854.292,137.707C855.011,137.503 855.729,136.579 855.215,135.348L847.015,113.625C846.811,113.113 846.501,112.909 845.994,112.909L823.14,112.909L823.14,112.91ZM844.042,107.788C844.555,107.788 844.659,107.477 844.555,107.172L835.334,81.86C835.231,81.452 835.126,80.938 834.822,80.938C834.51,80.938 834.308,81.452 834.21,81.86L824.78,107.069C824.674,107.477 824.78,107.788 825.19,107.788L844.042,107.788Z" style="fill:rgb(9,53,82);fill-rule:nonzero;stroke:rgb(9,53,82);stroke-width:0.95px;"/></g></g></svg>