<?xml version="1.0" encoding="UTF-8" standalone="no"?><!DOCTYPE svg PUBLIC "-//W3C//DTD SVG 1.1//EN" "http://www.w3.org/Graphics/SVG/1.1/DTD/svg11.dtd"><svg width="2417px" height="608px" version="1.1" xmlns="http://www.w3.org/2000/svg" xmlns:xlink="http://www.w3.org/1999/xlink" xml:space="preserve" xmlns:serif="http://www.serif.com/" style="fill-rule:evenodd;clip-rule:evenodd;stroke-linejoin:round;stroke-miterlimit:2;"><g transform="matrix(4.16667,0,0,4.16667,0,0)"><g transform="matrix(1,0,0,1,-10,-9.635)"><path d="M10.828,10.47L131.918,10.47L131.918,56.216C131.918,77.122 124.052,121.626 71.889,154.746C71.889,154.746 15.172,131.149 10.825,56.216L10.828,10.47Z" style="fill:rgb(165,28,48);fill-rule:nonzero;"/></g><g transform="matrix(1,0,0,1,-10,-9.635)"><path d="M71.685,155.36L71.271,155.153C70.857,154.946 14.347,130.521 10,56.209L10,9.635L132.54,9.635L132.54,56.002C132.54,74.218 126.744,120.584 72.097,154.946L71.685,155.36ZM11.449,11.08L11.449,55.998C15.589,126.376 66.924,151.63 71.685,153.7C125.297,119.546 131.093,74.007 131.093,55.998L131.093,11.08L11.449,11.08Z" style="fill-rule:nonzero;"/></g><g transform="matrix(1,0,0,1,-10,-9.635)"><path d="M50.645,82.64C50.341,82.628 50.077,82.779 49.865,82.963C49.451,83.322 49.203,83.818 49.19,83.845C48.728,84.491 47.756,84.654 46.873,84.629C45.99,84.604 45.232,84.403 45.232,84.403L45.183,84.39L45.135,84.407C43.866,84.83 43.301,85.369 43.069,85.834C42.952,86.066 42.923,86.276 42.923,86.428C42.923,86.548 42.938,86.6 42.947,86.634L42.947,91.377C42.901,91.638 42.78,91.798 42.612,91.91C42.441,92.024 42.214,92.085 41.985,92.109C41.528,92.157 41.084,92.06 41.084,92.06L41.079,92.06C39.488,91.742 38.396,92.115 37.716,92.578C37.046,93.033 36.779,93.562 36.77,93.58C36.089,94.502 36.539,95.796 36.539,95.796L36.539,95.804C36.583,95.921 36.635,96.033 36.693,96.135C36.694,96.137 36.701,96.159 36.701,96.159C37.322,97.815 39.6,97.813 39.6,97.813C40.428,98.434 41.876,98.019 41.876,98.019C42.301,98.019 42.549,98.196 42.701,98.419C42.776,98.724 42.741,99.03 42.741,99.03L42.737,99.066L42.745,99.098C42.759,99.154 42.788,99.441 42.802,99.834C42.816,100.228 42.821,100.746 42.826,101.346C42.836,102.548 42.831,104.075 42.818,105.575C42.792,108.575 42.741,111.474 42.741,111.474C42.741,112.486 42.543,113.079 42.543,113.079L42.535,113.103L42.535,113.131C42.535,113.181 42.518,113.207 42.462,113.252C42.406,113.297 42.307,113.346 42.175,113.382C41.911,113.452 41.533,113.479 41.152,113.479C40.391,113.479 39.62,113.378 39.62,113.378L39.6,113.374L39.579,113.378C37.424,113.593 36.756,115.528 36.749,115.549L36.749,115.553C36.579,115.954 36.593,116.362 36.709,116.729C36.767,116.914 36.851,117.09 36.947,117.255C37.332,118.194 38.358,118.929 38.358,118.929C38.358,119.343 42.292,119.547 42.292,119.547C42.531,119.607 42.693,119.774 42.814,119.976C42.826,120.012 42.84,120.048 42.85,120.085C42.947,120.447 42.947,120.788 42.947,120.788C42.918,120.899 42.906,121.022 42.899,121.201C42.89,121.402 42.886,121.65 42.89,121.928C42.9,122.486 42.932,123.167 42.971,123.828C43.049,125.151 43.153,126.392 43.153,126.392L43.157,126.4L43.157,126.408C43.179,126.54 43.244,126.654 43.323,126.755C43.323,126.756 43.327,126.792 43.327,126.792C43.534,128.034 47.467,127.621 47.467,127.621C47.467,127.621 61.252,127.302 64.977,127.362C65.509,127.37 65.835,127.389 65.887,127.414C66.301,127.414 67.338,127.208 67.338,127.208L68.785,128.243C69.368,128.696 69.971,128.825 70.524,128.789C70.634,128.783 70.745,128.768 70.851,128.749C71.913,128.557 72.719,127.827 72.719,127.827L74.789,127.414C75.203,127.414 91.971,127.208 91.971,127.208C93.42,127.622 94.041,126.998 94.041,126.998L96.73,126.792C96.833,126.792 96.93,126.784 97.021,126.768C97.678,126.647 98.017,126.121 98.193,125.607C98.246,125.505 98.301,125.404 98.339,125.3C98.558,124.697 98.553,124.103 98.553,124.103L98.553,120.602C98.588,120.325 98.652,120.109 98.723,119.915C99.1,119.25 99.628,119.135 99.628,119.135L102.111,118.718L103.356,118.1C103.833,117.98 104.085,117.646 104.229,117.243C104.266,117.185 104.305,117.131 104.334,117.069C104.506,116.704 104.557,116.279 104.557,115.876C104.557,115.07 104.342,114.328 104.342,114.328L104.334,114.295C103.881,113.388 102.836,113.019 101.933,112.86C101.03,112.7 100.235,112.754 100.235,112.754L100.231,112.754C99.234,112.854 98.858,112.569 98.686,112.29C98.515,112.01 98.553,111.707 98.553,111.707L98.553,111.695L98.763,98.867C98.845,98.386 98.985,98.003 99.123,97.69C99.285,97.381 99.422,97.193 99.422,97.193C100.043,97.4 102.111,96.777 102.111,96.777C103.3,96.658 103.796,95.928 104.011,95.325C104.03,95.29 104.059,95.255 104.076,95.22C104.348,94.647 104.346,94.12 104.346,94.104C104.457,93.293 103.893,92.622 103.332,92.168C102.769,91.712 102.179,91.448 102.179,91.448L102.147,91.432L99.24,91.432C99.16,91.415 99.094,91.372 99.026,91.282C98.956,91.19 98.89,91.053 98.84,90.886C98.741,90.552 98.695,90.102 98.682,89.657C98.657,88.767 98.759,87.898 98.759,87.898L98.763,87.886L98.763,86.221C98.763,85.416 98.188,84.851 97.647,84.499C97.107,84.147 96.572,83.99 96.572,83.99L96.548,83.982L92.857,83.982C92.773,83.843 92.68,83.708 92.541,83.618C92.358,83.499 92.146,83.41 91.943,83.343C91.538,83.208 91.163,83.157 91.163,83.157C90.488,82.945 89.485,82.947 89.485,82.947L89.432,82.947L89.388,82.975C88.099,83.867 85.838,84.241 83.91,84.37C81.981,84.498 80.388,84.398 80.388,84.398L73.895,83.978L73.839,84.03C73.858,84.012 73.817,84.045 73.75,84.067C73.683,84.089 73.587,84.116 73.479,84.14C73.263,84.187 72.988,84.231 72.719,84.269C72.18,84.346 71.664,84.399 71.664,84.399L71.559,84.407L71.522,84.512C71.344,85.047 70.803,85.231 70.803,85.231L70.233,85.425C69.854,85.104 69.264,84.86 68.704,84.689C68.114,84.51 67.623,84.411 67.601,84.406C67.597,84.404 67.592,84.4 67.588,84.398C67.569,84.39 67.549,84.386 67.532,84.382C67.498,84.374 67.465,84.369 67.423,84.365C67.338,84.357 67.229,84.355 67.095,84.353C66.827,84.351 66.461,84.359 66.028,84.374C65.162,84.403 64.029,84.458 62.903,84.523C60.652,84.653 58.431,84.81 58.427,84.81C55.861,84.913 54.128,84.501 53.038,84.07C51.949,83.64 51.518,83.205 51.518,83.205C51.245,82.832 50.943,82.651 50.645,82.639L50.645,82.64ZM50.633,82.98C50.814,82.988 51.024,83.088 51.263,83.424L51.276,83.445C51.276,83.445 51.777,83.938 52.913,84.387C54.049,84.836 55.831,85.255 58.44,85.151L58.452,85.151C58.452,85.151 60.674,84.993 62.923,84.864C64.048,84.799 65.179,84.743 66.04,84.714C66.471,84.7 66.837,84.692 67.096,84.693C67.225,84.694 67.326,84.699 67.395,84.706C67.423,84.708 67.442,84.712 67.455,84.714L67.464,84.722L67.512,84.734C67.512,84.734 68.026,84.835 68.612,85.013C69.198,85.192 69.863,85.464 70.12,85.721L70.192,85.794L70.912,85.555C70.912,85.555 71.354,85.296 71.652,84.848C71.421,85.408 70.856,85.6 70.856,85.6L70.237,86.016C69.616,85.395 67.544,84.981 67.544,84.981C67.337,84.774 58.436,85.393 58.436,85.393C53.261,85.6 51.397,83.74 51.397,83.74C50.362,82.291 49.327,84.358 49.327,84.358C48.292,85.807 45.187,84.981 45.187,84.981C44.042,85.363 43.529,85.831 43.291,86.226C43.307,86.154 43.332,86.075 43.376,85.988C43.556,85.628 44.039,85.145 45.224,84.742C45.29,84.759 45.982,84.943 46.869,84.969C47.798,84.995 48.896,84.845 49.469,84.043L49.477,84.035L49.485,84.023C49.485,84.023 49.736,83.523 50.087,83.218C50.263,83.066 50.452,82.972 50.633,82.98ZM89.534,83.291C89.607,83.292 90.545,83.303 91.09,83.485L91.106,83.489L91.119,83.493C91.119,83.493 91.471,83.543 91.842,83.667C92.028,83.729 92.217,83.806 92.364,83.901C92.387,83.916 92.4,83.934 92.42,83.95C91.923,83.644 91.143,83.529 91.143,83.529C90.522,83.322 89.485,83.323 89.485,83.323C86.794,85.186 80.377,84.774 80.377,84.774L73.961,84.358C73.756,84.563 71.755,84.766 71.709,84.77C71.717,84.756 71.729,84.745 71.737,84.73C71.767,84.728 72.241,84.68 72.772,84.605C73.046,84.565 73.326,84.521 73.556,84.471C73.672,84.446 73.774,84.419 73.86,84.39C73.908,84.374 73.945,84.346 73.985,84.326L80.369,84.734C80.369,84.734 81.986,84.84 83.939,84.71C85.868,84.581 88.128,84.236 89.534,83.291ZM92.776,84.322L96.496,84.322C96.508,84.326 96.803,84.439 97.146,84.617C96.8,84.444 96.524,84.358 96.524,84.358L92.796,84.358C92.792,84.346 92.781,84.334 92.776,84.322ZM97.215,84.653C97.304,84.701 97.377,84.726 97.47,84.787C97.495,84.803 97.517,84.826 97.543,84.843C97.431,84.771 97.321,84.708 97.215,84.653ZM98.691,91.369C98.714,91.408 98.733,91.45 98.76,91.486C98.865,91.625 99.008,91.734 99.184,91.769L99.2,91.773L102.071,91.773C102.095,91.783 102.61,92.022 103.122,92.436C103.48,92.726 103.796,93.09 103.938,93.491C103.568,92.895 102.884,92.439 102.467,92.201C102.257,92.082 102.111,92.019 102.111,92.019L99.216,92.019C98.963,91.969 98.798,91.716 98.691,91.368L98.691,91.369ZM43.017,91.999C42.496,92.984 41.048,92.638 41.048,92.638C37.943,92.017 36.908,94.089 36.908,94.089C36.88,94.127 36.863,94.167 36.839,94.207C36.886,94.054 36.95,93.907 37.05,93.774L37.066,93.749C37.066,93.749 37.302,93.273 37.915,92.856C38.527,92.439 39.506,92.09 41.016,92.391C41.016,92.391 41.5,92.499 42.026,92.443C42.289,92.416 42.57,92.351 42.807,92.193C42.885,92.141 42.953,92.072 43.017,91.999ZM98.425,112.492C98.675,112.873 99.22,113.198 100.264,113.095C100.264,113.095 101.025,113.044 101.882,113.196C102.736,113.346 103.652,113.699 104.028,114.445C104.029,114.449 104.052,114.553 104.061,114.586C103.09,113.152 100.252,113.337 100.252,113.337C98.899,113.473 98.526,112.905 98.425,112.492ZM42.726,113.467C42.723,113.477 42.706,113.543 42.706,113.543C42.706,113.647 42.657,113.734 42.572,113.802C42.487,113.87 42.366,113.921 42.22,113.96C41.347,114.193 39.601,113.96 39.601,113.96C38.102,114.11 37.368,115.119 37.074,115.67C37.074,115.67 37.65,113.918 39.617,113.717C39.652,113.721 40.384,113.818 41.157,113.818C41.553,113.818 41.947,113.794 42.265,113.709C42.424,113.667 42.568,113.61 42.681,113.519C42.699,113.505 42.71,113.483 42.726,113.467ZM57.147,25.183L57.086,25.235C53.856,27.86 49.162,26.65 49.162,26.65L49.142,26.646L49.122,26.646C44.563,26.646 43.094,26.852 43.094,26.852L43.029,26.865L42.989,26.913C42.517,27.479 41.94,27.471 41.432,27.325C40.936,27.184 40.561,26.906 40.543,26.893C40.449,26.757 40.3,26.679 40.138,26.622C39.955,26.557 39.745,26.519 39.544,26.493C39.142,26.439 38.772,26.436 38.772,26.436L38.764,26.436L38.76,26.44C34.217,26.75 31.384,26.49 29.696,26.157C28.851,25.991 28.293,25.805 27.949,25.664C27.605,25.523 27.484,25.433 27.484,25.433L27.505,25.454C27.439,25.388 27.375,25.364 27.298,25.341C27.221,25.318 27.133,25.3 27.036,25.284C26.842,25.254 26.612,25.237 26.389,25.224C25.943,25.197 25.523,25.195 25.523,25.195L25.418,25.195L25.37,25.288C25.19,25.648 24.632,26.404 24.59,26.461C24.565,26.469 24.509,26.485 24.408,26.497C24.291,26.509 24.139,26.521 23.967,26.525C23.624,26.536 23.199,26.529 22.786,26.517C21.962,26.492 21.19,26.441 21.19,26.441L21.181,26.437L21.177,26.437C20.314,26.437 19.794,26.716 19.504,27.007C19.213,27.297 19.148,27.609 19.148,27.609L19.144,27.621L18.938,31.579L18.938,31.592C19.04,32.821 18.916,33.318 18.833,33.452C18.791,33.518 18.79,33.504 18.788,33.504L18.647,33.411L18.55,33.553C18.496,33.634 18.289,33.743 17.996,33.808C17.702,33.872 17.337,33.904 16.981,33.917C16.268,33.942 15.602,33.892 15.602,33.892L15.586,33.888L15.57,33.892C15.008,33.949 14.587,34.224 14.292,34.592C13.998,34.96 13.822,35.415 13.714,35.857C13.5,36.742 13.557,37.592 13.557,37.592L13.557,37.612C13.669,38.174 13.989,38.568 14.389,38.821C14.79,39.074 15.268,39.196 15.724,39.249C16.61,39.354 17.389,39.205 17.434,39.197L17.438,39.197C18.54,39.298 18.94,39.639 19.087,39.912C19.235,40.187 19.152,40.426 19.152,40.426L19.144,40.45L19.144,40.478C19.144,40.907 19.197,44.31 19.249,47.622C19.301,50.922 19.35,54.095 19.35,54.119C19.301,54.562 19.182,54.841 19.043,55.013C18.904,55.185 18.745,55.259 18.582,55.292C18.256,55.357 17.931,55.227 17.931,55.227L17.899,55.21L17.866,55.21C15.551,55.21 14.486,56.019 14.042,56.852C13.599,57.681 13.765,58.502 13.767,58.509C13.88,60.012 14.828,60.705 15.72,60.975C16.615,61.247 17.47,61.137 17.47,61.137L17.45,61.141C18.557,61.141 19.011,61.434 19.204,61.691C19.397,61.948 19.354,62.184 19.354,62.184L19.346,62.237L19.37,62.289C19.363,62.275 19.394,62.395 19.403,62.552C19.411,62.709 19.415,62.918 19.411,63.159C19.401,63.639 19.368,64.247 19.33,64.84C19.252,66.028 19.148,67.165 19.148,67.165L19.148,67.186L19.152,67.21C19.368,68.4 20.057,68.888 20.676,69.029C21.25,69.16 21.723,69.025 21.796,69.005L21.804,69.005L38.327,69.422C40.686,71.14 42.209,71.189 43.122,70.719C43.995,70.269 44.225,69.466 44.254,69.373L44.541,69.417C44.726,69.448 45.087,69.464 45.616,69.478C46.146,69.493 46.832,69.502 47.622,69.506C49.201,69.517 51.194,69.51 53.16,69.498C55.127,69.486 57.07,69.466 58.545,69.45C60.014,69.434 61.019,69.422 61.117,69.422L61.129,69.422C61.808,69.573 62.338,69.538 62.746,69.381C63.162,69.221 63.444,68.938 63.627,68.641C63.992,68.052 63.991,67.404 63.991,67.396L63.991,67.388L64.197,62.456C64.282,62.132 64.634,61.894 64.998,61.748C65.351,61.607 65.669,61.562 65.693,61.558C67.991,61.862 69.118,61.052 69.611,60.147C70.104,59.242 69.996,58.276 69.995,58.268L69.995,58.264C69.886,56.757 68.993,56.014 68.151,55.688C67.309,55.362 66.502,55.421 66.502,55.421L66.514,55.417C65.417,55.417 64.913,55.036 64.658,54.665C64.405,54.297 64.404,53.941 64.404,53.938L64.404,53.934C64.461,53.574 64.496,52.682 64.525,51.472C64.554,50.247 64.573,48.734 64.586,47.259C64.612,44.308 64.614,41.514 64.614,41.514C64.614,41.26 64.758,40.851 64.909,40.524C65.041,40.237 65.141,40.071 65.172,40.018C66.447,40.148 67.421,40.072 68.103,39.828C68.815,39.574 69.254,39.158 69.506,38.724C70.004,37.867 69.782,36.962 69.777,36.942C69.871,36.164 69.754,35.576 69.482,35.167C69.203,34.748 68.788,34.515 68.374,34.39C67.571,34.15 66.771,34.296 66.72,34.306C65.304,34.306 64.818,33.913 64.646,33.57C64.475,33.225 64.602,32.877 64.602,32.877L64.61,32.844C64.923,30.86 64.82,29.491 64.634,28.615C64.449,27.739 64.166,27.337 64.166,27.337L64.149,27.313L64.121,27.293C63.91,27.152 63.605,27.098 63.236,27.058C62.867,27.018 62.44,27.005 62.035,27.005C61.226,27.005 60.499,27.058 60.499,27.058L60.446,27.062L60.41,27.09C60.262,27.201 60.101,27.189 59.88,27.078C59.659,26.967 59.41,26.754 59.185,26.516C58.734,26.04 58.376,25.481 58.376,25.481L58.336,25.42L57.147,25.183ZM115.728,25.183L115.667,25.235C112.437,27.86 107.743,26.65 107.743,26.65L107.723,26.646L107.699,26.646C103.346,26.646 101.881,26.852 101.881,26.852L101.816,26.865L101.776,26.913C101.305,27.479 100.727,27.471 100.219,27.325C99.731,27.186 99.363,26.918 99.334,26.897C99.241,26.758 99.089,26.68 98.926,26.622C98.742,26.557 98.532,26.519 98.331,26.493C97.93,26.439 97.559,26.436 97.559,26.436L97.551,26.436L97.547,26.44C93.004,26.75 90.172,26.49 88.483,26.157C87.639,25.991 87.081,25.805 86.737,25.664C86.392,25.523 86.272,25.433 86.272,25.433L86.292,25.454C86.226,25.388 86.159,25.364 86.082,25.341C86.005,25.318 85.92,25.3 85.823,25.284C85.629,25.254 85.395,25.237 85.172,25.224C84.726,25.197 84.311,25.195 84.311,25.195L84.206,25.195L84.157,25.288C83.977,25.649 83.413,26.411 83.373,26.465C83.346,26.473 83.29,26.486 83.191,26.497C83.074,26.509 82.926,26.521 82.754,26.525C82.411,26.536 81.986,26.529 81.574,26.517C80.75,26.492 79.973,26.441 79.973,26.441L79.969,26.437L79.965,26.437C79.002,26.437 78.436,26.709 78.117,26.999C77.798,27.288 77.725,27.609 77.725,27.609L77.725,31.798C77.827,32.922 77.698,33.368 77.624,33.471C77.587,33.523 77.59,33.504 77.583,33.504C77.577,33.503 77.571,33.504 77.571,33.504L77.434,33.411L77.337,33.552C77.283,33.633 77.076,33.743 76.783,33.807C76.489,33.871 76.12,33.904 75.764,33.916C75.051,33.942 74.386,33.892 74.386,33.892L74.373,33.888L74.357,33.892C73.747,33.948 73.287,34.216 72.962,34.583C72.637,34.95 72.44,35.409 72.32,35.853C72.078,36.74 72.134,37.591 72.134,37.591L72.134,37.599L72.138,37.612C72.25,38.173 72.57,38.568 72.97,38.82C73.371,39.073 73.845,39.195 74.301,39.249C75.187,39.353 75.97,39.205 76.015,39.196L76.019,39.196C77.121,39.298 77.517,39.638 77.664,39.912C77.812,40.186 77.733,40.425 77.733,40.425L77.729,40.429L77.729,40.437C77.69,40.594 77.678,40.862 77.664,41.294C77.65,41.727 77.641,42.3 77.636,42.96C77.626,44.281 77.631,45.965 77.644,47.622C77.67,50.922 77.725,54.095 77.725,54.118C77.676,54.562 77.553,54.84 77.414,55.012C77.274,55.184 77.115,55.258 76.953,55.291C76.627,55.356 76.306,55.226 76.306,55.226L76.273,55.21L76.237,55.21C73.922,55.21 72.857,56.018 72.412,56.851C71.97,57.68 72.136,58.501 72.138,58.509C72.251,60.012 73.198,60.705 74.09,60.975C74.985,61.246 75.845,61.137 75.845,61.137L75.825,61.141C76.826,61.141 77.279,61.431 77.502,61.698C77.725,61.966 77.725,62.212 77.725,62.212L77.725,62.252L77.741,62.289C77.734,62.274 77.765,62.394 77.773,62.551C77.781,62.709 77.782,62.918 77.777,63.158C77.768,63.638 77.735,64.246 77.696,64.84C77.619,66.027 77.519,67.164 77.519,67.164L77.514,67.185L77.519,67.209C77.735,68.399 78.427,68.888 79.047,69.029C79.62,69.159 80.093,69.03 80.167,69.008L80.175,69.008L96.698,69.424C99.057,71.143 100.576,71.192 101.489,70.722C102.369,70.269 102.652,69.409 102.677,69.327L102.681,69.323C102.756,69.181 102.914,69.113 102.992,69.113C103.032,69.113 103.029,69.121 103.021,69.109C103.013,69.097 103.029,69.105 102.992,69.178L102.891,69.384L103.118,69.42C103.302,69.451 103.664,69.467 104.193,69.481C104.722,69.496 105.409,69.504 106.199,69.509C107.778,69.52 109.77,69.513 111.737,69.501C113.704,69.489 115.643,69.469 117.118,69.453C118.593,69.436 119.616,69.425 119.706,69.425C120.433,69.575 120.989,69.537 121.408,69.38C121.834,69.22 122.114,68.936 122.285,68.636C122.627,68.037 122.564,67.371 122.564,67.371L122.568,67.395L122.774,62.455C122.858,62.131 123.206,61.893 123.571,61.747C123.927,61.605 124.251,61.564 124.27,61.561C126.568,61.865 127.694,61.05 128.188,60.146C128.681,59.241 128.569,58.278 128.568,58.27L128.568,58.262C128.458,56.756 127.57,56.013 126.728,55.687C125.886,55.361 125.075,55.42 125.075,55.42L125.091,55.416C123.887,55.416 123.393,55.031 123.166,54.668C122.94,54.306 122.984,53.953 122.984,53.953L122.984,53.932C122.984,52.709 123.191,41.516 123.191,41.516L123.191,41.512C123.191,41.258 123.335,40.849 123.486,40.522C123.618,40.235 123.722,40.069 123.753,40.016C125.027,40.146 126.001,40.07 126.684,39.826C127.396,39.572 127.835,39.157 128.087,38.723C128.585,37.865 128.362,36.961 128.357,36.94C128.452,36.162 128.331,35.574 128.058,35.165C127.779,34.747 127.364,34.513 126.95,34.389C126.145,34.147 125.341,34.296 125.297,34.304C123.88,34.304 123.399,33.911 123.227,33.568C123.055,33.225 123.182,32.877 123.182,32.877L123.19,32.844C123.504,30.86 123.401,29.491 123.215,28.615C123.029,27.738 122.746,27.337 122.746,27.337L122.725,27.313L122.701,27.292C122.49,27.151 122.185,27.098 121.816,27.058C121.447,27.018 121.02,27.005 120.615,27.005C119.806,27.005 119.075,27.058 119.075,27.058L119.026,27.062L118.986,27.09C118.838,27.201 118.681,27.189 118.46,27.078C118.239,26.967 117.986,26.754 117.761,26.516C117.31,26.04 116.956,25.481 116.956,25.481L116.916,25.42L115.728,25.183Z" style="fill-rule:nonzero;"/></g><g transform="matrix(1,0,0,1,-10,-9.635)"><path d="M28.215,27.03C28.215,27.03 26.973,27.031 27.18,27.859L26.768,59.321C26.768,59.321 26.767,60.771 29.044,60.978C29.044,60.978 31.94,61.185 32.561,60.978L39.187,60.978C39.187,60.978 40.429,62.217 40.429,60.768C40.429,60.768 41.255,35.311 40.841,29.929C40.841,29.929 40.84,27.649 38.977,27.649C38.977,27.649 31.529,28.27 30.908,27.649L28.215,27.03ZM56.948,27.078C56.675,27.054 56.236,27.132 55.537,27.442C55.537,27.442 55.747,28.273 46.433,27.859C46.225,27.859 42.706,27.857 42.499,29.306C42.499,29.306 42.293,44.21 42.293,44.624L42.082,57.044L41.876,61.39C41.876,61.39 42.497,62.217 42.911,61.596C42.911,61.596 46.016,60.77 48.086,61.184C48.086,61.184 54.298,61.803 55.747,60.768C55.747,60.768 56.781,61.182 56.988,59.733C56.988,59.733 57.402,32.203 57.195,31.789C57.195,31.789 57.608,27.856 57.401,27.442C57.401,27.442 57.403,27.119 56.948,27.079L56.948,27.078ZM22.822,27.851C22.416,27.863 21.824,28.117 20.97,28.894L20.764,33.034C20.764,33.034 20.764,35.31 18.694,35.104C18.694,35.104 16.415,35.104 15.173,36.139C15.173,36.139 14.554,38.205 16.831,37.998C16.831,37.998 20.351,38 20.558,39.45L20.348,54.352C20.348,54.352 21.179,56.838 18.488,56.838C18.488,56.838 15.173,56.628 15.173,58.698C15.173,58.698 15.796,60.357 18.694,59.943C18.694,59.943 20.765,60.356 20.558,62.219L20.558,65.943C20.558,65.943 20.348,67.393 22.418,67.6L37.736,67.6C37.736,67.6 38.564,67.599 38.564,66.771C38.564,66.771 38.565,65.943 37.323,65.943L24.697,65.53C24.697,65.53 22.624,66.153 22.417,63.048C22.417,63.048 22.617,36.468 22.623,35.298L22.627,35.31C22.627,35.31 22.624,35.213 22.623,35.201C22.623,35.191 22.627,34.898 22.627,34.894C22.623,34.886 22.623,34.886 22.619,34.877C22.597,33.86 22.593,30.259 23.662,28.477C23.662,28.477 23.499,27.831 22.821,27.851L22.822,27.851ZM62.018,27.927C61.13,28.004 61.129,29.1 61.129,29.1C61.543,29.514 61.747,30.964 61.747,30.964C61.954,34.276 61.747,38.001 61.747,41.52C61.54,53.319 61.129,64.083 61.129,64.083C61.129,66.36 59.887,65.736 59.887,65.736L46.222,65.736C44.773,65.736 44.775,66.565 44.775,66.565C44.982,67.807 46.222,67.394 46.222,67.394C47.464,67.601 61.128,67.394 61.128,67.394C63.198,67.601 62.992,64.907 62.992,64.907C63.199,60.146 63.611,59.732 63.611,59.732C64.025,59.525 66.303,59.526 66.303,59.526C70.029,59.733 68.373,57.25 68.373,57.25C67.959,56.629 65.475,56.628 65.475,56.628C63.198,56.835 63.405,54.351 63.405,54.351L63.611,40.068C63.197,38.826 64.233,38.209 64.233,38.209L66.51,38.209C69.614,38.416 68.786,36.345 68.786,36.345C68.786,35.31 66.097,34.894 66.097,34.894C63.613,35.308 63.817,33.859 63.817,33.859L63.817,30.341C64.231,28.064 62.782,28.065 62.782,28.065C62.471,27.949 62.223,27.91 62.018,27.928L62.018,27.927ZM59.095,28.388C58.831,28.424 58.54,28.634 58.23,29.1L58.23,60.149C58.23,60.149 59.058,62.838 60.3,62.631C60.3,62.631 60.506,62.013 60.506,60.978L60.922,31.376C60.922,31.376 60.239,28.234 59.095,28.388ZM25.733,28.683C23.87,28.683 23.663,32.205 23.663,32.205L23.453,61.597C23.66,63.046 24.075,62.838 24.075,62.838C25.938,61.596 25.733,59.527 25.733,59.527C25.733,59.527 25.939,31.584 25.939,31.17C25.939,30.756 25.733,28.683 25.733,28.683ZM26.594,61.79C26.506,61.794 26.407,61.809 26.303,61.839C25.889,61.957 25.379,62.313 24.949,63.173L24.941,63.19L24.936,63.206C24.936,63.206 24.814,63.592 24.908,63.97C24.955,64.159 25.076,64.36 25.296,64.463C25.509,64.563 25.79,64.567 26.157,64.467L36.264,64.467L38.977,65.094L39.014,65.086C39.014,65.086 39.207,65.041 39.446,64.953C39.685,64.864 39.976,64.734 40.19,64.52C40.297,64.413 40.387,64.281 40.425,64.124C40.462,63.966 40.442,63.786 40.36,63.61C40.196,63.259 39.806,62.901 39.066,62.478L39.026,62.454L29.27,62.454C29.255,62.45 28.814,62.354 28.308,62.228C27.793,62.099 27.205,61.929 27.051,61.852L27.043,61.848L27.039,61.848C27.039,61.848 26.859,61.777 26.594,61.791L26.594,61.79ZM57.348,62.336C56.766,62.307 55.953,62.425 55.953,62.425C54.297,63.46 44.568,62.631 44.568,62.631C43.947,62.631 43.117,63.666 43.117,63.666C42.91,65.529 46.016,64.701 45.81,64.701L57.401,64.701C59.264,65.115 59.264,64.289 59.264,64.289C59.264,63.668 57.817,62.425 57.817,62.425C57.714,62.374 57.542,62.346 57.348,62.336ZM42.034,64.657C41.981,64.661 41.928,64.675 41.876,64.701C41.876,64.701 40.013,64.703 40.013,67.188C40.013,67.188 40.22,69.047 42.083,69.047C42.083,69.047 43.74,68.634 43.74,66.771C43.74,66.771 42.83,64.589 42.034,64.657ZM86.586,27.03C86.586,27.03 85.344,27.031 85.551,27.859L85.139,59.321C85.139,59.321 85.138,60.771 87.415,60.978C87.415,60.978 90.315,61.185 90.936,60.978L97.558,60.978C97.558,60.978 98.8,62.218 98.8,60.562C98.8,60.562 99.63,35.101 99.216,29.719C99.216,29.719 99.215,27.443 97.352,27.443C97.352,27.443 89.9,28.064 89.279,27.443L86.586,27.03ZM115.238,27.285C114.994,27.295 114.636,27.39 114.118,27.648C114.118,27.648 114.324,28.479 105.01,28.065C104.803,28.065 101.076,27.856 101.076,29.512C101.076,29.512 100.87,44.416 100.87,44.83L100.664,57.25L100.251,61.596C100.251,61.596 100.872,62.423 101.286,61.802C101.286,61.802 104.391,60.976 106.461,61.39C106.461,61.39 112.669,62.013 114.118,60.978C114.118,60.978 115.152,61.392 115.359,59.943C115.359,59.943 115.773,32.413 115.566,31.999C115.566,31.999 115.983,28.063 115.776,27.649C115.776,27.649 115.776,27.26 115.238,27.285ZM80.987,27.851C80.581,27.863 79.989,28.117 79.136,28.894L79.136,32.823C79.136,32.823 79.136,35.1 77.066,34.893C77.066,34.893 74.79,34.893 73.548,35.928C73.548,35.928 72.925,37.999 75.202,37.792C75.202,37.792 78.722,37.794 78.929,39.243L78.723,54.145C78.723,54.145 79.551,56.628 76.653,56.628C76.653,56.628 73.342,56.422 73.342,58.492C73.342,58.492 73.961,60.147 76.859,59.733C76.859,59.733 78.929,60.15 78.929,62.013L78.929,65.736C78.929,65.736 78.724,67.187 80.587,67.394L95.901,67.394C95.901,67.394 96.73,67.393 96.73,66.565C96.73,66.565 96.73,65.736 95.488,65.736L83.068,65.53C83.068,65.53 80.999,66.153 80.792,63.048C80.792,63.048 80.999,35.307 80.792,34.893L80.792,35.309C80.792,35.309 80.585,30.547 81.827,28.477C81.827,28.477 81.664,27.83 80.986,27.85L80.987,27.851ZM120.389,27.927C119.501,28.004 119.5,29.1 119.5,29.1C119.707,29.514 120.122,30.964 120.122,30.964C120.329,34.275 120.122,38.001 120.122,41.52C119.915,53.319 119.5,64.083 119.5,64.083C119.5,66.359 118.258,65.736 118.258,65.736L104.597,65.736C103.148,65.736 103.146,66.565 103.146,66.565C103.353,67.807 104.804,67.394 104.804,67.187C106.046,67.394 119.706,67.187 119.706,67.187C121.776,67.394 121.569,64.701 121.569,64.701C121.776,59.94 122.192,59.526 122.192,59.526C122.606,59.319 124.881,59.32 124.881,59.32C128.399,59.527 126.744,57.044 126.744,57.044C126.33,56.423 123.846,56.421 123.846,56.421C121.569,56.628 121.776,54.145 121.776,54.145L121.986,39.862C121.572,38.62 122.604,37.998 122.604,37.998L124.881,37.998C127.985,38.205 127.161,36.139 127.161,36.139C127.161,35.104 124.468,34.687 124.468,34.687C121.984,35.101 122.192,33.652 122.192,33.652L122.192,30.341C122.606,28.064 121.157,28.065 121.157,28.065C120.847,27.949 120.594,27.91 120.389,27.928L120.389,27.927ZM117.466,28.465C117.202,28.487 116.911,28.673 116.601,29.1L116.601,60.149C116.601,60.149 117.429,62.838 118.671,62.631C118.671,62.631 118.881,62.013 118.881,60.978L119.294,31.376C119.294,31.376 118.611,28.371 117.466,28.465ZM84.104,28.683C82.241,28.683 82.034,32.205 82.034,32.205L81.828,61.597C82.035,63.046 82.447,62.838 82.447,62.838C84.31,61.596 84.104,59.527 84.104,59.527C84.104,59.527 84.31,31.584 84.31,31.17C84.31,30.756 84.104,28.683 84.104,28.683ZM85.289,61.758C84.927,61.748 84.261,61.909 83.692,63.048C83.692,63.048 83.278,64.497 84.727,64.083L94.867,64.083L97.559,64.702C97.559,64.702 100.457,64.081 97.559,62.426L87.832,62.426C87.832,62.426 85.966,62.01 85.552,61.803C85.552,61.803 85.454,61.764 85.289,61.758ZM115.833,62.126C115.307,62.137 114.741,62.219 114.741,62.219C113.085,63.254 103.356,62.425 103.356,62.425C102.735,62.425 101.905,63.46 101.905,63.46C101.491,65.323 104.597,64.495 104.597,64.495L116.188,64.495C118.051,64.909 118.052,64.083 118.052,64.083C118.052,63.462 116.601,62.219 116.601,62.219C116.445,62.142 116.148,62.12 115.833,62.126ZM100.616,64.451C100.561,64.455 100.51,64.47 100.458,64.495C100.458,64.495 98.593,64.493 98.8,66.978C98.8,66.978 99.007,68.842 100.87,68.842C100.87,68.842 102.528,68.635 102.528,66.565C102.528,66.565 101.434,64.383 100.616,64.451ZM69.823,104.653C69.823,104.653 69.823,106.93 69.616,109.207C69.409,110.449 70.03,116.245 69.616,119.143C69.616,119.143 69.616,120.178 67.546,119.35C67.546,119.35 54.919,119.557 54.712,119.143C54.712,119.143 51.193,119.35 50.986,117.487C50.986,117.487 51.4,104.032 51.193,103.618C51.193,103.618 50.986,96.373 51.193,95.545C51.193,95.545 51.4,88.714 51.193,87.886C51.193,87.886 51.193,86.23 50.986,85.609C50.986,85.609 50.986,84.574 52.642,85.195C52.642,85.195 53.263,86.23 56.368,85.816C56.368,85.816 58.645,86.23 60.922,85.816C60.922,85.816 65.89,85.402 67.131,85.816C67.131,85.816 69.201,85.402 69.615,87.679L69.615,93.682L70.236,95.752L70.857,95.338L71.064,93.889L71.064,87.472C71.064,87.472 71.478,86.23 73.134,86.023C73.134,86.023 75.618,85.816 76.032,86.023C76.446,86.23 81.828,86.437 83.277,86.23C84.726,86.023 84.933,87.265 89.487,84.988C89.487,84.988 90.729,84.988 90.729,85.816C90.729,85.816 90.315,94.096 90.729,95.752C90.729,95.752 90.729,111.07 90.315,112.105L90.522,117.073C90.522,117.073 90.729,119.143 87.21,119.35C87.21,119.35 89.28,119.557 75.825,119.143C75.825,119.143 73.755,118.936 71.271,120.178C71.271,120.178 70.857,119.971 70.857,118.729C70.857,118.729 71.271,114.175 70.857,109.621L70.65,104.653L69.823,104.653ZM91.557,118.108C91.557,118.108 92.799,120.385 93.213,120.592C93.213,120.592 94.248,121.834 94.041,119.557L94.248,91.199C94.248,91.199 94.041,90.164 94.248,88.715L93.006,86.645C93.006,86.645 91.764,85.61 91.764,87.266L91.764,117.28L91.557,118.108ZM50.365,119.35C50.365,119.35 51.814,120.799 54.091,120.799L67.339,121.006C67.339,121.006 68.788,121.213 68.788,121.834C68.788,121.834 68.581,123.076 66.718,122.662L50.572,122.455L48.709,122.662C48.709,122.662 47.467,122.455 49.33,120.178L50.365,119.35ZM47.467,86.852C47.467,86.852 46.225,88.922 46.432,89.543L46.432,122.248C46.432,122.248 46.225,124.525 48.088,123.904C48.088,123.904 65.269,123.49 66.511,123.904C66.511,123.904 68.167,124.111 67.546,124.939C67.546,124.939 67.546,125.56 66.511,125.353C66.511,125.353 58.438,126.181 50.986,125.767C50.986,125.767 46.018,125.974 45.811,125.56C45.811,125.56 44.983,125.353 44.983,122.662C44.983,122.662 44.983,119.971 44.776,119.557C44.776,119.557 44.983,118.108 42.499,117.901C42.499,117.901 38.98,118.522 38.98,116.452C38.98,116.452 39.394,115.003 42.913,115.21C42.913,115.21 45.397,115.624 44.776,113.554L44.983,99.064C44.983,99.064 45.397,96.58 43.534,96.373L41.464,96.373C41.464,96.373 38.566,96.373 38.773,94.717C38.773,94.717 39.808,93.061 42.706,93.268C42.706,93.268 44.776,93.682 44.983,91.198C44.983,91.198 44.983,86.23 46.018,86.023C45.811,86.023 48.295,86.23 47.467,86.851M49.123,86.644C49.123,86.644 49.744,86.644 49.744,87.886L49.537,117.486C49.537,117.486 49.744,119.349 48.088,120.798C48.088,120.798 47.26,121.833 47.26,120.177L47.674,89.956C47.674,89.956 47.674,87.679 49.123,86.644M72.306,121.419C72.306,121.419 73.962,120.177 74.79,120.384C74.79,120.384 83.691,121.005 86.382,120.591C89.073,120.177 87.417,120.384 87.417,120.384C87.417,120.384 89.694,120.384 90.522,119.556C90.522,119.556 91.143,119.349 91.557,119.97L93.006,121.626C93.006,121.626 93.006,122.661 91.35,122.454C91.35,122.454 75.411,122.454 74.79,122.661C74.997,122.661 72.099,123.075 72.306,121.419M73.341,124.11C73.341,124.11 74.583,123.489 75.411,123.696C76.239,123.903 87.624,123.489 87.624,123.489C87.624,123.489 92.592,123.903 93.42,123.075L94.662,122.661C94.662,122.661 95.076,122.04 95.076,121.212L95.076,117.693L95.283,116.658L95.283,89.542C95.283,89.542 95.697,87.472 94.455,86.23C94.455,86.23 94.455,85.402 94.869,85.609C95.283,85.816 95.076,85.609 95.076,85.609C95.076,85.609 96.732,85.195 97.146,85.816C97.146,85.816 97.974,88.093 97.146,89.542C97.146,89.542 96.939,92.44 98.388,92.44C98.388,92.44 99.009,93.061 100.044,92.647C100.044,92.647 102.528,92.854 102.528,93.682C102.528,93.682 102.528,95.545 100.872,95.131L98.595,95.338C98.595,95.338 96.939,95.752 97.146,97.408C97.353,99.271 97.146,112.726 97.146,112.726C97.146,112.726 97.146,114.382 99.63,114.175C99.63,114.175 102.734,113.968 102.734,115.003C102.734,115.003 103.562,116.866 101.285,117.073C101.285,117.073 97.146,116.866 97.56,118.108C97.56,118.108 97.353,120.799 97.146,121.42C97.146,121.42 97.56,123.697 97.146,124.111C97.146,124.111 96.939,125.353 94.248,125.146C94.248,125.146 77.481,125.146 74.79,125.353C74.583,125.767 72.927,125.56 73.341,124.111M70.443,122.248C70.443,122.248 72.099,122.455 72.099,124.111C72.099,125.767 72.099,126.595 71.271,126.802C70.236,127.009 69.201,126.595 68.994,125.353C68.58,124.111 68.994,122.662 70.443,122.248" style="fill:white;fill-rule:nonzero;"/></g><g transform="matrix(1,0,0,1,-10,-9.635)"><path d="M39.6,38.41L38.772,40.273C38.772,40.273 36.702,49.795 35.46,51.658C35.46,51.658 35.253,53.728 33.597,52.072C33.597,52.072 29.664,40.066 29.457,39.652L28.215,38.824C28.215,38.824 27.387,37.789 28.836,37.582L32.562,37.582C32.562,37.582 33.804,38.617 32.148,39.652C32.148,39.652 32.355,41.308 34.425,47.311C34.425,47.311 35.046,49.588 35.667,47.932L37.737,40.894L37.116,38.824C37.116,38.824 36.495,37.789 37.323,37.789C37.323,37.789 39.393,37.582 39.6,38.41M45.189,40.066L45.189,50.416L44.982,51.244C44.982,51.244 43.947,52.486 44.775,52.693C44.775,52.693 43.947,53.314 50.985,53.314C50.985,53.314 53.676,53.728 53.055,50.209C53.055,50.209 52.848,48.967 51.813,50.83C51.813,50.83 51.606,52.486 47.88,51.865C47.88,51.865 47.052,51.244 47.052,50.416L47.052,46.069C47.052,46.069 47.052,45.034 48.708,45.034C48.708,45.034 50.571,46.276 50.778,45.655C50.778,45.655 51.399,43.999 50.778,43.171C50.778,43.171 49.95,43.171 49.743,43.378C49.743,43.378 49.122,44.62 47.466,43.792C47.466,43.792 46.638,42.136 47.259,40.894C47.259,40.894 47.052,38.41 48.708,38.617C48.708,38.617 50.778,39.031 50.778,39.652C50.778,39.652 51.192,40.894 51.813,39.445L51.399,37.996C51.399,37.996 51.192,37.375 50.571,37.582C50.571,37.582 47.259,37.996 46.845,37.582L44.154,37.789C44.154,37.789 43.74,38.824 44.982,39.238C44.982,39.445 45.189,39.652 45.189,40.066M104.597,38.41C104.39,37.582 106.253,37.582 106.253,37.582L107.288,37.789C107.909,37.789 108.737,37.996 108.737,37.996C109.358,39.031 108.323,39.652 108.323,39.652L107.909,40.894L107.909,51.244C108.116,51.658 108.944,52.693 108.944,52.693C108.944,53.521 107.909,53.314 107.909,53.314L105.011,53.314C104.183,53.314 104.39,52.279 104.39,52.279C105.425,51.865 105.632,50.002 105.632,50.002L105.632,40.273L104.597,38.41ZM91.349,47.518L91.142,50.623L91.97,52.072C92.591,52.9 91.556,53.521 91.556,53.521L88.451,53.107C87.83,52.9 88.451,51.865 88.451,51.865C89.279,51.451 89.279,50.209 89.279,50.209L89.279,40.273C89.279,39.859 88.451,38.824 88.451,38.824C87.83,38.824 88.037,37.789 88.037,37.789C88.244,37.375 89.9,37.582 89.9,37.582L94.04,37.582C97.973,38.824 97.352,41.722 97.352,41.722C97.559,44.62 94.661,45.655 94.661,45.655L94.454,47.311L97.352,51.865C97.766,52.279 97.766,52.693 97.766,52.693C97.352,53.728 95.696,52.693 95.696,52.693L92.177,47.104C91.763,46.69 91.349,47.518 91.349,47.518M91.349,39.652L91.349,44.827C93.212,46.276 94.247,44.206 94.247,44.206C96.731,41.929 94.247,39.652 93.833,39.031C93.419,38.41 91.556,39.031 91.556,39.031L91.349,39.652ZM61.128,97.611C61.128,97.611 61.335,104.856 61.128,105.891L61.128,107.547C61.128,107.547 61.542,108.582 62.163,108.996C62.163,108.996 62.577,110.445 61.542,110.238C61.542,110.238 59.058,110.031 58.437,110.238C58.437,110.238 56.988,110.238 58.437,108.582C58.437,108.582 58.851,107.961 58.851,106.098C58.851,106.098 58.851,97.818 59.058,97.404C59.058,97.404 59.265,96.369 58.644,95.955L57.402,95.955L55.953,97.404C55.953,97.404 55.539,98.853 54.918,97.404L54.918,96.576L55.746,94.299L56.367,94.299C56.367,94.299 57.195,94.92 58.023,95.127L62.577,95.127L64.233,94.299C64.233,94.299 64.854,94.299 64.647,95.334C64.647,95.334 64.854,97.611 63.612,97.818C63.612,97.818 62.784,97.611 62.37,96.369C62.37,96.162 61.128,95.334 61.128,97.611M82.655,94.92C82.655,94.92 78.929,94.506 78.929,98.646C78.929,98.646 78.515,101.337 82.655,103.2C82.655,103.2 85.76,104.649 85.553,106.512C85.553,106.512 85.139,109.824 81.827,108.168C81.827,108.168 80.171,107.34 80.378,106.512C80.378,106.512 79.964,105.477 79.343,105.684C79.343,105.684 78.722,105.891 78.929,109.203C78.929,109.203 78.929,110.445 80.378,109.203L81.206,109.41C81.206,109.41 83.897,111.48 86.174,108.996C86.174,108.996 88.658,106.719 86.795,104.028C86.795,104.028 85.553,101.958 83.276,101.13C83.276,101.13 81.206,100.095 80.585,98.439C80.585,98.439 81.206,95.541 83.897,96.99C83.897,96.99 84.932,98.232 85.553,98.439C85.553,98.439 86.381,98.439 86.174,96.576L85.967,95.127C85.967,95.127 85.76,94.092 84.311,95.127C84.311,94.92 83.069,95.541 82.655,94.92M70.856,92.85C71.477,93.264 71.684,94.299 71.684,94.299C73.754,99.474 75.41,107.133 75.41,107.133C75.824,108.168 76.859,108.789 76.859,108.789C78.515,109.41 76.859,109.824 76.859,109.824C76.238,110.031 73.961,109.824 73.961,109.824C72.719,109.617 73.34,109.203 73.34,109.203C73.754,108.789 73.34,106.719 73.34,106.719C73.34,105.891 72.305,104.649 72.305,104.649C71.891,104.442 71.27,105.27 71.27,105.27C71.27,105.27 70.235,105.684 70.028,105.27C69.821,104.856 69.2,104.442 69.2,104.442C67.958,104.442 67.544,107.34 67.544,107.34C68.165,109.824 67.544,109.41 67.544,109.41C66.923,110.238 65.06,109.617 65.06,109.617C64.232,109.41 64.853,108.789 64.853,108.789C65.888,108.582 66.302,107.34 66.302,107.34C66.716,106.719 70.028,93.885 70.028,93.885C69.821,93.678 70.028,92.436 70.856,92.85M69.2,99.474C69.2,99.888 68.372,102.786 68.372,102.786L68.993,103.821L71.063,103.821C71.477,103.821 71.684,103.407 71.684,102.786C71.684,102.372 70.649,99.267 70.649,99.267L70.235,98.646L69.2,99.474Z" style="fill-rule:nonzero;"/></g><g transform="matrix(1,0,0,1,-10,-9.635)"><path d="M244.32,110.24C244.32,108.998 243.492,108.17 241.836,107.756L241.836,106.928C242.664,106.928 245.769,107.135 246.597,107.135C247.218,107.135 250.323,106.928 251.151,106.928L251.151,107.756C249.702,108.17 248.874,108.998 248.874,110.24L248.874,125.765C248.874,130.733 251.565,133.424 257.154,133.424C262.121,133.424 265.847,131.147 265.847,125.972L265.847,110.033C265.847,108.791 265.019,107.963 263.364,107.549L263.364,106.928C263.984,106.928 266.468,107.135 267.296,107.135C268.124,107.135 270.608,106.928 271.229,106.928L271.229,107.756C269.366,108.17 268.745,108.998 268.745,110.24L268.745,125.351C268.745,132.182 264.813,136.115 256.325,136.115C248.46,136.115 244.319,132.596 244.319,126.179L244.32,110.24ZM278.267,134.872C280.13,134.458 280.751,133.63 280.751,132.388L280.751,110.861C280.751,108.998 279.716,108.17 278.06,107.756L278.06,106.928L284.063,106.928L302.693,128.869L302.693,110.239C302.693,108.997 301.865,108.169 300.209,107.755L300.209,106.927C300.83,106.927 303.314,107.134 304.142,107.134C304.97,107.134 307.454,106.927 308.075,106.927L308.075,107.755C306.212,108.169 305.384,108.997 305.384,110.239L305.384,136.113L304.349,136.113C303.728,135.906 302.279,135.285 300.209,133.008L283.442,113.55L283.442,132.594C283.442,133.836 284.063,134.664 285.926,135.078L285.926,135.906C285.305,135.906 282.821,135.699 281.993,135.699C281.165,135.699 278.681,135.906 278.06,135.906L278.267,134.872ZM425.647,129.076L426.475,129.076C426.889,130.732 427.717,132.181 429.166,133.009C430.408,134.044 432.685,134.458 434.341,134.458C438.067,134.458 440.551,132.595 440.551,129.697C440.551,126.592 437.446,125.143 433.927,123.28C431.236,121.831 425.854,119.761 425.854,114.587C425.854,109.826 429.58,106.721 435.376,106.721C439.309,106.721 440.965,107.756 443.656,107.549L443.656,113.345L442.828,113.345C441.793,109.826 438.688,108.791 435.169,108.791C431.236,108.791 429.994,111.068 429.994,113.138C429.994,116.242 433.099,117.898 436.618,119.554C440.551,121.21 444.897,123.487 444.897,128.455C444.897,133.216 441.172,136.528 434.547,136.528C430.615,136.528 428.131,135.286 426.061,135.079L425.647,129.076ZM505.754,123.694L498.095,111.481C496.853,109.411 495.818,108.169 494.369,107.755L494.369,106.927C495.404,106.927 498.302,107.134 498.923,107.134C499.751,107.134 502.649,106.927 503.891,106.927L503.891,107.755C502.856,107.962 502.442,108.376 502.442,109.204C502.442,109.825 502.856,110.653 503.27,111.481C503.684,112.102 508.859,120.796 508.859,120.796L514.241,111.481C514.862,110.446 515.069,109.618 515.069,108.997C515.069,108.376 514.655,107.962 513.827,107.962L513.827,106.927C514.655,106.927 516.725,107.134 517.346,107.134C517.967,107.134 520.244,106.927 521.072,106.927L521.072,107.755C519.002,108.583 517.76,110.446 516.518,112.516L509.687,124.108M510.101,122.659L510.101,132.388C510.101,133.423 510.929,134.665 512.585,134.872L512.585,135.7C511.757,135.7 508.652,135.493 507.824,135.493C506.996,135.493 504.098,135.7 503.063,135.7L503.063,134.872C504.719,134.458 505.547,133.423 505.547,132.388L505.547,123.073M364.587,106.927L382.389,106.927C383.01,106.927 383.838,106.927 384.459,106.513L385.287,106.513L385.08,112.309L384.252,112.309C383.631,110.446 382.803,108.997 379.491,108.997L371.832,108.997L371.832,119.347L377.835,119.347C378.663,119.347 379.698,119.347 380.112,119.14C381.354,118.933 381.975,118.105 382.389,116.863L383.217,116.863L383.217,124.108L382.389,124.108C381.975,122.866 381.561,122.038 380.112,121.831C379.698,121.624 378.663,121.624 377.835,121.624L371.832,121.624L371.832,133.423L380.319,133.423C384.045,133.423 385.08,131.974 385.908,129.697L386.736,129.697L385.908,135.7C383.217,135.493 381.561,135.493 378.456,135.493L369.555,135.493C368.727,135.493 365.623,135.7 364.588,135.7L364.588,134.872C366.244,134.458 367.071,133.837 367.071,132.181L367.071,110.24C367.071,108.791 366.243,107.963 364.588,107.756L364.587,106.927ZM319.048,110.446C319.048,108.997 318.22,108.169 316.564,107.755L316.564,106.927C317.599,106.927 320.497,107.134 321.532,107.134C322.36,107.134 325.465,106.927 326.5,106.927L326.5,107.755C324.844,108.169 323.809,108.79 323.809,110.446L323.809,132.18C323.809,133.629 324.637,134.457 326.5,134.871L326.5,135.699C325.465,135.699 322.567,135.492 321.532,135.492C320.704,135.492 317.599,135.699 316.564,135.699L316.564,134.871C318.427,134.457 319.255,133.836 319.255,132.18L319.048,110.446ZM454.218,110.446C454.218,108.997 453.39,108.169 451.734,107.755L451.734,106.927C452.769,106.927 455.874,107.134 456.702,107.134C457.53,107.134 460.635,106.927 461.67,106.927L461.67,107.755C460.014,108.169 459.186,108.79 459.186,110.446L459.186,132.18C459.186,133.629 460.014,134.457 461.67,134.871L461.67,135.699C460.635,135.699 457.737,135.492 456.702,135.492C455.874,135.492 452.769,135.699 451.734,135.699L451.734,134.871C453.597,134.457 454.218,133.836 454.218,132.18L454.218,110.446ZM479.057,107.134C469.328,107.134 467.672,106.927 465.809,106.72L465.809,112.516L466.637,112.516C467.465,109.825 468.914,109.204 470.777,109.204L476.987,109.204L476.987,131.973C476.987,133.422 476.159,134.25 474.296,134.664L474.296,135.492C475.331,135.492 478.436,135.285 479.264,135.285C480.092,135.285 483.197,135.492 484.232,135.492L484.232,134.664C482.576,134.25 481.541,133.422 481.541,131.973L481.541,109.204L487.544,109.204C489.407,109.204 490.855,109.825 491.683,112.516L492.511,112.516L492.511,106.72C490.234,106.927 488.786,107.134 479.056,107.134L479.057,107.134ZM401.02,132.18C401.02,133.629 401.848,134.457 403.711,134.871L403.711,135.699C402.676,135.699 399.571,135.492 398.743,135.492C397.915,135.492 395.017,135.699 393.982,135.699L393.982,134.871C395.638,134.457 396.466,133.836 396.466,132.18L396.466,110.239C396.466,108.79 395.638,107.962 393.982,107.755L393.982,106.927C395.017,106.927 397.915,107.134 398.743,107.134C400.192,107.134 404.125,106.927 405.781,106.927C412.612,106.927 416.338,109.825 416.338,114.586C416.338,118.312 413.44,121.003 409.093,122.038C409.093,122.038 410.128,122.659 411.163,123.694C412.405,125.143 415.717,129.697 416.959,131.353C418.201,133.009 420.064,134.872 421.927,134.872L421.927,135.493C421.099,135.7 419.65,135.907 418.615,135.907C416.338,135.907 414.475,135.079 412.612,133.009C410.956,131.146 408.472,127.213 406.816,125.143C405.781,123.901 404.539,122.866 402.469,122.452C402.055,122.452 401.641,122.245 401.227,122.245L401.02,132.18ZM401.02,120.588C401.848,120.795 403.297,120.795 404.539,120.795C409.921,120.795 411.577,117.69 411.577,114.999C411.577,111.066 409.093,108.79 404.332,108.79C403.297,108.79 402.055,108.997 401.02,109.204L401.02,120.588ZM333.126,110.445C332.505,108.996 331.47,107.961 329.814,107.754L329.814,106.926C330.849,106.926 334.368,107.133 335.196,107.133C335.817,107.133 338.922,106.926 339.957,106.926L339.957,107.754C339.129,107.961 337.887,108.375 337.887,109.41C337.887,110.031 338.301,111.066 339.129,112.722L346.581,129.489L353.619,112.722C354.24,111.273 354.654,110.238 354.654,109.617C354.654,108.789 353.826,108.168 352.584,107.961L352.584,106.926C353.412,106.926 355.688,107.133 356.516,107.133C357.137,107.133 359.828,106.926 360.863,106.926L360.863,107.754C359.207,108.168 357.965,109.203 357.137,111.48L346.787,135.698L344.511,135.698L333.126,110.445ZM359.621,34.064C358.379,31.373 356.516,29.51 353.618,28.889L353.618,27.44C355.481,27.44 361.898,27.647 363.347,27.647C364.589,27.647 370.799,27.44 372.869,27.44L372.869,28.889C371.213,29.303 369.143,30.131 369.143,31.994C369.143,33.236 369.971,35.099 371.42,38.204L385.496,70.081L398.744,38.204C399.779,35.72 400.607,33.65 400.607,32.201C400.607,30.545 398.951,29.303 396.881,28.889L396.881,27.44C398.744,27.44 402.884,27.647 404.333,27.647C405.575,27.647 410.543,27.44 412.613,27.44L412.613,28.889C409.301,29.717 407.231,31.787 405.368,35.927L385.91,81.88L381.563,81.88L359.621,34.064ZM171.251,80.017C173.735,79.396 175.598,78.361 175.598,75.463L175.598,33.443C175.598,30.752 173.942,29.51 171.251,28.889L171.251,27.233C172.493,27.233 178.289,27.44 179.738,27.44C181.394,27.44 187.397,27.233 188.639,27.233L188.639,28.682C186.155,29.303 184.292,30.338 184.292,33.236L184.292,51.038L215.755,51.038L215.755,33.443C215.755,30.545 214.099,29.303 211.408,28.889L211.408,27.233C212.65,27.233 218.653,27.44 220.309,27.44C221.758,27.44 227.553,27.233 229.002,27.233L229.002,28.682C226.519,29.303 224.656,30.338 224.656,33.236L224.656,75.256C224.656,77.947 226.312,79.189 229.002,79.81L229.002,81.259C227.76,81.259 221.758,81.052 220.309,81.052C218.653,81.052 212.857,81.259 211.408,81.259L211.408,80.017C213.892,79.396 215.755,78.361 215.755,75.463L215.755,55.591L184.292,55.591L184.292,75.463C184.292,78.361 185.948,79.396 188.639,80.017L188.639,81.466C187.397,81.466 181.187,81.259 179.738,81.259C178.289,81.259 172.7,81.466 171.251,81.466L171.251,80.017ZM533.911,80.017C537.223,79.396 538.879,78.154 538.879,75.256L538.879,33.443C538.879,30.545 537.016,29.303 533.911,28.889L533.911,27.233C535.774,27.233 541.57,27.44 543.226,27.44C545.917,27.44 553.162,26.819 558.958,26.819C578.209,26.819 590.007,37.583 590.007,53.935C590.007,69.874 577.794,81.672 557.923,81.672C552.127,81.672 545.503,81.259 542.812,81.259C541.156,81.259 535.774,81.465 533.911,81.465L533.911,80.017ZM547.573,77.326C549.643,77.74 553.162,77.947 556.06,77.947C572.206,77.947 580.692,68.219 580.692,54.557C580.692,40.481 571.791,30.546 556.681,30.546C553.576,30.546 549.643,30.753 547.573,31.167L547.573,77.326ZM315.533,75.049C315.533,77.74 317.396,79.396 320.501,80.017L320.501,81.466C318.638,81.466 312.842,81.259 310.979,81.259C309.53,81.259 303.734,81.466 301.871,81.466L301.871,80.017C304.976,79.396 306.632,77.947 306.632,75.049L306.632,33.65C306.632,31.167 305.183,29.511 301.871,28.89L301.871,27.234C303.734,27.234 309.323,27.441 310.979,27.441C313.67,27.441 321.122,27.027 324.227,27.027C337.268,27.027 344.513,32.408 344.513,41.517C344.513,48.761 339.131,53.523 330.851,55.593C330.851,55.593 332.714,56.628 334.577,58.904C336.854,61.595 343.271,70.703 345.755,73.808C348.239,76.913 351.551,80.432 355.07,80.432L355.07,81.674C353.414,82.088 350.723,82.295 348.653,82.295C344.306,82.295 340.787,80.639 337.268,76.499C334.37,72.98 329.195,65.321 326.297,61.595C324.434,59.111 322.157,57.248 318.017,56.627C317.189,56.42 316.361,56.42 315.533,56.213L315.533,75.049ZM315.533,53.108C317.189,53.315 319.88,53.522 322.364,53.522C332.507,53.522 335.612,47.727 335.612,42.551C335.612,35.307 330.644,30.752 321.95,30.752C320.087,30.752 317.396,30.959 315.533,31.373L315.533,53.108ZM486.513,75.049C486.513,77.74 488.376,79.396 491.481,80.017L491.481,81.466C489.618,81.466 483.822,81.259 482.166,81.259C480.717,81.259 474.921,81.466 473.058,81.466L473.058,80.017C476.163,79.396 477.819,77.947 477.819,75.049L477.819,33.65C477.819,31.167 476.37,29.511 473.058,28.89L473.058,27.234C474.921,27.234 480.51,27.441 482.166,27.441C484.857,27.441 492.309,27.027 495.207,27.027C508.248,27.027 515.493,32.408 515.493,41.517C515.493,48.761 510.111,53.523 501.831,55.593C501.831,55.593 503.694,56.628 505.557,58.904C507.834,61.595 514.251,70.703 516.735,73.808C519.219,76.913 522.531,80.432 526.05,80.432L526.05,81.674C524.394,82.088 521.703,82.295 519.633,82.295C515.286,82.295 511.767,80.639 508.248,76.499C505.35,72.98 500.175,65.321 497.277,61.595C495.414,59.111 493.137,57.248 488.997,56.627C488.169,56.42 487.341,56.42 486.513,56.213L486.513,75.049ZM486.513,53.108C488.169,53.315 490.86,53.522 493.344,53.522C503.487,53.522 506.592,47.727 506.592,42.551C506.592,35.307 501.624,30.752 492.93,30.752C491.067,30.752 488.376,30.959 486.513,31.373L486.513,53.108ZM236.873,80.017C240.392,79.19 242.255,76.913 243.497,74.015L260.885,32.202C261.713,30.546 262.541,27.027 262.541,27.027L267.509,27.027C267.509,27.027 268.337,30.546 269.165,32.409L287.588,74.222C288.83,77.119 290.279,79.189 294.005,80.017L294.005,81.466C291.935,81.466 285.932,81.259 284.483,81.259C283.034,81.259 277.238,81.466 275.168,81.466L275.168,80.017C277.859,79.396 278.687,77.947 278.687,76.706C278.687,75.671 278.273,74.222 277.652,72.98L273.719,64.079L253.433,64.079L249.914,73.187C249.5,74.222 249.086,75.671 249.086,76.706C249.086,78.155 249.914,79.396 252.812,80.224L252.812,81.673C250.949,81.673 246.188,81.466 245.153,81.466L237.287,81.673L236.873,80.017ZM271.441,59.731L262.747,39.652L254.674,59.731L271.441,59.731ZM409.091,80.017C412.61,79.19 414.473,76.913 415.715,74.015L433.103,32.202C433.931,30.546 434.759,27.027 434.759,27.027L439.727,27.027C439.727,27.027 440.555,30.546 441.383,32.409L459.806,74.222C461.048,77.119 462.497,79.189 466.223,80.017L466.223,81.466C464.153,81.466 458.15,81.259 456.701,81.259C455.252,81.259 449.456,81.466 447.386,81.466L447.386,80.017C450.077,79.396 450.905,77.947 450.905,76.706C450.905,75.671 450.491,74.222 449.87,72.98L445.937,64.079L425.651,64.079L422.132,73.187C421.718,74.222 421.304,75.671 421.304,76.706C421.304,78.155 422.132,79.396 425.03,80.224L425.03,81.673C423.167,81.673 418.406,81.466 417.371,81.466L409.505,81.673L409.505,80.017L409.091,80.017ZM443.452,59.731L434.758,39.652L426.685,59.731L443.452,59.731Z" style="fill:rgb(30,30,30);fill-rule:nonzero;"/></g></g></svg>