<?xml version="1.0" encoding="UTF-8" standalone="no"?><!DOCTYPE svg PUBLIC "-//W3C//DTD SVG 1.1//EN" "http://www.w3.org/Graphics/SVG/1.1/DTD/svg11.dtd"><svg width="523px" height="105px" version="1.1" xmlns="http://www.w3.org/2000/svg" xmlns:xlink="http://www.w3.org/1999/xlink" xml:space="preserve" xmlns:serif="http://www.serif.com/" style="fill-rule:evenodd;clip-rule:evenodd;stroke-linejoin:round;stroke-miterlimit:2;"><g transform="matrix(4.16667,0,0,4.16667,-4.06435,-5)"><path d="M126,16.2C124.8,14.8 123.1,14 121.3,14.1C118.5,14.1 116.2,15.2 116.2,17.8C116.2,22.1 123.3,20.5 123.3,22.5C123.3,23.1 122.4,23.8 121.1,23.8C119.8,23.9 118.6,23.4 117.8,22.4L115.7,24C117.2,25.5 119.2,26.2 121.2,26.1C123.8,26.1 126.3,24.9 126.3,22.1C126.3,17.8 119.1,19.5 119.1,17.5C119.1,16.8 119.9,16.4 121.2,16.4C122.4,16.3 123.5,17 124.1,18L126,16.2ZM111.8,21.8C111.8,23.3 110.1,23.9 108.9,23.9C107.9,23.9 107.1,23.3 107.1,22.5C107.1,21.4 108,21.1 109,20.9L110.5,20.6C111,20.5 111.4,20.4 111.8,20.2L111.8,21.8ZM114.5,17.9C114.5,14.6 112,14.1 109.6,14.1C107.1,14.1 104.7,15.1 104.7,17.8L107.5,17.9C107.5,16.7 108,16.2 109.6,16.2C110.8,16.2 111.8,16.5 111.8,17.7L111.8,18C110.8,18.3 109.8,18.5 108.8,18.7L107.6,18.9C105.9,19.2 104.1,20.2 104.1,22.5C104.1,24.5 105.7,26.1 107.7,26.1L108,26.1C109.4,26.1 110.7,25.6 111.7,24.8C111.7,25.2 111.8,25.5 112,25.8L114.9,25.8C114.6,25.2 114.4,24.5 114.5,23.9L114.5,17.9ZM85.7,25.9L88.5,25.9L88.5,19.9C88.5,18.3 89.4,16.8 90.9,16.8C92.2,16.8 92.8,17.7 92.8,19L92.8,26L95.6,26L95.6,20C95.6,18.4 96.5,16.9 98.1,16.9C99.4,16.9 100,17.8 100,19.1L100,26.1L102.8,26.1L102.8,18C102.8,15.5 101.3,14.3 98.8,14.3C97.4,14.3 96.1,14.9 95.3,16C94.6,14.8 93.3,14.1 91.9,14.3C90.6,14.3 89.4,14.8 88.6,15.7L88.6,14.6L85.8,14.6L85.8,25.9L85.7,25.9ZM78.8,16.7C80.8,16.7 81.8,18.4 81.8,20.2C81.8,22 80.8,23.7 78.8,23.7C76.8,23.7 75.8,22 75.8,20.2C75.8,18.4 76.8,16.7 78.8,16.7ZM78.8,14.2C75.1,14.2 72.9,16.8 72.9,20.2C72.9,23.6 75.1,26.2 78.8,26.2C82.5,26.2 84.7,23.6 84.7,20.2C84.7,16.8 82.5,14.2 78.8,14.2ZM61.1,25.9L63.9,25.9L63.9,20C63.9,18.6 64.5,16.8 66.6,16.8C68,16.8 68.6,17.5 68.6,19.1L68.6,25.9L71.4,25.9L71.4,18.3C71.4,15 69.2,14.2 67.2,14.2C65.9,14.1 64.7,14.6 63.9,15.6L63.9,9.8L61.1,9.8L61.1,25.9ZM52.6,25.9L55.6,25.9L55.6,12.6L60,12.6L60,9.8L48.1,9.8L48.1,12.6L52.5,12.6L52.6,25.9ZM44.7,25.9L47.7,25.9L47.7,22.8L44.7,22.8L44.7,25.9ZM38.2,14.4L36.5,14.4L36.5,16.4L38.2,16.4L38.2,23.2C38.2,24.9 39,26 41.2,26C41.9,26 42.7,25.9 43.4,25.7L43.4,23.4C43,23.5 42.6,23.5 42.2,23.5C41.1,23.5 41,23 41,22.1L41,16.3L43.5,16.3L43.5,14.3L41,14.3L41,10.2L38.2,10.2L38.2,14.4ZM22.2,22.9C23.8,25.1 26.4,26.4 29.2,26.3C32.6,26.3 36.3,24.9 36.3,21C36.3,17.9 34,17 31.6,16.4L29.6,16C27.8,15.6 26.3,15.3 26.3,13.9C26.3,12.8 27.6,12.1 29.4,12.1C31.1,12 32.8,12.9 33.6,14.4L36.1,12.5C34.5,10.4 32,9.2 29.4,9.3C26.4,9.3 23.1,10.9 23.1,14.3C23.1,17.3 25.4,18.2 27.9,18.8L29.7,19.2C31.8,19.7 33,20.1 33,21.3C33,22.9 31.1,23.4 29.6,23.4C27.7,23.5 25.8,22.6 24.7,21L22.2,22.9Z" style="fill:rgb(81,12,118);fill-rule:nonzero;"/><path d="M77.2,6.2L78.1,6.2L78.1,4.2L80.1,4.2L80.1,3.4L78.1,3.4L78.1,2.2L80.4,2.2L80.4,1.4L77.2,1.4L77.2,6.2ZM73.3,1.3C72,1.3 71,2.4 71,3.7L71,3.9C70.9,5.2 71.8,6.3 73.1,6.4C74.4,6.5 75.5,5.6 75.6,4.3L75.6,3.9C75.7,2.6 74.7,1.5 73.5,1.4C73.4,1.3 73.3,1.3 73.3,1.3ZM73.3,2.1C74.3,2.1 74.7,2.9 74.7,3.8C74.7,4.7 74.3,5.5 73.3,5.5C72.3,5.5 71.9,4.7 71.9,3.8C71.9,2.9 72.3,2.1 73.3,2.1ZM65.8,6.2L66.7,6.2L66.7,4.3L68.3,1.4L67.3,1.4L66.3,3.4L65.3,1.4L64.3,1.4L65.9,4.3L65.8,6.2ZM60.9,6.2L61.8,6.2L61.8,2.2L63.1,2.2L63.1,1.4L59.6,1.4L59.6,2.2L60.9,2.2L60.9,6.2ZM57.2,6.2L58.1,6.2L58.1,1.4L57.2,1.4L57.2,6.2ZM51.4,5.3C51.9,6 52.7,6.3 53.5,6.3C54.5,6.3 55.6,5.9 55.6,4.7C55.6,3.8 54.9,3.5 54.2,3.3L53.6,3.2C53.1,3.1 52.6,3 52.6,2.6C52.6,2.3 53,2.1 53.5,2.1C54,2.1 54.5,2.3 54.8,2.8L55.5,2.2C55,1.6 54.3,1.2 53.5,1.2C52.6,1.2 51.6,1.7 51.6,2.7C51.6,3.6 52.3,3.9 53,4L53.5,4.1C54.1,4.2 54.5,4.4 54.5,4.7C54.5,5.2 53.9,5.3 53.5,5.3C52.9,5.3 52.4,5 52,4.6L51.4,5.3ZM47.5,2.2L48.4,2.2C49,2.2 49.3,2.5 49.3,2.9C49.3,3.3 49,3.6 48.6,3.6L47.5,3.6L47.5,2.2ZM46.7,6.2L47.6,6.2L47.6,4.4L48.5,4.4L49.4,6.2L50.4,6.2L49.3,4.3C49.9,4.1 50.3,3.5 50.3,2.9C50.3,2.1 49.7,1.4 48.9,1.4L46.7,1.4L46.7,6.2ZM41.6,6.2L45.2,6.2L45.2,5.4L42.5,5.4L42.5,4.1L44.8,4.1L44.8,3.3L42.5,3.3L42.5,2.2L45,2.2L45,1.4L41.6,1.4L41.6,6.2ZM37.6,6.2L38.8,6.2L40.2,1.4L39.3,1.4L38.2,5.2L37.1,1.4L36.2,1.4L37.6,6.2ZM33.9,6.2L34.8,6.2L34.8,1.4L33.9,1.4L33.9,6.2ZM28.3,6.2L29.1,6.2L29.1,2.8L31.1,6.2L32,6.2L32,1.4L31.2,1.4L31.2,4.8L29.2,1.4L28.4,1.4L28.3,6.2ZM26.5,1.4L25.6,1.4L25.6,4.5C25.6,5.1 25.4,5.5 24.6,5.5C23.8,5.5 23.6,5.1 23.6,4.5L23.6,1.4L22.7,1.4L22.7,4.7C22.7,5.7 23.5,6.3 24.6,6.3C25.7,6.3 26.5,5.7 26.5,4.7L26.5,1.4Z" style="fill:rgb(158,40,181);fill-rule:nonzero;"/><path d="M18.7,11C18.5,11 18.4,11.1 18.3,11.2C17.7,11.7 16.8,11.7 16.2,11.2C15.7,10.9 15.1,10.9 14.6,11.2C14,11.7 13.1,11.7 12.5,11.2C12,10.9 11.4,10.9 10.9,11.2C10.7,11.3 10.6,11.4 10.4,11.5L10.4,15L9.4,15L9.4,11.5C9.2,11.5 9,11.4 8.9,11.2C8.7,11 8.4,10.9 8.1,10.9C7.8,10.9 7.5,11 7.3,11.2C7,11.4 6.6,11.6 6.2,11.6C5.8,11.6 5.4,11.5 5.1,11.2C5,11 4.7,10.9 4.4,10.9C4.1,10.9 3.8,11 3.6,11.2C3.3,11.4 2.9,11.6 2.5,11.6C2.1,11.6 1.7,11.5 1.5,11.2C1.3,11.1 1.2,11 1,11C0.9,13.1 1.1,15.1 1.7,17.1L7.1,17.1L7.1,17.6C7.1,17.8 7.1,18 7.2,18.1L2.1,18.1C3.5,21.6 6,24.4 9.3,26.2L9.3,20.2L10.3,20.2L10.3,26.2C13.6,24.5 16.2,21.6 17.5,18.1L12.4,18.1C12.4,17.9 12.5,17.8 12.5,17.6L12.5,17.1L18,17.1C18.6,15.1 18.8,13.1 18.7,11M6.9,12.7C7.1,13.1 7.5,13.4 7.9,13.6C8.4,13.8 8.9,14.2 9.1,14.7C9.2,14.8 9.2,14.9 9.3,15C8.9,15.1 8.4,15.3 8.1,15.6C8,15.5 8,15.3 8,15.2C7.9,14.7 7.7,14.2 7.3,13.8C7.1,13.5 6.9,13.1 6.9,12.7M6.9,16.5C6.7,16 6.3,15.7 5.8,15.4C5.5,15.2 5.2,14.9 5.1,14.5C5.4,14.8 5.9,15 6.3,15C6.9,15 7.4,15.3 7.8,15.7L7.9,15.8C7.6,16.1 7.4,16.6 7.2,17C7.1,16.8 7,16.7 6.9,16.5M5,20.6C5.4,20.4 5.7,20 5.9,19.6C6.1,19.1 6.5,18.6 7.1,18.4C7.2,18.3 7.3,18.3 7.4,18.2C7.5,18.6 7.7,19.1 8.1,19.4C7.9,19.5 7.8,19.5 7.6,19.5C7.1,19.6 6.6,19.8 6.2,20.2C5.7,20.5 5.4,20.6 5,20.6M8.8,20.6C8.3,20.8 8,21.2 7.7,21.7C7.5,22 7.2,22.3 6.8,22.4C7.1,22.1 7.2,21.6 7.3,21.2C7.3,20.6 7.6,20.1 8,19.7L8.1,19.6C8.4,19.9 8.9,20.1 9.3,20.2C9.1,20.4 9,20.5 8.8,20.6M10.9,14.5C11.4,14.3 11.7,13.9 12,13.4C12.2,13.1 12.5,12.8 12.9,12.7C12.6,13 12.5,13.5 12.4,13.9C12.4,14.5 12.1,15 11.7,15.4C11.7,15.4 11.6,15.5 11.6,15.6C11.3,15.3 10.8,15.1 10.4,15C10.6,14.8 10.7,14.7 10.9,14.5M12.8,22.5C12.6,22.1 12.2,21.8 11.8,21.6C11.3,21.4 10.8,21 10.6,20.5C10.5,20.4 10.5,20.3 10.4,20.2C10.8,20.1 11.3,19.9 11.6,19.6C11.7,19.7 11.7,19.9 11.7,20C11.8,20.5 12,21 12.4,21.4C12.6,21.7 12.8,22.1 12.8,22.5M12.8,18.7C13,19.2 13.4,19.5 13.9,19.8C14.2,20 14.5,20.3 14.6,20.7C14.2,20.4 13.8,20.3 13.4,20.2C12.8,20.2 12.3,19.9 11.9,19.5L11.8,19.4C12.1,19.1 12.3,18.7 12.5,18.2C12.6,18.4 12.7,18.5 12.8,18.7M13.9,15.5C13.7,16 13.3,16.5 12.7,16.7C12.6,16.8 12.5,16.8 12.4,16.9C12.3,16.5 12.1,16.1 11.8,15.8L11.7,15.7C11.9,15.6 12,15.6 12.2,15.6C12.7,15.6 13.2,15.3 13.6,14.9C13.9,14.7 14.3,14.5 14.7,14.5C14.4,14.8 14.1,15.1 13.9,15.5" style="fill:rgb(158,40,181);fill-rule:nonzero;"/><path d="M2.6,10.2C2.9,10.2 3.2,10.1 3.4,9.9C3.7,9.7 4.1,9.5 4.4,9.6C4.8,9.6 5.1,9.7 5.4,9.9C5.6,10.1 5.9,10.2 6.2,10.2C6.5,10.2 6.8,10.1 7,9.9C7.3,9.7 7.7,9.5 8,9.5C8.4,9.5 8.7,9.6 9,9.9C9.2,10.1 9.5,10.2 9.8,10.2C10.1,10.2 10.4,10.1 10.6,9.9C11.2,9.4 12,9.4 12.7,9.9C13.2,10.2 13.8,10.2 14.3,9.9C14.9,9.4 15.7,9.4 16.4,9.9C16.9,10.2 17.5,10.2 18,9.9C18.2,9.7 18.4,9.6 18.7,9.6L15.9,3.9C15.5,4.2 15,4.4 14.5,4.3C13.6,4.3 13.5,3.9 12.1,3.9C11.3,3.8 10.6,4.1 10,4.6C9.3,4.1 8.5,3.8 7.8,3.9C6.4,3.9 6.3,4.3 5.4,4.3C4.9,4.4 4.4,4.3 4,3.9L1.1,9.6C1.4,9.6 1.6,9.7 1.8,9.9C2.1,10.1 2.3,10.2 2.6,10.2ZM12.1,4.9C13.4,4.9 13.6,5.3 14.5,5.3C14.9,5.3 15.3,5.3 15.7,5.1L17.3,8.3C17.3,8.3 17.1,8.5 15.8,8.5C14.5,8.5 14.3,7.8 12.2,7.8C11.6,7.8 11.1,8 10.6,8.4L9.9,5.6C10.5,5.1 11.3,4.8 12.1,4.9ZM4.1,5.1C4.5,5.3 4.9,5.3 5.3,5.3C6.2,5.3 6.4,4.9 7.7,4.9C8.5,4.8 9.3,5.1 9.9,5.6L9.1,8.5C8.7,8.1 8.1,7.9 7.5,7.9C5.5,7.9 5.3,8.6 3.9,8.6C2.5,8.6 2.5,8.4 2.5,8.4L4.1,5.1Z" style="fill:rgb(158,40,181);fill-rule:nonzero;"/></g></svg>