<?xml version="1.0" encoding="UTF-8" standalone="no"?><!DOCTYPE svg PUBLIC "-//W3C//DTD SVG 1.1//EN" "http://www.w3.org/Graphics/SVG/1.1/DTD/svg11.dtd"><svg width="639px" height="121px" version="1.1" xmlns="http://www.w3.org/2000/svg" xmlns:xlink="http://www.w3.org/1999/xlink" xml:space="preserve" xmlns:serif="http://www.serif.com/" style="fill-rule:evenodd;clip-rule:evenodd;stroke-linejoin:round;stroke-miterlimit:2;"><g transform="matrix(4.16667,0,0,4.16667,0,-0.000225625)"><g transform="matrix(1,0,0,1,0,0.015)"><path d="M45.38,21.45L36.89,7.35L39.23,7.35L39.23,0L25.11,0L25.11,7.35L27.44,7.35L24.2,12.74L20.96,7.35L23.3,7.35L23.3,0L9.17,0L9.17,7.35L11.51,7.35L3.03,21.45L0,21.45L0,28.8L14.4,28.8L14.4,21.45L11.82,21.45L16.24,14.11L17.95,16.95L16.31,16.95L16.31,24.3L32.1,24.3L32.1,16.95L30.45,16.95L32.17,14.11L36.59,21.45L34,21.45L34,28.8L48.4,28.8L48.4,21.45L45.38,21.45Z" style="fill:rgb(122,0,25);fill-rule:nonzero;"/></g><g transform="matrix(0.219045,0,0,0.219045,58.1922,-29.3235)"><path d="M69.5,135.27L69.5,133.87L87.65,133.87L87.65,135.27L85.72,135.27C83.7,135.27 82.14,136.11 81.05,137.81C80.52,138.6 80.26,140.42 80.26,143.29L80.26,164.21C80.26,169.39 79.75,173.4 78.73,176.26C77.7,179.12 75.68,181.57 72.68,183.61C69.68,185.65 65.61,186.67 60.44,186.67C54.82,186.67 50.55,185.7 47.64,183.74C44.72,181.79 42.65,179.16 41.45,175.86C40.63,173.6 40.23,169.37 40.23,163.15L40.23,142.98C40.23,139.81 39.79,137.74 38.92,136.75C38.05,135.76 36.64,135.27 34.69,135.27L32.76,135.27L32.76,133.87L55.03,133.87L55.03,135.27L53.06,135.27C50.93,135.27 49.41,135.95 48.51,137.28C47.87,138.19 47.56,140.1 47.56,142.98L47.56,165.47C47.56,167.47 47.74,169.77 48.11,172.36C48.49,174.94 49.15,176.96 50.11,178.41C51.08,179.85 52.47,181.04 54.28,181.99C56.1,182.92 58.32,183.39 60.95,183.39C64.32,183.39 67.35,182.65 70.01,181.18C72.67,179.71 74.49,177.82 75.46,175.53C76.43,173.23 76.93,169.34 76.93,163.86L76.93,142.96C76.93,139.74 76.58,137.73 75.87,136.92C74.88,135.8 73.42,135.25 71.47,135.25L69.54,135.25L69.5,135.27ZM170.63,225.88L170.1,225.88C168.49,225.88 167.31,226.36 166.57,227.3C166.08,227.93 165.84,229.42 165.84,231.79L165.84,257.44C165.84,259.44 165.97,260.77 166.22,261.4C166.41,261.89 166.82,262.31 167.45,262.66C168.29,263.13 169.16,263.36 170.1,263.36L171.53,263.36L171.53,264.44L154.55,264.44L154.55,263.36L155.96,263.36C157.6,263.36 158.79,262.88 159.54,261.94C160.01,261.31 160.24,259.82 160.24,257.45L160.24,231.8C160.24,229.8 160.11,228.47 159.86,227.83C159.66,227.34 159.26,226.92 158.65,226.57C157.828,226.111 156.902,225.87 155.96,225.87L154.55,225.87L154.55,224.79L181.08,224.79L205.36,254.55L205.36,231.66C205.36,229.22 205.08,227.7 204.53,227.09C203.8,226.27 202.65,225.86 201.07,225.86L199.68,225.86L199.68,224.78L222.51,224.78L246.79,254.54L246.79,231.65C246.79,229.21 246.51,227.69 245.96,227.08C245.23,226.26 244.08,225.85 242.5,225.85L241.11,225.85L241.11,224.77L255.04,224.77L255.04,225.85L253.63,225.85C251.93,225.85 250.73,226.36 250.01,227.37C249.58,228 249.36,229.42 249.36,231.64L249.36,265.04L248.3,265.04L222.21,233.12L222.21,257.53C222.21,259.97 222.48,261.49 223.01,262.1C223.76,262.92 224.91,263.32 226.48,263.32L227.89,263.32L227.89,264.4L213.96,264.4L213.96,263.32L215.36,263.32C217.07,263.32 218.28,262.81 219,261.8C219.43,261.17 219.65,259.75 219.65,257.53L219.65,229.97C218.5,228.63 217.63,227.74 217.04,227.31C216.44,226.88 215.57,226.48 214.43,226.1L214.4,226.09L214.36,226.07L214.35,226.07L214.33,226.06L214.32,226.06L214.3,226.05L214.29,226.05L214.27,226.04L214.11,226.04L214.09,226.03L214.08,226.03L213.96,225.99L213.93,225.99L213.9,225.98L213.89,225.98L213.86,225.97L211.54,225.97L211.49,225.98L211.47,225.98L211.42,225.99L211.33,225.99L211.28,226L211.26,226L211.21,226.01L211.19,226.01L211.14,226.02L211.13,226.02L211.08,226.03L211.07,226.03L211.02,226.04L211.01,226.04L210.95,226.05L210.94,226.05L210.88,226.06L210.87,226.06L210.81,226.07L210.8,226.07L210.74,226.08L210.73,226.08L210.61,226.1L210.37,226.18L210.36,226.18L210.31,226.2L210.3,226.2L210.25,226.22L210.24,226.22L210.19,226.24L210.18,226.24L210.13,226.26L210.12,226.26L210.07,226.28L210.06,226.29L210.02,226.31L210.01,226.32L209.97,226.34L209.96,226.35L209.92,226.37L209.91,226.38L209.79,226.44L209.76,226.46L209.74,226.47L209.71,226.49L209.69,226.5L209.66,226.52L209.64,226.53L209.61,226.55L209.59,226.56L209.56,226.58L209.54,226.59L209.51,226.61L209.49,226.62L209.46,226.64L209.44,226.65L209.36,226.73L209.34,226.74L209.31,226.76L209.29,226.77L209.26,226.79L209.24,226.8L209.21,226.82L209.19,226.83L209.16,226.85L209.15,226.86L209.12,226.88L208.83,227.17L208.8,227.21L208.79,227.22L208.76,227.26L208.76,227.27L208.64,227.43L208.61,227.48C208.18,228.11 207.96,229.53 207.96,231.75L207.96,265.15L206.9,265.15L180.82,233.23L180.82,257.64C180.82,260.08 181.09,261.6 181.62,262.21C182.37,263.03 183.52,263.43 185.09,263.43L186.5,263.43L186.5,264.51L172.57,264.51L172.57,263.43L173.97,263.43C175.68,263.43 176.89,262.92 177.61,261.91C178.04,261.28 178.26,259.86 178.26,257.64L178.26,230.08C177.11,228.74 176.24,227.85 175.65,227.42C175.05,226.99 174.18,226.59 173.04,226.21L172.98,226.19L172.94,226.17L172.93,226.17L172.91,226.16L172.9,226.16L172.88,226.15L172.87,226.15L172.85,226.14L172.84,226.14L172.82,226.13L172.65,226.13L172.63,226.12L172.62,226.12L172.6,226.11L172.59,226.11L172.57,226.1L172.49,226.1L172.43,226.08L172.4,226.08L172.37,226.07L170.67,226.07L170.63,225.88ZM82.66,146.14L93.31,146.14L117.59,175.9L117.59,153.01C117.59,150.57 117.31,149.05 116.76,148.44C116.03,147.62 114.88,147.21 113.3,147.21L111.9,147.21L111.9,146.13L125.83,146.13L125.83,147.21L124.42,147.21C122.71,147.21 121.52,147.72 120.8,148.73C120.37,149.36 120.15,150.78 120.15,153L120.15,186.4L119.09,186.4L93.01,154.48L93.01,178.89C93.01,181.33 93.28,182.86 93.81,183.47C94.56,184.29 95.71,184.69 97.28,184.69L98.69,184.69L98.69,185.77L84.76,185.77L84.76,184.69L86.15,184.69C87.86,184.69 89.07,184.18 89.79,183.17C90.22,182.54 90.44,181.12 90.44,178.89L90.44,151.33C89.29,149.99 88.42,149.1 87.83,148.67C87.23,148.24 86.37,147.84 85.22,147.46C84.65,147.29 83.8,147.2 82.65,147.2L82.65,146.12L82.66,146.14ZM19.74,223.91C24.87,223.91 29.32,225.86 33.08,229.77C36.85,233.68 38.73,238.55 38.73,244.39C38.73,250.41 36.84,255.4 33.04,259.38C29.25,263.36 24.66,265.34 19.27,265.34C13.83,265.34 9.26,263.4 5.55,259.52C1.84,255.64 -0.01,250.63 -0.01,244.48C-0.01,238.19 2.13,233.06 6.41,229.09C10.13,225.64 14.57,223.92 19.74,223.92L19.74,223.91ZM114.79,265.34L94.85,221.9L94.85,256.39C94.85,259.57 95.2,261.56 95.89,262.35C96.84,263.41 98.34,263.95 100.41,263.95L102.25,263.95L102.25,265.35L84.1,265.35L84.1,263.95L85.96,263.95C88.17,263.95 89.72,263.29 90.66,261.96C91.22,261.14 91.5,259.29 91.5,256.39L91.5,222.67C91.5,220.39 91.24,218.72 90.73,217.71C90.37,216.97 89.7,216.36 88.74,215.85C87.77,215.36 86.22,215.11 84.09,215.11L84.09,213.71L98.89,213.71L117.5,254.08L135.95,213.71L150.6,213.71L150.6,215.11L148.8,215.11C146.56,215.11 144.98,215.77 144.05,217.1C143.49,217.92 143.21,219.78 143.21,222.67L143.21,256.39C143.21,259.57 143.57,261.56 144.29,262.35C145.24,263.41 146.74,263.95 148.81,263.95L150.61,263.95L150.61,265.35L128.49,265.35L128.49,263.95L130.35,263.95C132.58,263.95 134.14,263.29 135.05,261.96C135.61,261.14 135.89,259.29 135.89,256.39L135.89,221.9L116.03,265.34L114.78,265.34L114.79,265.34ZM419.22,251.23L403.84,251.23L401.19,257.44C400.53,258.98 400.19,260.13 400.19,260.89C400.19,261.49 400.48,262.02 401.06,262.48C401.63,262.93 402.87,263.23 404.78,263.37L404.78,264.45L392.29,264.45L392.29,263.37C393.94,263.08 395.01,262.7 395.5,262.23C396.49,261.29 397.59,259.39 398.8,256.53L412.74,223.91L413.73,223.91L427.51,256.88C428.62,259.53 429.62,261.24 430.53,262.04C431.44,262.83 432.69,263.27 434.32,263.36L434.32,264.44L418.7,264.44L418.7,263.36C420.27,263.28 421.34,263.02 421.9,262.57C422.46,262.12 422.73,261.57 422.73,260.93C422.73,260.07 422.34,258.72 421.56,256.87L419.22,251.23ZM418.29,249.08L411.61,233.09L404.76,249.08L418.29,249.08ZM396.41,224.81L396.83,234.13L395.72,234.13C395.5,232.5 395.21,231.32 394.84,230.62C394.23,229.49 393.44,228.66 392.43,228.13C391.42,227.59 390.11,227.32 388.47,227.32L382.89,227.32L382.89,257.57C382.89,260.01 383.15,261.53 383.68,262.14C384.42,262.96 385.55,263.36 387.09,263.36L388.46,263.36L388.46,264.44L371.6,264.44L371.6,263.36L373.03,263.36C374.72,263.36 375.92,262.85 376.64,261.84C377.07,261.21 377.29,259.79 377.29,257.57L377.29,227.32L372.54,227.32C370.69,227.32 369.37,227.46 368.59,227.73C367.57,228.1 366.72,228.81 365.99,229.86C365.27,230.91 364.84,232.33 364.7,234.12L363.59,234.12L364.01,224.8L396.41,224.8L396.41,224.81ZM342.2,223.91C347.33,223.91 351.78,225.86 355.54,229.77C359.31,233.68 361.19,238.55 361.19,244.39C361.19,250.41 359.3,255.4 355.5,259.38C351.71,263.36 347.12,265.34 341.73,265.34C336.29,265.34 331.72,263.4 328.01,259.52C324.3,255.64 322.45,250.63 322.45,244.48C322.45,238.19 324.59,233.06 328.87,229.09C332.59,225.64 337.03,223.92 342.2,223.92L342.2,223.91ZM341.64,226C338.11,226 335.27,227.32 333.14,229.94C330.48,233.22 329.14,238.01 329.14,244.33C329.14,250.8 330.51,255.78 333.27,259.27C335.39,261.92 338.18,263.24 341.66,263.24C345.38,263.24 348.44,261.79 350.86,258.89C353.28,255.98 354.49,251.41 354.49,245.15C354.49,238.37 353.15,233.3 350.5,229.98C348.37,227.33 345.42,226 341.64,226ZM316.29,223.91L316.29,237.6L315.21,237.6C314.86,234.97 314.23,232.88 313.33,231.32C312.42,229.77 311.13,228.53 309.44,227.61C307.77,226.69 306.03,226.23 304.24,226.23C302.21,226.23 300.53,226.85 299.21,228.08C297.88,229.32 297.22,230.73 297.22,232.31C297.22,233.52 297.64,234.62 298.48,235.62C299.69,237.07 302.56,239.03 307.11,241.46C310.82,243.45 313.35,244.98 314.7,246.03C316.05,247.1 317.1,248.34 317.83,249.79C318.56,251.24 318.93,252.74 318.93,254.32C318.93,257.32 317.76,259.9 315.44,262.07C313.11,264.24 310.11,265.33 306.45,265.33C305.29,265.33 304.22,265.24 303.2,265.06C302.59,264.96 301.35,264.6 299.44,263.98C297.55,263.36 296.34,263.05 295.83,263.05C295.34,263.05 294.95,263.2 294.67,263.49C294.39,263.79 294.18,264.4 294.04,265.32L292.96,265.32L292.96,251.75L294.04,251.75C294.55,254.59 295.23,256.72 296.08,258.13C296.94,259.54 298.25,260.72 300.02,261.65C301.78,262.59 303.72,263.05 305.82,263.05C308.25,263.05 310.18,262.4 311.59,261.12C313,259.82 313.71,258.3 313.71,256.55C313.71,255.57 313.44,254.59 312.91,253.59C312.37,252.59 311.54,251.67 310.42,250.8C309.66,250.21 307.58,248.98 304.18,247.08C300.78,245.2 298.36,243.68 296.93,242.56C295.49,241.44 294.4,240.18 293.66,238.82C292.91,237.45 292.54,235.95 292.54,234.32C292.54,231.48 293.64,229.03 295.82,226.98C298,224.93 300.79,223.9 304.16,223.9C306.27,223.9 308.5,224.42 310.87,225.44C311.97,225.93 312.73,226.17 313.18,226.17C313.69,226.17 314.11,226.02 314.42,225.72C314.74,225.41 315,224.81 315.2,223.9L316.28,223.9L316.29,223.91ZM266.57,226.95L266.57,242.62L275.3,242.62C277.56,242.62 279.07,242.28 279.82,241.6C280.84,240.7 281.39,239.13 281.51,236.88L282.59,236.88L282.59,250.69L281.51,250.69C281.24,248.76 280.96,247.51 280.69,246.96C280.34,246.28 279.76,245.74 278.97,245.36C278.17,244.97 276.95,244.77 275.29,244.77L266.56,244.77L266.56,257.84C266.56,259.59 266.64,260.66 266.79,261.04C266.95,261.42 267.22,261.73 267.61,261.95C268,262.18 268.75,262.29 269.83,262.29L276.54,262.29C278.77,262.29 280.4,262.13 281.41,261.82C282.42,261.51 283.39,260.89 284.32,259.98C285.53,258.77 286.76,256.95 288.03,254.52L289.23,254.52L285.81,264.44L255.27,264.44L255.27,263.36L256.67,263.36C257.61,263.36 258.49,263.13 259.33,262.68C259.96,262.37 260.39,261.9 260.61,261.27C260.84,260.64 260.95,259.37 260.95,257.44L260.95,231.67C260.95,229.16 260.7,227.62 260.19,227.04C259.48,226.26 258.32,225.87 256.67,225.87L255.27,225.87L255.27,224.79L285.82,224.79L286.24,233.52L285.1,233.52C284.69,231.42 284.24,229.97 283.75,229.19C283.25,228.4 282.51,227.8 281.55,227.39C280.77,227.1 279.4,226.95 277.43,226.95L266.57,226.95ZM53.32,226.96L53.32,242.5L60.49,242.5C62.15,242.5 63.38,242.14 64.15,241.42C64.93,240.69 65.43,239.25 65.69,237.06L66.77,237.06L66.77,250.51L65.69,250.51C65.67,248.98 65.47,247.84 65.09,247.12C64.7,246.39 64.17,245.85 63.5,245.49C62.82,245.12 61.83,244.94 60.49,244.94L53.32,244.94L53.32,257.43C53.32,259.43 53.45,260.76 53.7,261.39C53.89,261.88 54.3,262.3 54.91,262.65C55.76,263.12 56.65,263.35 57.58,263.35L58.99,263.35L58.99,264.43L42.01,264.43L42.01,263.35L43.42,263.35C45.06,263.35 46.25,262.87 47,261.93C47.47,261.3 47.7,259.81 47.7,257.44L47.7,231.79C47.7,229.79 47.57,228.46 47.32,227.82C47.12,227.33 46.72,226.91 46.11,226.56C45.29,226.096 44.362,225.855 43.42,225.86L42.01,225.86L42.01,224.78L71.42,224.78L71.84,233.51L70.82,233.51C70.31,231.65 69.72,230.28 69.06,229.41C68.38,228.54 67.56,227.91 66.58,227.52C65.59,227.13 64.08,226.93 62.02,226.93L53.31,226.93L53.32,226.96ZM19.17,226C15.64,226 12.8,227.32 10.67,229.94C8.01,233.22 6.68,238.01 6.68,244.33C6.68,250.8 8.05,255.78 10.81,259.27C12.93,261.92 15.72,263.24 19.2,263.24C22.92,263.24 25.98,261.79 28.4,258.89C30.82,255.98 32.03,251.41 32.03,245.15C32.03,238.37 30.69,233.3 28.03,229.98C25.9,227.33 22.95,226 19.17,226ZM384.3,146.14L398.12,146.14L398.12,147.22L397.36,147.22C396.85,147.22 396.11,147.45 395.14,147.9C394.16,148.35 393.29,149 392.48,149.83C391.68,150.67 390.71,152.04 389.54,153.93L380.01,168.82L380.01,178.9C380.01,181.34 380.29,182.87 380.84,183.48C381.59,184.3 382.77,184.7 384.39,184.7L385.69,184.7L385.69,185.78L368.71,185.78L368.71,184.7L370.13,184.7C371.82,184.7 373.02,184.19 373.74,183.18C374.17,182.55 374.39,181.13 374.39,178.9L374.39,169.63L363.55,152.87C362.26,150.94 361.4,149.72 360.94,149.24C360.48,148.75 359.53,148.17 358.09,147.5C357.7,147.31 357.14,147.21 356.4,147.21L356.4,146.13L373.3,146.13L373.3,147.21L372.42,147.21C371.5,147.21 370.66,147.43 369.89,147.86C369.12,148.29 368.74,148.93 368.74,149.78C368.74,150.49 369.34,151.75 370.53,153.59L378.73,166.36L386.54,154.14C387.72,152.31 388.29,150.94 388.29,150.05C388.29,149.5 388.15,149.01 387.87,148.58C387.58,148.15 387.18,147.81 386.65,147.57C386.12,147.32 385.33,147.2 384.29,147.2L384.29,146.12L384.3,146.14ZM353.84,146.14L354.26,155.46L353.15,155.46C352.93,153.83 352.64,152.65 352.27,151.95C351.66,150.83 350.87,149.99 349.86,149.46C348.85,148.92 347.54,148.65 345.9,148.65L340.32,148.65L340.32,178.9C340.32,181.34 340.58,182.87 341.11,183.48C341.85,184.3 342.98,184.7 344.52,184.7L345.89,184.7L345.89,185.78L329.03,185.78L329.03,184.7L330.46,184.7C332.15,184.7 333.35,184.19 334.07,183.18C334.5,182.55 334.72,181.13 334.72,178.9L334.72,148.65L329.97,148.65C328.12,148.65 326.8,148.79 326.02,149.06C325,149.43 324.15,150.14 323.42,151.19C322.7,152.24 322.27,153.66 322.13,155.46L321.02,155.46L321.44,146.14L353.84,146.14ZM317.79,184.69L317.79,185.78L300.81,185.78L300.81,184.7L302.22,184.7C303.86,184.7 305.05,184.22 305.8,183.28C306.27,182.65 306.5,181.16 306.5,178.79L306.5,153.14C306.5,151.14 306.37,149.81 306.12,149.17C305.92,148.68 305.52,148.26 304.91,147.91C304.088,147.451 303.162,147.21 302.22,147.21L300.81,147.21L300.81,146.13L317.79,146.13L317.79,147.21L316.36,147.21C314.75,147.21 313.57,147.69 312.83,148.63C312.34,149.26 312.1,150.75 312.1,153.12L312.1,178.77C312.1,180.77 312.23,182.1 312.48,182.73C312.67,183.22 313.08,183.64 313.71,183.99C314.55,184.46 315.42,184.69 316.36,184.69L317.79,184.69ZM293.51,145.24L293.51,158.93L292.43,158.93C292.08,156.3 291.45,154.21 290.55,152.65C289.64,151.1 288.35,149.86 286.66,148.94C284.99,148.02 283.25,147.56 281.46,147.56C279.43,147.56 277.75,148.18 276.43,149.41C275.11,150.64 274.44,152.06 274.44,153.64C274.44,154.85 274.86,155.95 275.7,156.95C276.92,158.4 279.79,160.36 284.33,162.79C288.04,164.78 290.57,166.31 291.92,167.36C293.27,168.43 294.32,169.67 295.05,171.12C295.78,172.57 296.14,174.07 296.14,175.65C296.14,178.65 294.98,181.23 292.65,183.4C290.32,185.57 287.32,186.66 283.66,186.66C282.5,186.66 281.43,186.57 280.41,186.39C279.8,186.29 278.56,185.93 276.65,185.31C274.76,184.69 273.55,184.38 273.04,184.38C272.55,184.38 272.16,184.53 271.88,184.82C271.6,185.12 271.39,185.73 271.25,186.65L270.17,186.65L270.17,173.08L271.25,173.08C271.76,175.92 272.44,178.05 273.29,179.46C274.15,180.87 275.46,182.05 277.22,182.98C278.98,183.92 280.92,184.38 283.02,184.38C285.45,184.38 287.38,183.73 288.79,182.45C290.2,181.15 290.91,179.63 290.91,177.88C290.91,176.9 290.64,175.92 290.11,174.92C289.57,173.92 288.74,173 287.62,172.13C286.86,171.54 284.78,170.31 281.38,168.41C277.98,166.53 275.56,165.01 274.13,163.89C272.7,162.76 271.6,161.51 270.86,160.15C270.11,158.78 269.74,157.28 269.74,155.65C269.74,152.81 270.84,150.36 273.02,148.31C275.2,146.26 277.99,145.23 281.36,145.23C283.47,145.23 285.7,145.75 288.07,146.77C289.17,147.26 289.93,147.5 290.38,147.5C290.89,147.5 291.31,147.35 291.63,147.05C291.95,146.74 292.21,146.14 292.41,145.23L293.49,145.23L293.51,145.24ZM266.63,185.77L256.02,185.77L242.56,167.24C241.59,167.28 240.81,167.3 240.2,167.3C239.95,167.3 239.68,167.29 239.4,167.28C239.11,167.27 238.82,167.26 238.51,167.24L238.51,178.78C238.51,181.27 238.78,182.81 239.33,183.41C240.07,184.27 241.17,184.69 242.65,184.69L244.19,184.69L244.19,185.77L227.21,185.77L227.21,184.69L228.69,184.69C230.36,184.69 231.56,184.14 232.28,183.06C232.69,182.46 232.89,181.03 232.89,178.78L232.89,153.13C232.89,150.64 232.62,149.09 232.07,148.5C231.31,147.64 230.19,147.22 228.69,147.22L227.21,147.22L227.21,146.14L241.64,146.14C245.85,146.14 248.95,146.45 250.95,147.06C252.95,147.68 254.65,148.82 256.03,150.46C257.43,152.11 258.12,154.07 258.12,156.35C258.12,158.79 257.32,160.9 255.74,162.7C254.15,164.49 251.69,165.76 248.36,166.51L256.56,177.86C258.43,180.47 260.04,182.21 261.38,183.07C262.71,183.94 264.47,184.48 266.63,184.71L266.63,185.79L266.63,185.77ZM238.51,165.38C238.88,165.38 239.2,165.38 239.47,165.39C239.74,165.4 239.96,165.41 240.13,165.41C243.87,165.41 246.69,164.59 248.58,162.96C250.48,161.32 251.43,159.23 251.43,156.7C251.43,154.23 250.66,152.22 249.14,150.66C247.6,149.12 245.57,148.34 243.05,148.34C241.93,148.34 240.42,148.52 238.52,148.88L238.52,165.38L238.51,165.38ZM202.17,148.27L202.17,163.94L210.9,163.94C213.16,163.94 214.67,163.6 215.42,162.92C216.44,162.02 216.99,160.45 217.11,158.2L218.19,158.2L218.19,172.01L217.11,172.01C216.84,170.08 216.56,168.83 216.29,168.28C215.94,167.6 215.36,167.07 214.57,166.68C213.77,166.29 212.55,166.09 210.89,166.09L202.16,166.09L202.16,179.16C202.16,180.91 202.24,181.98 202.39,182.36C202.55,182.74 202.82,183.05 203.21,183.27C203.6,183.5 204.35,183.61 205.43,183.61L212.14,183.61C214.37,183.61 216,183.45 217.01,183.14C218.02,182.83 218.99,182.21 219.92,181.3C221.13,180.09 222.36,178.27 223.63,175.84L224.83,175.84L221.41,185.76L190.87,185.76L190.87,184.68L192.28,184.68C193.22,184.68 194.1,184.45 194.94,184C195.57,183.69 196,183.22 196.22,182.59C196.45,181.96 196.56,180.69 196.56,178.76L196.56,152.99C196.56,150.48 196.31,148.94 195.8,148.36C195.09,147.58 193.93,147.19 192.28,147.19L190.87,147.19L190.87,146.11L221.42,146.11L221.84,154.84L220.7,154.84C220.29,152.74 219.84,151.29 219.35,150.51C218.85,149.72 218.12,149.12 217.15,148.71C216.37,148.42 215,148.27 213.03,148.27L202.17,148.27ZM188.92,146.13L188.92,147.21C187.53,147.47 186.46,147.92 185.74,148.56C184.71,149.52 183.8,150.99 183,152.97L169.24,186.66L168.16,186.66L153.34,152.53C152.58,150.77 152.04,149.69 151.74,149.3C151.25,148.69 150.65,148.21 149.94,147.87C149.23,147.53 148.28,147.31 147.07,147.21L147.07,146.13L163.23,146.13L163.23,147.21C161.4,147.39 160.21,147.7 159.66,148.15C159.12,148.6 158.84,149.17 158.84,149.87C158.84,150.84 159.29,152.36 160.18,154.42L170.25,177.62L179.6,154.7C180.52,152.44 180.98,150.87 180.98,150C180.98,149.44 180.69,148.89 180.13,148.39C179.56,147.87 178.61,147.5 177.27,147.29C177.17,147.27 177,147.24 176.77,147.2L176.77,146.12L188.9,146.12L188.92,146.13ZM145.07,184.68L145.07,185.77L128.09,185.77L128.09,184.69L129.49,184.69C131.14,184.69 132.32,184.21 133.07,183.27C133.54,182.64 133.77,181.15 133.77,178.78L133.77,153.13C133.77,151.13 133.64,149.8 133.39,149.16C133.19,148.67 132.79,148.25 132.18,147.9C131.358,147.441 130.432,147.2 129.49,147.2L128.09,147.2L128.09,146.12L145.07,146.12L145.07,147.2L143.64,147.2C142.03,147.2 140.85,147.68 140.11,148.62C139.62,149.25 139.38,150.74 139.38,153.11L139.38,178.76C139.38,180.76 139.51,182.09 139.76,182.72C139.95,183.21 140.36,183.63 140.99,183.98C141.83,184.45 142.7,184.68 143.64,184.68L145.07,184.68Z" style="fill:rgb(134,35,52);"/></g></g></svg>