<?xml version="1.0" encoding="UTF-8" standalone="no"?><!DOCTYPE svg PUBLIC "-//W3C//DTD SVG 1.1//EN" "http://www.w3.org/Graphics/SVG/1.1/DTD/svg11.dtd"><svg width="8450px" height="2357px" version="1.1" xmlns="http://www.w3.org/2000/svg" xmlns:xlink="http://www.w3.org/1999/xlink" xml:space="preserve" xmlns:serif="http://www.serif.com/" style="fill-rule:evenodd;clip-rule:evenodd;stroke-linejoin:round;stroke-miterlimit:2;"><g transform="matrix(3.125,0,0,3.125,-2.75286e-19,0)"><g transform="matrix(5.09657,0,0,5.09657,-163.568,-11.4539)"><path d="M456.7,144.8L456.7,144.9L410.5,144.9L410.5,140.7C422.2,140.7 425.4,138 425.4,129.9L425.4,84.7C425.4,70.8 415.4,64.9 406.1,64.9C397.5,64.9 390,70.3 381.4,81.8L381.4,124C381.4,137.2 383.1,140.6 396.1,140.6L396.1,144.8L350.4,144.8L350.4,140.6C361.9,140.6 364.8,139.6 364.8,124L364.8,75.4C364.8,64.9 362.1,62.7 350.4,62.7L350.4,58.5L377.3,55.8L381.5,55.8L381.5,73.2C391.8,61.5 401.8,55.8 412.8,55.8C427.2,55.8 442.1,66.1 442.1,86.9L442.1,126L442,126C442,137.077 444.445,140.622 456.3,140.699L456.3,140.6C467.8,140.6 470.7,139.6 470.7,124L470.7,75.4C470.7,64.9 468,62.7 456.3,62.7L456.3,58.5L483.2,55.8L487.4,55.8L487.4,73.2C497.7,61.5 507.7,55.8 518.7,55.8C533.1,55.8 548,66.1 548,86.9L548,126L547.9,126C547.9,137.2 550.3,140.7 562.6,140.7L562.6,144.9L516.4,144.9L516.4,140.7C528.1,140.7 531.3,138 531.3,129.9L531.3,84.7C531.3,70.8 521.3,64.9 512,64.9C503.4,64.9 495.9,70.3 487.3,81.8L487.3,124C487.3,137.2 489,140.6 502,140.6L502,144.8L456.7,144.8ZM210.4,118.4C210.4,135.8 214.6,140.7 226.3,140.7L226.3,144.9L175.9,144.9L175.9,140.7C185.7,140.7 191.8,137.5 191.8,118.9L191.8,31.1C191.8,14 187.6,8.8 175.9,8.8L175.9,4.7L227,4.7C265.6,4.7 281.3,25.2 281.3,44.6C281.3,67.8 263.7,80.8 231.9,80.8C225.8,80.8 220.7,80.6 210.4,79.3L210.4,118.4ZM210.4,72.9C216.8,75.1 220.4,75.3 227.8,75.3C248.6,75.3 261.8,64.1 261.8,45C261.8,30.1 253.5,10 227.8,10L210.4,10L210.4,72.9ZM284.5,92C284,130.9 307.2,140.7 319,140.7C331,140.7 337.1,136.5 349.6,122.6L349.6,129C339.1,142.5 329.1,147.6 313.9,147.6C286.8,147.6 267.2,128.8 267.2,102.6C267.2,76.4 286.3,55.9 310.7,55.9C330.8,55.9 349.3,72 348.1,92.1L284.5,92.1L284.5,92ZM331.7,87.8C332.4,68.7 319.5,60.9 308.5,60.9C294.1,60.9 285.5,71.7 284.5,87.8L331.7,87.8Z" style="fill:rgb(1,31,91);"/></g><g transform="matrix(4.16667,0,0,4.16667,0.00162924,0)"><path d="M158.9,0L0,0L0,79.2C-0.1,113.7 19,138.7 35.1,153.6C52.8,170 72.2,179.4 78.7,180.8L79.5,181L80.3,180.8C86.8,179.4 106.3,169.9 123.9,153.6C140,138.7 159.1,113.7 159,79.2C158.9,78.2 158.9,0 158.9,0Z" style="fill:white;fill-rule:nonzero;"/><path d="M149.2,33.2C149.4,33.4 149.7,33.6 149.8,33.8C150,34.1 150.1,34.4 150.1,34.7C150.1,35 150,35.3 149.8,35.6C149.6,35.9 149.4,36 149.2,36.2C148.8,36.5 148.5,36.7 148.5,37.2L148.5,40L115.1,40L115.1,37.2C115.1,36.7 114.8,36.5 114.4,36.2C114.2,36 113.9,35.8 113.8,35.6C113.6,35.3 113.5,35 113.5,34.7C113.5,34.4 113.6,34.1 113.8,33.8C114,33.5 114.2,33.4 114.4,33.2C114.8,32.9 115.1,32.7 115.1,32.2L115.1,23C115.1,22.5 114.8,22.3 114.4,22C114.2,21.8 113.9,21.6 113.8,21.4C113.6,21.1 113.5,20.8 113.5,20.5C113.5,20.2 113.6,19.9 113.8,19.6C114,19.3 114.2,19.2 114.4,19C114.8,18.7 115.1,18.5 115.1,18L115.1,15L115.5,15C117.4,15 119.2,15 120.3,14.4C120.8,14.2 121.2,13.9 121.7,13.6C122.7,13 123.9,12.2 125.6,12.2C127,12.2 128.3,12.7 129.4,13.2C130.2,13.5 131,13.8 131.5,13.8L131.7,13.8C132.3,13.8 133,13.5 133.8,13.2C134.9,12.7 136.2,12.2 137.6,12.2C139.3,12.2 140.5,12.9 141.5,13.6C142,13.9 142.4,14.2 142.9,14.4C144.1,14.9 145.8,15 147.7,15L148.1,15L148.1,17.9C148.1,18.4 148.4,18.6 148.8,18.9C149,19.1 149.3,19.3 149.4,19.5C149.6,19.8 149.7,20.1 149.7,20.4C149.7,20.7 149.6,21 149.4,21.3C149.2,21.6 149,21.7 148.8,21.9C148.4,22.2 148.1,22.4 148.1,22.9L148.1,32.1C148.5,32.6 148.8,32.9 149.2,33.2ZM108.3,38C105.7,42.1 100.7,43.1 100.5,43.2C99.5,43.4 98.5,43.5 97.5,43.5C92.3,43.5 87.5,41.2 82.6,38.7C82.1,38.4 81.4,38.1 80.8,37.7C77.7,36 73.4,33.6 69.7,33.6C68.6,33.6 67.6,33.8 66.7,34.3L66.5,34.4L66.5,34.6C66.5,35.1 66.4,35.5 66.2,36C65.6,37.6 63.7,39.2 62.8,39.9C60.7,41.4 58,43 54.8,43C54.3,43 53.9,42.9 53.5,42.8C52.9,42.6 52.4,42.2 52,41.8C51.8,41.6 51.7,41.3 51.6,41C51.5,40.8 51.4,40.5 51.4,40.3L51.4,40.1L51.2,40C49.9,39.6 49.2,38.8 49.2,37.8C49.2,37 49.8,36.4 50.3,35.7C51.1,34.7 51.9,33.8 50.7,32.7C50.6,32.6 50.5,32.5 50.3,32.4C50.1,32.3 50,32.2 49.8,32C48.8,30.9 49.4,28.5 49.7,27.2L49.7,27C50.1,25.5 50.7,23.9 51.6,22.2C52.8,19.9 54.2,17.2 56.2,15.6L56.3,15.6C56.4,15.6 56.4,15.6 56.4,15.7C56.4,15.8 56.7,16.1 57,16.6L57.3,17.2L57.5,16.6C58.1,15 59,13.9 60.2,13.4C61.5,12.9 62.8,13.6 63.4,14L63.7,14.2L63.9,13.9C64.3,13.3 65,12.5 66.3,12.4C67.6,12.3 68.7,13.3 69.3,13.8L69.5,14L69.7,13.8C70.3,13.3 71.9,12.1 73.5,12.4C75,12.6 75.6,13.9 75.7,14.5L75.8,14.8L76.1,14.6C76.8,14.3 78.2,13.8 79.5,14.6C80.3,15.1 80.4,16 80.4,16.7L80.4,17.1L80.8,17C81.8,16.8 83.6,16.7 84.6,17.8C85.4,18.7 85.5,19.8 85.4,20.5L85.4,20.9L85.8,20.9C86.6,20.8 87.8,20.9 88.4,21.8C88.8,22.4 88.7,23.4 88.5,23.8L88.3,24L88.6,24.1C89.1,24.2 90,24.5 90.2,25.2C90.4,25.7 90.3,26.6 90,27.6L89.9,27.9L90.2,28C90.6,28.2 91.4,28.6 91.8,29.4C92.2,30.2 92.2,31.2 91.7,32.4L91.6,32.6L91.8,32.7C92.9,33.7 94,34.6 95.1,35.4C97.3,37 100.8,37.9 103.1,35.9C104,35.2 104.4,33.8 104.1,32.6C103.8,31.5 103.1,30.7 102.1,30.5C100.3,30.1 98.9,31.8 97.8,33.5C97.8,33.6 97.7,33.6 97.6,33.6C97.5,33.6 97.5,33.6 97.5,33.5C96.4,31 96.4,28.9 97.3,27.3C98.1,25.9 99.7,25 101.6,24.7L101.9,24.7L101.9,24.4C101.9,21.4 102.6,19.2 104,17.9C104.9,17.1 106.5,16.2 109.2,16.6C109.3,16.6 109.3,16.6 109.3,16.7L109.3,16.9C107.3,21.7 107.8,23.5 108.9,27.4C109,27.7 109.1,28.1 109.2,28.5C110.2,32.3 109.9,35.4 108.3,38ZM44.5,33.2C44.7,33.4 45,33.6 45.1,33.8C45.3,34.1 45.4,34.4 45.4,34.7C45.4,35 45.3,35.3 45.1,35.6C44.9,35.9 44.7,36 44.5,36.2C44.1,36.5 43.8,36.7 43.8,37.2L43.8,40L10.4,40L10.4,37.2C10.4,36.7 10.1,36.5 9.7,36.2C9.5,36 9.2,35.8 9.1,35.6C9,35.4 8.9,35 8.9,34.7C8.9,34.4 9,34.1 9.2,33.8C9.4,33.5 9.6,33.4 9.8,33.2C10.2,32.9 10.5,32.7 10.5,32.2L10.5,23C10.5,22.5 10.2,22.3 9.8,22C9.6,21.8 9.3,21.6 9.2,21.4C9,21.1 8.9,20.8 8.9,20.5C8.9,20.2 9,19.9 9.2,19.6C9.4,19.3 9.6,19.2 9.8,19C10.2,18.7 10.5,18.5 10.5,18L10.5,15L10.9,15C12.8,15 14.6,15 15.7,14.4C16.2,14.2 16.6,13.9 17.1,13.6C18.1,13 19.3,12.2 21,12.2C22.4,12.2 23.7,12.7 24.8,13.2C25.6,13.5 26.4,13.8 26.9,13.8L27.1,13.8C27.7,13.8 28.4,13.5 29.2,13.2C30.3,12.7 31.6,12.2 33,12.2C34.7,12.2 35.9,12.9 36.9,13.6C37.4,13.9 37.8,14.2 38.3,14.4C39.5,14.9 41.2,15 43.1,15L43.5,15L43.5,17.9C43.5,18.4 43.8,18.6 44.2,18.9C44.4,19.1 44.7,19.3 44.8,19.5C45,19.8 45.1,20.1 45.1,20.4C45.1,20.7 45,21 44.8,21.3C44.6,21.6 44.4,21.7 44.2,21.9C43.8,22.2 43.5,22.4 43.5,22.9L43.5,32.1C43.8,32.6 44.2,32.9 44.5,33.2ZM4,4.2C4,4.2 4.2,50.2 4,50L154.9,50L154.9,4.2L4,4.2Z" style="fill:rgb(153,0,0);fill-rule:nonzero;"/><path d="M155.9,3C155.9,3 155.9,78.2 156,79.2C156.1,112.6 137.5,136.8 121.9,151.3C104.9,167.1 85.7,176.5 79.7,177.8L79.3,177.8C73.3,176.5 54.1,167.1 37.1,151.3C21.5,136.9 2.9,112.6 3,79.2L3,3L155.9,3ZM66.4,81.5C66.4,88.7 72.2,94.6 79.5,94.6C86.7,94.6 92.6,88.7 92.6,81.5C92.6,74.3 86.7,68.4 79.5,68.4C72.3,68.4 66.4,74.3 66.4,81.5ZM34.6,123.3C39.8,128.4 48,128.4 53.1,123.3C58.2,118.2 58.2,109.9 53.1,104.8C48,99.7 39.7,99.7 34.6,104.8C29.5,109.9 29.5,118.2 34.6,123.3ZM124.3,123.3C129.4,118.1 129.4,109.8 124.3,104.8C119.2,99.7 110.9,99.7 105.8,104.8C100.7,109.9 100.7,118.2 105.8,123.3C110.9,128.4 119.2,128.4 124.3,123.3ZM153.8,5.1L5.1,5.1L5.1,48.9L153.8,48.9L153.8,5.1ZM92.413,32.924C93.378,33.756 94.339,34.513 95.3,35.2C97.4,36.7 100.7,37.6 103,35.7C103.8,35 104.2,33.8 103.9,32.7C103.7,31.7 103,31 102.1,30.8C100.5,30.4 99.2,32.1 98.1,33.7C98,33.9 97.8,34 97.6,34C97.4,34 97.3,33.9 97.2,33.7C96.1,31.1 96.1,28.9 97.1,27.2C97.9,25.8 99.6,24.8 101.6,24.4C101.6,21.3 102.3,19.1 103.8,17.7C104.7,16.9 106.4,15.9 109.2,16.3C109.3,16.3 109.5,16.4 109.6,16.5C109.7,16.6 109.7,16.8 109.6,16.9C107.7,21.6 108.1,23.3 109.2,27.2C109.3,27.5 109.4,27.9 109.5,28.3C110.5,32.1 110.2,35.4 108.6,38C106,42.2 100.9,43.3 100.6,43.3C99.6,43.6 98.5,43.7 97.5,43.7C92.3,43.7 87.4,41.4 82.5,38.9C81.9,38.6 81.3,38.3 80.7,37.9C76.7,35.7 70.8,32.5 66.9,34.5C66.9,35 66.8,35.5 66.6,35.9C66,37.5 64,39.3 63.1,39.9C60.9,41.5 58.2,43.1 54.9,43.1C54.4,43.1 53.9,43 53.5,42.9C52.9,42.7 52.3,42.3 51.9,41.8C51.7,41.5 51.5,41.3 51.4,41C51.3,40.7 51.2,40.5 51.2,40.2C49.8,39.8 49,38.8 49,37.7C49,36.8 49.6,36.1 50.2,35.4C51.1,34.3 51.6,33.7 50.6,32.8L50.3,32.5C50.1,32.4 49.9,32.2 49.8,32.1C48.6,30.9 49.3,28.4 49.7,27L49.7,26.8C50.1,25.3 50.7,23.7 51.6,21.9C52.8,19.5 54.2,16.9 56.2,15.2C56.3,15.1 56.4,15.1 56.6,15.1C56.7,15.1 56.9,15.2 56.9,15.3C56.954,15.354 57.214,15.761 57.568,16.377C57.943,15.205 58.734,13.589 60.5,13C62,12.5 63.3,13.2 64,13.7C64.4,13.1 65.2,12.1 66.6,12.1C68.1,12 69.3,13 69.8,13.6C70.5,13 72.1,11.9 73.8,12.1C75.3,12.3 76,13.4 76.3,14.4C77.1,14 78.6,13.5 80,14.4C81,15 81.1,16.1 81,16.8C82,16.6 83.9,16.5 85.1,17.7C86,18.7 86.1,19.9 86,20.7C86.8,20.6 88.2,20.6 88.9,21.8C89.4,22.5 89.2,23.5 89.1,24.1C89.7,24.2 90.6,24.6 90.9,25.4C91.2,26.2 90.9,27.4 90.7,28C91.2,28.2 92,28.7 92.5,29.6C92.967,30.534 92.911,31.642 92.413,32.924ZM58.145,17.419C58.293,17.697 58.447,17.993 58.6,18.3C62,16.2 67,16 67.6,16C70.7,15.9 75.2,16.4 79,19.3C81.4,21.1 83.4,23.4 85.3,25.6C85.8,26.2 86.3,26.8 86.8,27.3C88.335,29.046 89.842,30.597 91.335,31.966C91.62,31.075 91.626,30.371 91.3,29.8C90.8,28.8 89.7,28.5 89.6,28.5C89.5,28.5 89.4,28.4 89.3,28.3C89.2,28.2 89.2,28.1 89.3,27.9C89.5,27.4 89.8,26.1 89.6,25.5C89.4,24.9 88.3,24.7 88,24.7C87.9,24.7 87.7,24.6 87.7,24.5C87.6,24.4 87.6,24.2 87.7,24.1C87.8,23.7 88.2,22.7 87.8,22.1C87.1,21 85.2,21.5 85.2,21.5C85,21.5 84.9,21.5 84.8,21.4C84.7,21.3 84.6,21.1 84.7,20.9C84.7,20.9 85.2,19.2 84.2,18.1C83,16.8 80.4,17.6 80.3,17.6C80.1,17.6 80,17.6 79.9,17.5C79.8,17.4 79.7,17.2 79.8,17.1C79.8,17 80.2,15.6 79.3,15.1C77.8,14.2 76.1,15.4 76.1,15.4C76,15.5 75.8,15.5 75.7,15.4C75.6,15.3 75.5,15.2 75.4,15C75.4,14.9 75.1,13.1 73.5,12.9C71.8,12.7 69.9,14.5 69.9,14.5C69.8,14.6 69.7,14.6 69.6,14.6C69.5,14.6 69.4,14.5 69.3,14.4C69.3,14.4 68.1,12.8 66.5,12.9C65,13 64.4,14.5 64.4,14.5L64.1,14.8C64,14.8 63.8,14.8 63.7,14.7C63.7,14.7 62.2,13.3 60.7,13.8C58.928,14.453 58.374,16.498 58.145,17.419ZM65.261,26.371C64.138,25.398 62.456,24.987 61.1,25.8C60.5,26.2 59.9,26.7 59.4,27.2C58.9,27.6 58.5,28 57.9,28.4C57.7,28.5 57.4,28.5 57.3,28.3C57.1,28.1 57.2,27.8 57.3,27.6C57.4,27.5 57.5,27.5 57.5,27.4C58.2,26.7 59.8,25.2 59.8,24.1C59.5,21.9 57.1,17.7 56.3,16.3C54.6,17.9 53.4,20.2 52.3,22.3C51.5,24 50.9,25.5 50.5,27L50.5,27.2C50.2,28.3 49.6,30.6 50.4,31.4C50.5,31.5 50.6,31.6 50.8,31.7C50.9,31.8 51.1,31.9 51.2,32C52.8,33.6 51.7,34.9 50.9,35.9C50.4,36.5 50,37 50,37.5C50,38.7 51.4,39.1 51.8,39.2C51.95,39.2 52.1,39.312 52.165,39.453C54.336,39.647 57.292,39.202 59.9,36.5C60.1,36.3 60.4,36.3 60.6,36.5C60.8,36.7 60.8,37 60.6,37.2C58.5,39.3 55.9,40.4 53,40.4C52.774,40.4 52.568,40.4 52.364,40.391L52.4,40.5C52.5,40.7 52.6,40.9 52.8,41.1C53.1,41.5 53.5,41.8 54,41.9C54.3,42 54.7,42.1 55.1,42.1C58.2,42.1 60.7,40.6 62.8,39.1C64,38.2 65.6,36.7 66,35.5C66.1,35.2 66.2,34.9 66.2,34.5L64,34.1L63.9,34.1C63.7,34 63.5,33.9 63.5,33.6C63.4,33.2 63.8,32.9 64.6,32.4C64.8,32.2 65.1,32.1 65.3,31.9C66.4,31.1 67.4,30.4 67.9,30C67.3,29.3 66.8,28.6 66.4,27.9C66.207,27.579 66.015,27.299 65.849,27.06C65.715,27.144 65.535,27.167 65.4,27.1C65.2,27 65.1,26.7 65.2,26.5C65.22,26.456 65.241,26.413 65.261,26.371ZM56,31.2C56.5,31.2 57,31.3 57.5,31.7C57.7,31.8 57.8,32 57.9,32.1C58.2,32.4 58.2,33 57.9,33.3C57.5,33.6 57.1,33.9 56.8,34.1C56.2,34.5 55.1,35.3 54.4,34.7C54,34.4 54.8,33.9 54.4,32.6C54.3,31.6 55.2,31.2 56,31.2ZM66.152,26.654C66.435,26.958 66.717,27.429 67,27.9C67.5,28.7 68.1,29.6 68.8,30.2C68.9,30.3 69,30.4 68.9,30.6C68.9,30.7 68.8,30.9 68.7,31C68.7,31 67.4,31.9 65.7,33.2C65.5,33.4 65.2,33.5 65,33.7L64.9,33.8L66.4,34.1C67.4,33.2 68.6,32.9 69.8,32.9C73.6,32.9 77.8,35.2 81.2,37.1C81.8,37.5 82.5,37.8 83,38.1C88.7,41.1 94.4,43.6 100.4,42.6C100.4,42.6 105.3,41.6 107.7,37.7C109.2,35.3 109.5,32.3 108.5,28.8C108.4,28.4 108.3,28.1 108.2,27.7C107.2,24 106.6,22 108.4,17.4C106.3,17.3 105.1,18 104.4,18.6C103,19.8 102.4,22 102.5,25C102.5,25.3 102.3,25.5 102.1,25.5C100.2,25.7 98.7,26.6 97.9,27.9C97.2,29.1 97.1,30.7 97.8,32.7C98.7,31.4 100.3,29.7 102.3,30.2C103.5,30.5 104.5,31.4 104.8,32.8C105.2,34.3 104.7,35.9 103.6,36.8C101,39 97.2,38 94.8,36.3C92,34.2 89.1,31.6 86.2,28.3L84.7,26.5C82.8,24.3 80.9,22.1 78.6,20.3C75,17.5 70.7,17.1 67.8,17.2C65.8,17.3 61.8,17.8 59.1,19.5C59.9,21.2 60.7,23.2 60.7,24.7C60.7,25 60.6,25.2 60.5,25.5C62.201,24.48 64.118,24.978 65.453,26.01C66.04,24.997 66.832,24.36 67.7,24.1C68.6,23.9 69.4,24.1 70.3,24.7C72,25.9 72.3,25.8 74,25C75,24.5 76.2,24.6 77.2,25.2C78.2,25.8 78.8,26.9 78.8,28.1C79.6,28 81.1,28 82.2,28.8C83.2,29.6 83.3,30.9 83.3,31.7C84.1,31.6 85.3,31.5 86.1,32.4C86.8,33.2 86.8,34.2 86.9,34.9C86.9,35.1 86.9,35.5 87,35.6C87.1,35.6 87.2,35.7 87.4,35.7C88.2,36 90,36.5 89.7,39C89.7,39.2 89.5,39.4 89.3,39.4C89,39.4 88.8,39.1 88.9,38.9C89.1,37.2 88.1,36.9 87.2,36.6C87,36.5 86.8,36.5 86.6,36.4C86,36.1 86,35.5 86,34.9C86,34.3 86,33.5 85.5,33C84.7,32.1 83,32.7 83,32.7C82.9,32.8 82.7,32.7 82.6,32.6C82.5,32.5 82.4,32.3 82.4,32.2C82.4,32.2 82.7,30.4 81.6,29.5C80.7,28.7 79,28.9 78.5,29.1C78.4,29.1 78.2,29.1 78.1,29C78,28.9 77.9,28.8 77.9,28.6C78,27.5 77.5,26.5 76.7,26C76,25.5 75.1,25.5 74.4,25.8C72.5,26.8 71.8,26.9 69.8,25.5C69.2,25 68.6,24.9 68,25C67.267,25.183 66.703,25.786 66.152,26.654ZM44.7,32.9C44.9,33.1 45.2,33.3 45.5,33.6C45.7,33.9 45.8,34.3 45.8,34.7C45.8,35.1 45.7,35.5 45.5,35.8C45.3,36.1 45,36.3 44.8,36.5C44.4,36.8 44.2,37 44.2,37.3L44.2,40.4L10.2,40.4L10.2,37.3C10.2,37 10,36.8 9.6,36.5C9.4,36.3 9.1,36.1 8.9,35.8C8.7,35.5 8.6,35.1 8.6,34.7C8.6,34.3 8.7,33.9 8.9,33.6C9.1,33.3 9.4,33.1 9.6,32.9C10,32.6 10.2,32.4 10.2,32.1L10.2,22.9C10.2,22.6 10,22.4 9.6,22.1C9.4,21.9 9.1,21.7 8.9,21.4C8.7,21.1 8.6,20.7 8.6,20.3C8.6,19.9 8.7,19.5 8.9,19.2C9.1,18.9 9.4,18.7 9.6,18.5C10,18.2 10.2,18 10.2,17.7L10.2,14.5L10.9,14.5C12.6,14.5 14.4,14.5 15.6,14C16.1,13.8 16.5,13.5 17,13.2C18.1,12.6 19.3,11.8 21.1,11.8C22.5,11.8 23.8,12.3 25,12.8C25.8,13.1 26.5,13.4 27,13.4L27.3,13.4C27.8,13.4 28.5,13.1 29.3,12.8C30.4,12.3 31.8,11.8 33.2,11.8C35,11.8 36.2,12.5 37.3,13.2C37.8,13.5 38.2,13.8 38.7,14C39.9,14.5 41.7,14.5 43.4,14.5L44.1,14.5L44.1,17.7C44.1,18 44.3,18.2 44.7,18.5C44.9,18.7 45.2,18.9 45.4,19.2C45.6,19.5 45.7,19.9 45.7,20.3C45.7,20.7 45.6,21.1 45.4,21.4C45.2,21.7 44.9,21.9 44.7,22.1C44.3,22.4 44.1,22.6 44.1,22.9L44.1,32.1C44.1,32.4 44.3,32.6 44.7,32.9ZM29.7,13.9C29,14.2 28.3,14.5 27.7,14.6L27.7,33.3L27.8,33.3C28.7,33.3 29.9,33.7 31.4,34.2C31.8,34.3 32.3,34.5 32.8,34.6C34.2,35 35.7,35 37.1,35C38,35 38.9,35 39.6,35.1L39.6,15.5C39.1,15.4 38.6,15.3 38.2,15.1C37.7,14.9 37.2,14.6 36.7,14.3C35.7,13.6 34.7,13 33.2,13C32,13 30.8,13.5 29.7,13.9ZM44.8,34.7C44.8,34.5 44.7,34.3 44.7,34.1C44.6,33.9 44.4,33.8 44.2,33.6C43.8,33.3 43.3,32.9 43.3,32.1L43.3,22.9C43.3,22.1 43.8,21.7 44.2,21.4C44.4,21.2 44.6,21.1 44.7,20.9C44.9,20.8 44.9,20.6 44.9,20.4C44.9,20.2 44.8,20.1 44.7,19.9C44.6,19.7 44.4,19.6 44.2,19.4C43.8,19.1 43.3,18.7 43.3,17.9L43.3,15.8L43.2,15.8C42.4,15.8 41.6,15.8 40.8,15.7L40.8,37L29.1,37C28.9,37.9 28.1,38.5 27.2,38.5C26.3,38.5 25.5,37.8 25.3,37L13.6,37L13.6,15.8C12.8,15.9 12,15.9 11.2,15.9L11.1,15.9L11.1,18C11.1,18.8 10.6,19.2 10.2,19.5C10,19.7 9.8,19.8 9.7,20C9.5,20.1 9.5,20.3 9.5,20.5C9.5,20.7 9.6,20.8 9.7,21C9.8,21.1 10,21.3 10.3,21.5C10.7,21.8 11.2,22.2 11.2,23L11.2,32.2C11.2,33 10.7,33.4 10.3,33.7C10.1,33.9 9.9,34 9.8,34.2C9.6,34.3 9.6,34.5 9.6,34.7C9.6,34.9 9.7,35 9.8,35.2C9.9,35.4 10.1,35.5 10.3,35.7C10.7,36 11.2,36.4 11.2,37.2L11.2,39.3L43.2,39.3L43.2,37.2C43.2,36.4 43.7,36 44.1,35.7C44.3,35.5 44.5,35.4 44.6,35.2C44.8,35.1 44.8,34.9 44.8,34.7ZM16.1,15.1C15.6,15.3 15.2,15.4 14.6,15.5L14.6,34.9C15.4,34.8 16.3,34.8 17.2,34.8C18.6,34.8 20.1,34.8 21.5,34.4C22,34.3 22.4,34.1 22.9,34C24.3,33.6 25.6,33.2 26.5,33.1L26.6,33.1L26.6,14.6C26,14.5 25.4,14.2 24.6,13.9C23.6,13.5 22.3,13 21.1,13C19.6,13 18.6,13.7 17.6,14.3C17.1,14.6 16.6,14.9 16.1,15.1ZM149.3,32.9C149.6,33.1 149.9,33.3 150.2,33.6C150.4,33.9 150.5,34.3 150.5,34.7C150.5,35.1 150.4,35.5 150.2,35.8C150,36.1 149.7,36.3 149.5,36.5C149.1,36.8 148.9,37 148.9,37.3L148.9,40.4L114.9,40.4L114.9,37.3C114.9,37 114.7,36.8 114.3,36.5C114.1,36.3 113.8,36.1 113.6,35.8C113.4,35.5 113.3,35.1 113.3,34.7C113.3,34.3 113.4,33.9 113.6,33.6C113.8,33.3 114.1,33.1 114.3,32.9C114.7,32.6 114.9,32.4 114.9,32.1L114.9,22.9C114.9,22.6 114.7,22.4 114.3,22.1C114.1,21.9 113.8,21.7 113.6,21.4C113.4,21.1 113.3,20.7 113.3,20.3C113.3,19.9 113.4,19.5 113.6,19.2C113.8,18.9 114.1,18.7 114.3,18.5C114.7,18.2 114.9,18 114.9,17.7L114.9,14.5L115.6,14.5C117.3,14.5 119.1,14.5 120.3,14C120.8,13.8 121.2,13.5 121.7,13.2C122.8,12.6 124,11.8 125.8,11.8C127.2,11.8 128.5,12.3 129.7,12.8C130.5,13.1 131.2,13.4 131.7,13.4L131.9,13.4C132.4,13.4 133.1,13.1 133.9,12.8C135,12.3 136.4,11.8 137.8,11.8C139.6,11.8 140.8,12.5 141.9,13.2C142.4,13.5 142.8,13.8 143.3,14C144.5,14.5 146.3,14.5 148,14.5L148.7,14.5L148.7,17.7C148.7,18 148.9,18.2 149.3,18.5C149.5,18.7 149.8,18.9 150,19.2C150.2,19.5 150.3,19.9 150.3,20.3C150.3,20.7 150.2,21.1 150,21.4C149.8,21.7 149.5,21.9 149.3,22.1C148.9,22.4 148.7,22.6 148.7,22.9L148.7,32.1C148.7,32.4 148.9,32.6 149.3,32.9ZM149.4,34.7L149.4,34.1C149.3,33.9 149.1,33.8 148.9,33.6C148.5,33.3 148,32.9 148,32.1L148,22.9C148,22.1 148.5,21.7 148.9,21.4C149.1,21.2 149.3,21.1 149.4,20.9C149.6,20.8 149.6,20.6 149.6,20.4C149.6,20.2 149.5,20.1 149.4,19.9C149.3,19.7 149.1,19.6 148.9,19.4C148.5,19.1 148,18.7 148,17.9L148,15.8L147.9,15.8C147.1,15.8 146.3,15.8 145.5,15.7L145.5,37L133.8,37C133.6,37.9 132.8,38.5 131.9,38.5C131,38.5 130.2,37.8 130,37L118.3,37L118.3,15.8C117.5,15.9 116.7,15.9 115.9,15.9L115.8,15.9L115.8,18C115.8,18.8 115.3,19.2 114.9,19.5C114.7,19.7 114.5,19.8 114.4,20C114.2,20.1 114.2,20.3 114.2,20.5C114.2,20.7 114.3,20.8 114.4,21C114.5,21.2 114.7,21.3 114.9,21.5C115.3,21.8 115.8,22.2 115.8,23L115.8,32.2C115.8,33 115.3,33.4 114.9,33.7C114.7,33.9 114.5,34 114.4,34.2C114.2,34.3 114.2,34.5 114.2,34.7C114.2,34.9 114.3,35 114.4,35.2C114.5,35.4 114.7,35.5 114.9,35.7C115.3,36 115.8,36.4 115.8,37.2L115.8,39.3L147.8,39.3L147.8,37.2C147.8,36.4 148.3,36 148.7,35.7C148.9,35.5 149.1,35.4 149.2,35.2C149.4,35.1 149.4,34.9 149.4,34.7ZM120.7,15.1C120.3,15.3 119.8,15.4 119.2,15.5L119.2,34.9C120,34.8 120.9,34.8 121.8,34.8C123.2,34.8 124.7,34.8 126.1,34.4C126.6,34.3 127,34.1 127.5,34C128.9,33.6 130.2,33.2 131.1,33.1L131.2,33.1L131.2,14.6C130.6,14.5 130,14.2 129.2,13.9C128.2,13.5 126.9,13 125.7,13C124.2,13 123.2,13.7 122.2,14.3C121.7,14.6 121.2,14.9 120.7,15.1ZM134.3,13.9C133.6,14.2 133,14.5 132.2,14.6L132.2,33.3L132.3,33.3C133.2,33.3 134.4,33.7 135.9,34.2C136.3,34.3 136.8,34.5 137.3,34.6C138.7,35 140.2,35 141.6,35C142.5,35 143.4,35 144.2,35.1L144.2,15.5C143.7,15.4 143.2,15.3 142.8,15.1C142.3,14.9 141.8,14.6 141.3,14.3C140.3,13.6 139.3,13 137.8,13C136.6,13 135.4,13.5 134.3,13.9ZM145.3,116.6C150.4,105.9 153.9,93.4 153.8,79.2L153.8,51L5.1,51L5.1,79.2C5.1,93.4 8.5,105.8 13.6,116.6L79.5,53.1L145.3,116.6ZM120.4,149.8C120.8,149.4 121.3,149 121.7,148.6L79.5,103.8L37.3,148.6C37.7,149 38.2,149.4 38.6,149.8C56.3,166.2 74.6,174.5 79.5,175.7C84.4,174.5 102.7,166.2 120.4,149.8Z" style="fill:rgb(1,31,91);"/></g></g></svg>