<?xml version="1.0" encoding="UTF-8" standalone="no"?><!DOCTYPE svg PUBLIC "-//W3C//DTD SVG 1.1//EN" "http://www.w3.org/Graphics/SVG/1.1/DTD/svg11.dtd"><svg width="739px" height="240px" version="1.1" xmlns="http://www.w3.org/2000/svg" xmlns:xlink="http://www.w3.org/1999/xlink" xml:space="preserve" xmlns:serif="http://www.serif.com/" style="fill-rule:evenodd;clip-rule:evenodd;stroke-linejoin:round;stroke-miterlimit:2;"><g transform="matrix(4.16667,0,0,4.16667,0,0)"><path d="M59.8,11.2C59.8,8.9 59.3,7.9 57.5,7.9L54.4,7.9C54,7.9 53.9,7.8 53.9,7.3L53.9,5.8C53.9,5.4 54,5.3 54.6,5.3C55.3,5.3 58.5,5.5 64.9,5.5C70.5,5.5 73.7,5.3 74.5,5.3C74.9,5.3 75,5.4 75,5.8L75,7.5C75,7.9 74.9,8 74.5,8L71.7,8C69.7,8 68.5,9.2 68.4,10.6C68.3,11.4 68.2,15.4 68.2,19.3L68.2,27.6C68.2,30.9 68.3,35.7 68.4,37.8C68.6,40.9 69.1,43.9 70.7,46.1C73,49.2 76.6,50.2 79.8,50.2C82.9,50.2 86.6,49 88.8,47C91.3,44.5 92.7,40.6 92.7,35.7L92.7,23.7C92.7,18.4 92.2,12.5 92,10.9C91.8,9.2 90.7,8 89.3,8L86.9,8C86.5,8 86.4,7.8 86.4,7.5L86.4,5.8C86.4,5.4 86.5,5.3 86.9,5.3C87.6,5.3 90.6,5.5 95,5.5C99.1,5.5 101.3,5.3 101.8,5.3C102.4,5.3 102.5,5.5 102.5,5.8L102.5,7.3C102.5,7.7 102.4,7.9 102.1,7.9L99.7,7.9C97.3,7.9 97,9.8 96.9,10.5C96.8,11.3 96.8,20.7 96.8,21.5C96.8,22.4 96.7,34.1 96.4,36.7C96,42.2 94.4,46.3 90.8,49.5C88,52 83.7,53.6 78.6,53.6C75.4,53.6 71.5,53.1 69,52C65.1,50.4 62.5,47.3 61.1,43C60.2,40.1 59.9,35.7 59.9,26.9L59.9,11.2L59.8,11.2Z" style="fill:rgb(153,0,0);fill-rule:nonzero;"/><path d="M104.3,37.8C104.6,37.8 104.7,37.9 104.7,38.3C104.8,40.4 105.4,43 107.2,45.9C109.2,49.1 112.7,50.7 116,50.7C119.6,50.7 124.7,48.4 124.7,42.9C124.7,36.8 121.9,34.8 114.8,32.1C112.7,31.3 108.3,29.4 105,26.5C102.7,24.4 101.7,21 101.7,16.9C101.7,13.2 103.2,10.1 106.4,7.5C109.1,5.2 112,4.3 115.9,4.3C120.3,4.3 123,5.4 124.3,5.9C125,6.2 125.4,6 125.7,5.7L126.6,4.8C126.9,4.5 127.1,4.4 127.5,4.4C127.9,4.4 128,4.8 128,5.5C128,6.6 129.1,15.9 129.1,16.6C129.1,16.9 129,17 128.7,17.1L127.6,17.4C127.3,17.5 127.1,17.4 126.9,17C126.2,15.1 125.2,12.5 122.8,9.9C121.1,8 118.9,7.1 115.9,7.1C110.6,7.1 108.4,11.4 108.4,13.8C108.4,16.1 108.7,18.1 110.3,19.8C112,21.5 115.8,23.1 118.4,23.9C122.3,25.1 125.5,26.4 128,29.1C130.1,31.4 131.3,34.2 131.3,38.7C131.3,46.8 126,53.5 117.1,53.5C111.6,53.5 108.4,52.3 105.7,50.3C104.9,49.8 104.5,49.5 104.1,49.5C103.7,49.5 103.4,50 103,50.7C102.6,51.4 102.3,51.5 101.8,51.5C101.3,51.5 101,51.1 101,50.4C101.1,49.6 102.1,38.8 102.2,38C102.3,37.6 102.3,37.5 102.6,37.5L104.3,37.8Z" style="fill:rgb(153,0,0);fill-rule:nonzero;"/><path d="M177.1,41.8C177.3,42 177.4,42.2 177.2,42.5C173.2,48.2 166.8,53.7 157.3,53.7C148.7,53.7 143.9,51.2 139.8,47.4C134.9,43 132.6,35.2 132.6,29.4C132.6,22.9 134.7,16.6 139.4,11.5C143,7.6 148.7,4.4 156.8,4.4C162.9,4.4 167.9,6.3 170.3,7.6C171.2,8.1 171.5,8.1 171.6,7.6L172.1,5.9C172.2,5.5 172.4,5.5 173.2,5.5C174,5.5 174.1,5.6 174.1,6.6C174.1,7.8 175.4,18.5 175.7,20.5C175.8,20.9 175.7,21.1 175.4,21.2L174.1,21.6C173.8,21.7 173.6,21.5 173.4,20.9C172.6,18.5 171,15.2 168.2,12.2C165.3,9.4 161.8,7.3 156.6,7.3C145.9,7.3 141.5,16.9 141.5,26.5C141.5,30.6 142.7,38.5 147.6,43.9C152,48.6 155.9,49.1 159.1,49.1C166.4,49.1 172.3,45.4 175.1,41.4C175.4,40.9 175.7,40.7 175.9,40.9L177.1,41.8Z" style="fill:rgb(153,0,0);fill-rule:nonzero;"/><path d="M39.7,35.3C37,41.9 31.8,51 22.4,56.7C13,51 7.8,42 5.1,35.4C2.6,29.3 1.7,24.1 1.4,22.6C2.5,22 3.6,21.7 4.9,21.7C5.8,21.7 7,21.9 7.8,22.1C7.8,22.1 9,22.4 9.4,22.5C10.8,22.9 12.4,23.3 13.5,23.3C14.8,23.3 16.9,23.1 19.2,22.3C19.9,22.1 20.7,21.8 21.5,21.7L22.3,21.6L23.5,21.7C24.2,21.8 24.9,22 25.5,22.2C27.8,23 29.9,23.2 31.2,23.2C32,23.2 33,23 34.5,22.6C35.1,22.4 35.7,22.3 36.3,22.1L37,21.9C37.7,21.7 39,21.5 39.9,21.5C41.2,21.5 42.3,21.8 43.4,22.4C43.1,24 42.2,29.2 39.7,35.3ZM0.8,12.7L14.5,15.7C14.4,15.9 14.3,16.1 14.2,16.3L0.8,14.6L0.8,12.7ZM1.3,7.7L15.5,14.3C15.2,14.6 15,14.9 14.8,15.3L0.9,11.4C1,10.2 1.1,9 1.3,7.7ZM1.7,5.6C2.2,5.7 3.3,5.9 4.7,6.1L16.2,13.5C16,13.6 15.9,13.8 15.8,13.9L1.5,6.3C1.6,6.1 1.6,5.8 1.7,5.6ZM7.8,6.2C9.3,6.2 10.7,6.1 12,5.8L17.8,12.3C17.4,12.6 16.9,12.8 16.6,13.2L7,6.2L7.8,6.2ZM15.2,5L19.1,11.8C18.8,11.9 18.6,12 18.3,12.1L13.4,5.5C14,5.4 14.6,5.2 15.2,5ZM20.3,2.5L21.5,11.2C20.8,11.3 20.2,11.4 19.6,11.6L16.4,4.6C18,3.9 19.3,3.2 20.3,2.5ZM22.3,1C22.6,1.2 22.9,1.5 23.2,1.7L22.7,11.1L22.1,11.1L21.6,1.6C21.9,1.4 22.2,1.2 22.3,1ZM24.4,2.5C25.8,3.4 27.1,4.1 28.3,4.5L25.1,11.5C24.5,11.3 23.9,11.2 23.2,11.1L24.4,2.5ZM29.4,5C30.2,5.3 30.9,5.5 31.2,5.5L26.3,12.1C26.1,12 25.8,11.9 25.5,11.8L29.4,5ZM32.7,5.8C34.1,6.1 35.6,6.2 37.2,6.2L37.7,6.2L28.1,13.2C27.7,12.9 27.3,12.6 26.9,12.3L32.7,5.8ZM39.9,6.1C41.4,6 42.4,5.7 43,5.6C43.1,5.8 43.1,6.1 43.1,6.3L28.8,13.9C28.7,13.7 28.5,13.6 28.3,13.5L39.9,6.1ZM43.4,7.7C43.6,9 43.7,10.3 43.8,11.5L30,15.3C29.8,14.9 29.5,14.6 29.2,14.2L43.4,7.7ZM43.9,14.6L30.6,16.4C30.5,16.2 30.4,16 30.3,15.8L43.9,12.8L43.9,14.6ZM39.9,17.4C39.1,17.4 37.7,17.6 36.8,17.8L36.1,18C35.5,18.2 34.9,18.4 34.3,18.5C33.5,18.7 32.3,19 31.4,19C31.3,18.2 31.1,17.5 30.8,16.7L43.9,15.7C43.9,16.6 43.8,17.5 43.8,18.2C42.6,17.8 41.2,17.5 39.9,17.4ZM39.8,19.1C38.9,19.1 37.5,19.3 36.7,19.5L36.1,19.7C35.5,19.9 34.9,20.1 34.3,20.2L34.4,20.6L34.3,20.2C33.4,20.4 32.2,20.7 31.2,20.7C29.9,20.7 28,20.5 25.7,19.8C25.1,19.6 24.4,19.4 23.6,19.2C23.2,19.1 22.7,19.1 22.3,19.1C22,19.1 21.7,19.1 21.4,19.2C20.5,19.3 19.6,19.6 18.9,19.8C16.7,20.6 14.7,20.7 13.4,20.8C12.3,20.8 10.8,20.4 9.5,20L8,19.6C7.2,19.4 5.9,19.2 4.9,19.2C3.6,19.2 2.3,19.5 1.1,20.1C1,19.8 1,19.6 1,19.3C2.2,18.7 3.6,18.3 5,18.3C5.9,18.3 7.1,18.5 7.9,18.7L9.5,19.2L9.6,18.8L9.5,19.2C11,19.6 12.5,20 13.6,20C14.9,20 17,19.8 19.3,19C20,18.8 20.8,18.5 21.6,18.4L22.4,18.3L23.6,18.4C24.3,18.5 25,18.8 25.6,18.9C27.9,19.7 30,19.9 31.3,19.9C32.1,19.9 33.1,19.7 34.6,19.3C35.2,19.1 35.8,19 36.4,18.8L37,18.6C37.7,18.4 39,18.2 39.9,18.2C41.2,18.2 42.6,18.5 43.8,19.1C43.8,19.4 43.7,19.7 43.7,20C42.5,19.4 41.1,19.1 39.8,19.1ZM22.4,17.5C22.1,17.5 21.8,17.5 21.5,17.6C20.6,17.7 19.7,18 19,18.2C17.1,18.9 15.4,19.1 14.1,19.1C14.7,15 18.1,11.9 22.3,11.9C26.4,11.9 30,15 30.5,19C29.3,18.9 27.6,18.7 25.7,18.1C25.1,17.9 24.4,17.7 23.6,17.5L22.4,17.5ZM0.8,15.8L13.9,16.8C13.6,17.5 13.4,18.3 13.3,19.1C12.2,19.1 10.8,18.7 9.6,18.3L8,17.9C7.2,17.7 5.9,17.5 4.9,17.5C3.5,17.5 2.1,17.8 0.8,18.4C0.9,17.7 0.8,16.8 0.8,15.8ZM39.8,20.8C38.9,20.8 37.5,21 36.7,21.2L36,21.4C35.4,21.6 34.8,21.7 34.3,21.9L34.4,22.3L34.3,21.9C32.9,22.3 32,22.4 31.2,22.4C29.9,22.4 28,22.2 25.7,21.5C25.1,21.3 24.4,21.1 23.6,20.9C22.8,20.8 22.1,20.7 21.4,20.8C20.5,20.9 19.6,21.2 18.9,21.4C16.7,22.2 14.7,22.3 13.4,22.4C12.3,22.4 10.8,22 9.5,21.6L9.4,22L9.5,21.6C9.1,21.5 8.7,21.4 8.3,21.3L8,21.3C7.2,21.1 5.9,20.9 4.9,20.9C3.6,20.9 2.4,21.2 1.3,21.8C1.3,21.6 1.2,21.3 1.2,21C2.3,20.4 3.6,20 4.9,20C5.8,20 7,20.2 7.8,20.4L9.4,20.9L9.5,20.5L9.4,20.9C10.9,21.3 12.4,21.7 13.5,21.7C14.8,21.7 16.9,21.5 19.2,20.7C19.9,20.5 20.7,20.2 21.5,20.1L22.3,20L23.5,20.1C24.2,20.2 24.9,20.5 25.5,20.6C27.8,21.4 29.9,21.6 31.2,21.6C32,21.6 33,21.4 34.5,21C35.1,20.8 35.7,20.7 36.3,20.5L36.9,20.3C37.6,20.1 38.9,19.9 39.8,19.9C41.1,19.9 42.4,20.2 43.6,20.9C43.6,21.2 43.5,21.5 43.5,21.7C42.3,21.1 41.1,20.8 39.8,20.8ZM44.7,12.6L44.6,11.3C44.5,10.1 44.4,8.7 44.1,7.4L44,6.4C43.9,5.9 43.8,5.4 43.7,4.9L43.6,4.5L43.2,4.6C43.2,4.6 42.5,4.8 41.5,5L38.9,5.3C38.4,5.3 37.8,5.4 37.2,5.4C35.7,5.4 34.2,5.3 32.7,5L31.8,4.8C31.8,4.8 31,4.6 29.9,4.3L28.7,3.8C27.5,3.3 26,2.6 24.6,1.6L23.4,0.7C23.2,0.5 23,0.3 22.7,0.1L22.3,0L22,0.2C22,0.2 21.8,0.4 21.4,0.7L20.2,1.6C19.2,2.3 17.8,3.1 16,3.8L14.8,4.3C14.2,4.5 13.6,4.7 12.9,4.9L11.8,5.1C10.5,5.3 9.2,5.5 7.8,5.5C7.1,5.5 6.4,5.5 5.8,5.4L3.2,5.1C2.2,4.9 1.5,4.8 1.5,4.8L1.1,4.6L1,5C0.9,5.4 0.8,5.8 0.8,6.2L0.6,7.4C0.4,8.7 0.2,10 0.1,11.2L0,12.5L0,15.7C0.1,19.4 0.5,21.9 0.5,22.1C0.5,22.4 1.3,28.4 4.3,35.5C7.1,42.2 12.4,51.4 22,57.2L22.4,57.5L22.8,57.2C32.4,51.4 37.6,42.1 40.4,35.4C43.3,28.2 44.1,22.3 44.1,22C44.1,21.8 44.6,19.3 44.6,15.6L44.6,14.3C44.7,13.9 44.7,13.2 44.7,12.6Z" style="fill-rule:nonzero;"/><path d="M33.5,31C33.4,31.1 33.2,31.2 33.1,31.2L30.1,31.2C29.7,31.2 29.5,30.9 29.5,30.6C29.5,30.3 29.8,30 30.1,30L33,30C33.3,30 33.6,30.3 33.6,30.6C33.7,30.7 33.6,30.9 33.5,31ZM32.9,32.1C32.8,32.2 32.6,32.3 32.4,32.3L30.6,32.3C30.3,32.3 30.1,32.1 30,31.7L33,31.7C33,31.8 33,32 32.9,32.1ZM32.1,39.7L30.9,39.7L30.6,32.7L32.4,32.7L32.1,39.7ZM32.9,40.7C32.9,41 32.7,41.2 32.4,41.2L30.7,41.2L30.7,41.4L30.7,41.2C30.4,41.2 30.2,41 30.2,40.7C30.2,40.4 30.4,40.2 30.7,40.2L32.5,40.2C32.7,40.2 32.9,40.4 32.9,40.7ZM31.5,45.1C31.3,45.1 31.1,44.9 31.1,44.7L31,41.7L32,41.7L31.9,44.7C31.9,44.9 31.7,45.1 31.5,45.1ZM29.1,28.4C29.1,28 29.3,27.7 29.4,27.3C29.6,26.9 29.8,26.4 29.7,25.9C30,26 30.4,26.2 30.6,26.5C30.5,26.6 30.5,26.7 30.4,26.7C30.4,26.7 29.2,27.9 30,29.4L29.7,29.4C29.7,29.4 29.1,29.2 29.1,28.4ZM31.7,25.9C31.8,25.7 31.8,25.5 31.7,25.3C32.2,25.7 32.8,26.4 32.8,27.3C32.8,28.3 32.1,29.2 31.9,29.4L31.7,29.4C31.5,29.1 31.1,28.5 31.5,27.7C31.6,27.6 32,26.9 32,26.8C32.1,26.7 32.1,26.5 32.1,26.5C32,26.6 31.9,26.7 31.9,26.7C31.8,26.8 31.4,27.2 31.3,27.4C30.7,28.2 31.1,29 31.3,29.3L30.7,29.3C29.8,28 30.8,27 30.8,27C31,27 31,27 31.1,26.9C31.4,26.6 31.6,26.4 31.7,25.9ZM33.1,26.3C33.3,26.1 33.5,25.9 33.6,25.8C33.5,26.9 34,28 34.1,28C34.4,28.9 33.4,29.4 33.2,29.5L32.4,29.5C32.7,29 33.2,28.3 33.2,27.4C33.3,26.9 33.1,26.3 33.1,26.3ZM33.8,29.7C34.3,29.4 34.9,28.7 34.6,27.8C34.6,27.8 33.9,26.5 34.3,25.5L34.4,25.2L34,25.2C33.9,25.2 33.5,25.3 32.9,25.9C32.3,25 31.4,24.4 31.4,24.4L30.5,23.9L31.1,24.8C31.2,25 31.5,25.5 31.4,25.8C31.3,26 31.3,26.1 31.2,26.3C30.6,25.7 29.7,25.4 29.6,25.4L29,25.2L29.2,25.6C29.5,26.2 29.3,26.6 29,27.1C28.8,27.5 28.6,27.9 28.6,28.4C28.6,29.1 28.9,29.5 29.2,29.7C29,29.9 28.8,30.2 28.8,30.5C28.8,30.9 29,31.3 29.4,31.5C29.5,32.1 29.7,32.4 30,32.6L30.3,39.8C29.9,39.9 29.5,40.3 29.5,40.7C29.5,41.2 29.9,41.6 30.3,41.7L30.4,44.7C30.4,45.2 30.8,45.5 31.2,45.5C31.7,45.5 32,45.1 32,44.7L32.1,41.7C32.6,41.6 33,41.2 33,40.7C33,40.2 32.7,39.8 32.2,39.8L32.5,32.6C32.6,32.6 32.7,32.5 32.8,32.4C33,32.2 33.1,31.9 33.2,31.5C33.3,31.5 33.4,31.4 33.4,31.3C33.6,31.1 33.7,30.8 33.7,30.5C34.1,30.2 34,29.9 33.8,29.7Z" style="fill-rule:nonzero;"/><path d="M14.5,31.2L11.5,31.2C11.1,31.2 10.9,30.9 10.9,30.6C10.9,30.4 11,30.3 11.1,30.2C11.2,30.1 11.4,30 11.5,30L14.4,30C14.7,30 15,30.3 15,30.6C15.1,30.9 14.8,31.2 14.5,31.2ZM14.3,32.1C14.2,32.2 14,32.3 13.8,32.3L12,32.3C11.7,32.3 11.5,32.1 11.4,31.7L14.5,31.7C14.5,31.9 14.4,32 14.3,32.1ZM13.6,39.8L12.4,39.8L12.1,32.8L13.9,32.8L13.6,39.8ZM14.4,40.8C14.4,40.9 14.3,41.1 14.2,41.2C14.1,41.3 14,41.4 13.8,41.4L12.1,41.4L12.1,41.6L12.1,41.4C11.8,41.4 11.6,41.2 11.6,40.9C11.6,40.6 11.8,40.4 12.1,40.4L13.8,40.4C14.1,40.2 14.4,40.5 14.4,40.8ZM13,45.1C12.8,45.1 12.6,44.9 12.6,44.7L12.5,41.7L13.5,41.7L13.4,44.7C13.4,44.9 13.2,45.1 13,45.1ZM10.6,28.5C10.6,28.1 10.8,27.8 10.9,27.4C11.1,27 11.3,26.5 11.2,26C11.5,26.1 11.9,26.3 12.1,26.6C12,26.7 12,26.7 11.9,26.8C11.9,26.8 10.7,28 11.5,29.5L11.2,29.5C11.2,29.5 10.6,29.2 10.6,28.5ZM13.2,25.9C13.3,25.7 13.3,25.5 13.2,25.3C13.7,25.7 14.3,26.4 14.3,27.3C14.3,28.3 13.6,29.2 13.4,29.4L13.2,29.4C13,29.1 12.6,28.5 13,27.7C13.1,27.6 13.5,26.9 13.5,26.8C13.6,26.7 13.6,26.5 13.6,26.5C13.5,26.6 13.4,26.7 13.4,26.7C13.3,26.8 12.9,27.2 12.8,27.4C12.2,28.2 12.6,29 12.8,29.3L12.2,29.3C11.3,28 12.3,27 12.3,27C12.4,26.9 12.4,26.8 12.5,26.8C12.8,26.6 13,26.4 13.2,25.9ZM14.6,26.3C14.8,26.1 15,25.9 15.1,25.8C15,26.9 15.6,28 15.6,28C15.9,28.9 14.9,29.4 14.7,29.5L14,29.5C14.3,29 14.8,28.3 14.8,27.4C14.8,26.9 14.6,26.3 14.6,26.3ZM15.2,29.8C15.7,29.5 16.3,28.8 16,27.9C16,27.9 15.3,26.6 15.6,25.6L15.7,25.3L15.3,25.3C15.2,25.3 14.8,25.4 14.2,26C13.6,25.1 12.7,24.5 12.7,24.5L11.8,24L12.4,24.9C12.5,25.1 12.8,25.6 12.7,25.9C12.6,26.1 12.6,26.2 12.5,26.3C11.9,25.7 11,25.4 10.9,25.4L10.4,25.3L10.6,25.7C10.9,26.3 10.7,26.7 10.4,27.2C10.2,27.6 10,28 10,28.5C10,29.2 10.4,29.6 10.6,29.8C10.4,30 10.3,30.3 10.3,30.6C10.3,31 10.5,31.4 10.9,31.6C10.9,32.1 11.2,32.5 11.5,32.7L11.8,39.9C11.4,40 11,40.4 11,40.8C11,41.3 11.4,41.7 11.8,41.8L11.9,44.8C11.9,45.3 12.3,45.6 12.7,45.6C13.2,45.6 13.5,45.2 13.5,44.8L13.6,41.8C13.8,41.8 14,41.7 14.2,41.5C14.4,41.3 14.5,41.1 14.5,40.8C14.5,40.3 14.2,39.9 13.7,39.9L14,32.7C14.1,32.7 14.2,32.6 14.3,32.5C14.5,32.3 14.6,32 14.6,31.6C14.9,31.4 15.2,31.1 15.2,30.6C15.6,30.3 15.4,30 15.2,29.8Z" style="fill-rule:nonzero;"/><path d="M25.1,32.4C24.9,32.6 24.7,32.7 24.4,32.7L20.2,32.7C19.7,32.7 19.2,32.3 19.2,31.7C19.2,31.2 19.6,30.7 20.2,30.7L24.4,30.7C24.9,30.7 25.4,31.1 25.4,31.7C25.4,32 25.3,32.2 25.1,32.4ZM23.6,34L21.1,34C20.7,34 20.3,33.6 20.2,33.1L24.7,33.1C24.4,33.6 24,34 23.6,34ZM23.3,44.6L21.4,44.6L21,34.5L23.8,34.5L23.3,44.6ZM24.4,45.9C24.4,46.3 24,46.7 23.6,46.7L21.2,46.7C20.8,46.7 20.4,46.3 20.4,45.9C20.4,45.5 20.8,45.1 21.2,45.1L23.6,45.1C24,45.1 24.4,45.5 24.4,45.9ZM23,51.5C23,51.7 22.9,51.8 22.8,51.9C22.7,52 22.5,52.1 22.4,52.1C22.2,52.1 22.1,52 22,51.9C21.9,51.8 21.8,51.6 21.8,51.5L21.6,47.3L23.2,47.3L23,51.5ZM18.9,28.7C18.9,28.1 19.1,27.7 19.4,27.2C19.7,26.6 20,25.9 19.8,25.1C20.2,25.3 20.8,25.5 21.3,26C21.2,26.1 20.9,26.4 20.8,26.5C20.8,26.5 19.1,28.2 20.4,30.2L20.2,30.2C20.1,30.2 20,30.2 19.8,30.3C19.8,30.3 18.9,29.9 18.9,28.7ZM22.4,25.2C22.5,24.8 22.5,24.4 22.4,24.1C23.1,24.7 24.2,25.8 24.2,27.2C24.2,28.7 23.2,29.9 22.8,30.3L22.7,30.3C22.5,30 22.3,29.5 22.3,29C22.3,28 22.8,27.4 22.8,27.4C22.8,27.4 22.2,27.8 22,28.8C21.9,29.3 22,29.7 22.3,30.4L21.7,30.4C21.5,30.1 20.8,29.1 21.5,28C21.6,27.8 22.3,27 22.3,26.8C22.4,26.6 22.4,26.4 22.4,26.4C22.3,26.6 22.1,26.7 22.1,26.7C21.9,26.9 21.4,27.4 21.2,27.6C20.2,28.8 21,30.1 21.2,30.4L20.8,30.4C19.4,28.5 20.9,27.1 21,27C21.1,26.9 21.2,26.8 21.3,26.7C21.8,26.1 22.2,25.8 22.4,25.2ZM25.4,25.4C25.1,26.9 25.6,28.1 25.6,28.1C26,29.4 25,30.1 24.7,30.3L23.5,30.3C24,29.7 24.7,28.6 24.7,27.2C24.7,26.8 24.6,26.5 24.5,26.2C24.8,25.7 25.2,25.5 25.4,25.4ZM25.2,30.5C25.7,30.1 26.4,29.3 26,27.9C26,27.9 25.5,26.5 25.9,25L26,24.7L25.6,24.7C25.6,24.7 24.9,24.8 24.2,25.6C23.5,24.1 21.9,23.2 21.9,23.1L21.1,22.6L21.6,23.4C21.6,23.4 22.1,24.3 21.9,24.9C21.8,25.2 21.7,25.4 21.6,25.6C20.8,24.7 19.5,24.4 19.5,24.4L19,24.4L19.2,24.8C19.6,25.7 19.3,26.3 18.9,27C18.6,27.5 18.4,28.1 18.4,28.7C18.4,29.6 18.9,30.2 19.3,30.5C19,30.8 18.7,31.2 18.7,31.6C18.7,32.2 19,32.7 19.5,32.9C19.6,33.4 19.9,34 20.4,34.3L21,44.7C20.4,44.8 19.9,45.3 19.9,46C19.9,46.7 20.4,47.2 21.1,47.3L21.3,51.6C21.3,51.9 21.4,52.2 21.6,52.4C21.8,52.6 22.1,52.7 22.4,52.7C22.7,52.7 23,52.6 23.2,52.4C23.4,52.2 23.5,51.9 23.5,51.6L23.7,47.3C24.4,47.3 24.9,46.7 24.9,46C24.9,45.3 24.4,44.8 23.8,44.7L24.3,34.4C24.8,34.1 25.1,33.6 25.2,33.1C25.3,33 25.4,33 25.6,32.8C25.9,32.5 26,32.2 26,31.8C25.9,31.2 25.6,30.7 25.2,30.5Z" style="fill-rule:nonzero;"/></g></svg>